<svg width="51" height="78" viewBox="0 0 51 78" fill="none" xmlns="http://www.w3.org/2000/svg">
<path d="M0.61377 73.1716H50.9326V77.7756H0.61377V73.1716Z" fill="#BADF01"/>
<path d="M25.7948 61.2932H32.977L41.7246 11.57C40.0672 12.5829 38.2256 13.2274 35.6473 13.3195L36.2919 9.36007C40.988 8.99175 42.7375 6.96599 44.7633 0.796631H48.7227L38.0414 61.2932H45.2237L44.3949 66.2655H24.9661L25.7948 61.2932Z" fill="#BADF01"/>
<path d="M13.4129 67.0943C3.74452 67.0943 0.613801 60.9249 2.27124 51.809L8.901 14.4245C10.7426 4.01946 15.7149 0.1521 22.8972 0.1521C30.6319 0.1521 35.9725 5.12442 34.223 14.977L27.4091 53.3743C25.7516 62.4903 22.1605 67.0943 13.4129 67.0943ZM13.8733 62.3061C18.7536 62.3061 21.0556 59.5437 22.2526 53.006L29.0665 14.4245C30.2636 7.79474 27.6853 4.7561 22.5288 4.7561C18.109 4.7561 15.3466 7.42642 14.1496 14.1483L7.42772 52.3615C6.1386 59.1754 8.53268 62.3061 13.8733 62.3061Z" fill="#BADF01"/>
</svg>
