<svg width="61" height="78" viewBox="0 0 61 78" fill="none" xmlns="http://www.w3.org/2000/svg">
<path d="M0.61377 73.1716H59.3076V77.7756H0.61377V73.1716Z" fill="#BADF01"/>
<path d="M26.7114 66.2655L28.0005 58.6229C29.658 48.8624 36.1036 42.7851 42.0888 37.1683C47.5215 31.9197 52.7701 27.1315 53.9671 20.2255L55.3483 12.3067C56.177 7.24226 54.0592 4.7561 49.5473 4.7561C44.9433 4.7561 42.5492 7.33434 41.7205 12.3067L39.4185 25.1058H34.262L36.6561 11.8463C38.0373 4.20362 42.365 0.1521 49.9156 0.1521C58.0186 0.1521 61.886 5.12442 60.5048 12.7671L59.1236 20.4097C57.6503 28.8811 51.8493 34.4059 46.1403 39.8386C40.6155 45.0871 35.0907 50.3357 33.6174 58.2546L33.0649 61.1091H52.3097L51.3889 66.2655H26.7114Z" fill="#BADF01"/>
<path d="M13.4129 67.0943C3.74452 67.0943 0.613801 60.9249 2.27124 51.809L8.901 14.4245C10.7426 4.01946 15.7149 0.1521 22.8972 0.1521C30.6319 0.1521 35.9725 5.12442 34.223 14.977L27.4091 53.3743C25.7516 62.4903 22.1605 67.0943 13.4129 67.0943ZM13.8733 62.3061C18.7536 62.3061 21.0556 59.5437 22.2526 53.006L29.0665 14.4245C30.2636 7.79474 27.6853 4.7561 22.5288 4.7561C18.109 4.7561 15.3466 7.42642 14.1496 14.1483L7.42772 52.3615C6.1386 59.1754 8.53268 62.3061 13.8733 62.3061Z" fill="#BADF01"/>
</svg>
