<svg width="61" height="79" viewBox="0 0 61 79" fill="none" xmlns="http://www.w3.org/2000/svg">
<path d="M0.61377 73.9185H60.4039V78.5225H0.61377V73.9185Z" fill="#BADF01"/>
<path d="M40.3305 67.8411C30.57 67.8411 27.7155 62.2242 29.2809 53.2004L31.1225 42.7033H36.371L34.4373 53.6608C33.3324 59.9222 35.0819 63.0529 40.6067 63.0529C45.3949 63.0529 47.6969 60.5668 48.8018 54.6736L50.7355 43.9924C51.6563 38.5597 49.9068 35.4289 44.5661 35.4289H40.8829L41.7117 30.6408H45.3028C50.3672 30.6408 53.1296 27.418 53.9583 22.3536L55.5237 13.698C56.5365 8.08117 54.4187 5.50293 49.6305 5.50293C45.0265 5.50293 42.7245 7.98909 41.7117 13.7901L39.8701 24.3793H34.6215L36.6473 13.3297C38.2126 4.76628 42.4483 0.898926 49.9989 0.898926C58.1019 0.898926 62.2455 5.59501 60.6801 14.0664L59.2069 22.4456C58.2861 27.8784 55.892 31.5616 51.1038 33.0348C55.5237 34.416 56.9969 38.2834 55.892 44.0844L53.9583 55.2261C52.3929 63.7896 48.6177 67.8411 40.3305 67.8411Z" fill="#BADF01"/>
<path d="M13.4129 67.8411C3.74452 67.8411 0.613801 61.6717 2.27124 52.5558L8.901 15.1713C10.7426 4.76628 15.7149 0.898926 22.8972 0.898926C30.6319 0.898926 35.9725 5.87125 34.223 15.7238L27.4091 54.1212C25.7516 63.2371 22.1605 67.8411 13.4129 67.8411ZM13.8733 63.0529C18.7536 63.0529 21.0556 60.2905 22.2526 53.7528L29.0665 15.1713C30.2636 8.54157 27.6853 5.50293 22.5288 5.50293C18.109 5.50293 15.3466 8.17325 14.1496 14.8951L7.42772 53.1083C6.1386 59.9222 8.53268 63.0529 13.8733 63.0529Z" fill="#BADF01"/>
</svg>
