<svg width="60" height="79" viewBox="0 0 60 79" fill="none" xmlns="http://www.w3.org/2000/svg">
<path d="M0.61377 73.9185H59.573V78.5225H0.61377V73.9185Z" fill="#BADF01"/>
<path d="M42.7223 67.0123L45.3926 51.8191H28.0815L28.8182 47.7676L54.3243 1.54346H59.0204L51.0095 47.031H57.0867L56.258 51.8191H50.1807L47.5104 67.0123H42.7223ZM49.9045 18.302L33.8826 47.031H46.2213L51.1936 18.8545L53.8639 8.90986L49.9045 18.302Z" fill="#BADF01"/>
<path d="M13.4129 67.8411C3.74452 67.8411 0.613801 61.6717 2.27124 52.5558L8.901 15.1713C10.7426 4.76628 15.7149 0.898926 22.8972 0.898926C30.6319 0.898926 35.9725 5.87125 34.223 15.7238L27.4091 54.1212C25.7516 63.2371 22.1605 67.8411 13.4129 67.8411ZM13.8733 63.0529C18.7536 63.0529 21.0556 60.2905 22.2526 53.7528L29.0665 15.1713C30.2636 8.54157 27.6853 5.50293 22.5288 5.50293C18.109 5.50293 15.3466 8.17325 14.1496 14.8951L7.42772 53.1083C6.1386 59.9222 8.53268 63.0529 13.8733 63.0529Z" fill="#BADF01"/>
</svg>
