<svg width="181" height="24" viewBox="0 0 181 24" fill="none" xmlns="http://www.w3.org/2000/svg">
<path d="M110.626 12.025C111.665 12.9415 112.301 14.1178 112.535 15.5537C112.77 16.9795 112.53 18.283 111.818 19.4644C111.369 20.2078 110.784 20.8443 110.061 21.3739C109.348 21.8933 108.554 22.2853 107.678 22.5501C106.812 22.8149 105.962 23.0033 105.127 23.1153C104.292 23.2172 103.416 23.263 102.499 23.2528C100.361 23.2528 98.5019 22.9167 96.9234 22.2446C95.6097 21.6539 94.6626 20.8749 94.0821 19.9074C93.5729 19.0519 93.3641 18.1354 93.4558 17.1577C93.5576 16.3735 93.8682 15.737 94.3876 15.2482C94.9579 14.739 95.6861 14.4997 96.5721 14.5302C97.0813 14.5608 97.5752 14.6524 98.0539 14.8052C99.4796 15.8541 101.18 16.6027 103.156 17.0508C103.39 17.1119 103.742 17.173 104.21 17.2341C104.689 17.2952 105.004 17.341 105.157 17.3716C105.351 17.4021 105.458 17.3206 105.478 17.1271C105.509 16.9235 105.432 16.786 105.249 16.7147C105.218 16.6943 105.188 16.6841 105.157 16.6841C102.52 16.3888 100.254 15.5537 98.3594 14.1789C97.229 13.3438 96.3124 12.3305 95.6097 11.139C95.2431 10.5788 94.9834 10.0187 94.8306 9.45859L94.5709 8.67952C94.5506 8.52676 94.52 8.31799 94.4793 8.0532C94.408 7.09591 94.5709 6.17935 94.9681 5.30352C95.3755 4.41752 95.9559 3.65372 96.7096 3.01213C97.4734 2.36035 98.4103 1.87152 99.5204 1.54563C100.417 1.25029 101.603 1.10263 103.08 1.10263C105.514 1.14336 107.423 1.53035 108.808 2.2636C109.877 2.85427 110.494 3.61298 110.657 4.53972V4.79942C110.677 4.86052 110.687 4.95218 110.687 5.07438C110.657 5.30862 110.626 5.49702 110.595 5.6396C110.595 5.65996 110.575 5.75162 110.534 5.91456C110.534 5.92475 110.529 5.94512 110.519 5.97567C110.509 6.00622 110.504 6.02659 110.504 6.03677C110.504 6.06732 110.494 6.0826 110.473 6.0826V6.11315C110.422 6.16407 110.392 6.20481 110.382 6.23536C110.137 6.77511 109.872 7.21302 109.587 7.5491C109.088 8.13977 108.452 8.52676 107.678 8.71007C106.904 8.8832 106.145 8.85774 105.402 8.63369C104.903 8.48093 104.495 8.34854 104.18 8.23651C104.129 8.19578 103.991 8.10921 103.767 7.97682C103.757 7.97682 103.737 7.97173 103.706 7.96155C103.675 7.95136 103.655 7.94627 103.645 7.94627C102.993 7.6102 102.464 7.23848 102.056 6.83112L101.766 6.54088V6.51033H101.735V6.47978C101.634 6.36775 101.522 6.31683 101.399 6.32702C101.277 6.32702 101.18 6.38303 101.109 6.49505C101.038 6.59689 101.038 6.70892 101.109 6.83112C101.323 7.17738 101.7 7.52873 102.239 7.88517C102.738 8.23142 103.207 8.51657 103.645 8.74062H103.675C104.236 9.04614 104.984 9.36185 105.921 9.68773C106.868 10.0136 107.744 10.3599 108.548 10.7265C109.363 11.0829 110.056 11.5158 110.626 12.025Z" fill="#BADF01"/>
<path d="M128.32 4.92162C128.432 5.42064 128.422 5.98076 128.289 6.60198C128.065 7.51854 127.795 8.13467 127.48 8.45038C127.021 8.87811 126.324 9.19381 125.387 9.39749C124.409 9.63172 123.365 9.71319 122.255 9.64191C121.614 9.61135 121.038 9.52988 120.529 9.39749C120.448 9.39749 120.397 9.41786 120.376 9.45859C120.193 9.49933 120.101 9.59099 120.101 9.73356C120.112 10.6705 120.188 11.6278 120.331 12.6054C120.483 13.5729 120.707 14.739 121.003 16.1037C121.308 17.4581 121.507 18.39 121.598 18.8992C121.772 19.7546 121.879 20.3809 121.919 20.7781C121.919 20.8087 121.924 20.8596 121.935 20.9309C121.945 20.992 121.95 21.0378 121.95 21.0683L121.919 21.2211V21.3128C121.868 21.6998 121.644 22.0766 121.247 22.4432C120.799 22.82 120.061 23.0899 119.032 23.2528C118.971 23.263 118.304 23.3241 117.031 23.4361C116.379 23.4361 115.773 23.3648 115.213 23.2223C114.388 22.9778 113.792 22.5705 113.426 22.0002C113.293 21.7965 113.202 21.5979 113.151 21.4044C112.947 20.7221 112.835 20.2333 112.815 19.9379C112.784 19.5204 112.805 19.057 112.876 18.5478C112.947 18.0284 113.008 17.6465 113.059 17.4021C113.12 17.1475 113.253 16.6689 113.456 15.9662C113.66 15.2635 113.777 14.8663 113.808 14.7746C114.286 12.9924 114.663 11.2001 114.938 9.39749C114.958 9.30583 114.943 9.21418 114.892 9.12252C114.852 9.02068 114.78 8.96467 114.678 8.95449C114.638 8.9443 114.571 8.93412 114.48 8.92393C114.398 8.91375 114.332 8.90357 114.281 8.89338C112.56 8.73044 111.318 8.46056 110.554 8.08376C109.851 7.77823 109.383 7.30468 109.149 6.66309C108.945 6.11315 108.894 5.5123 108.996 4.86052C109.159 3.80138 109.826 2.98667 110.997 2.41636C112.036 1.88679 113.589 1.52017 115.656 1.31649C118.681 1.06189 121.217 1.12809 123.264 1.51508C126.247 2.10575 127.933 3.24126 128.32 4.92162Z" fill="#BADF01"/>
<path d="M141.67 10.6807C141.864 12.3916 141.935 13.7766 141.884 14.8357C141.813 16.6485 141.436 18.2117 140.754 19.5255C140.296 20.3911 139.69 21.1193 138.936 21.7099C138.182 22.2904 137.332 22.6978 136.385 22.932C135.224 23.2477 133.9 23.3343 132.413 23.1917C131.11 23.0593 129.969 22.7029 128.991 22.1224C127.28 21.104 125.987 19.3829 125.111 16.9591C124.439 15.0954 123.92 12.6564 123.553 9.64191C123.248 7.31995 123.237 5.42064 123.523 3.94396C123.767 2.67096 124.185 1.83587 124.775 1.4387C125.346 1.07207 126.013 0.96005 126.776 1.10263C127.53 1.27575 128.197 1.70348 128.778 2.38581C129.195 2.84409 129.653 3.58243 130.152 4.60083C130.6 5.58868 130.937 6.42376 131.161 7.10609C131.568 8.41983 131.96 10.1817 132.337 12.3916C132.378 12.6564 132.434 13.0485 132.505 13.5678C132.586 14.077 132.647 14.4589 132.688 14.7135C132.138 14.8154 131.542 15.0343 130.901 15.3704C130.779 15.4519 130.718 15.5486 130.718 15.6606C130.718 15.7727 130.774 15.8643 130.886 15.9356C130.998 16.0069 131.12 16.0069 131.252 15.9356C131.914 15.6097 132.541 15.4213 133.131 15.3704C133.864 15.2787 134.593 15.3093 135.316 15.4621C135.458 15.4926 135.57 15.4621 135.652 15.3704C135.743 15.2686 135.774 15.1565 135.743 15.0343C135.713 14.9019 135.621 14.8154 135.468 14.7746C134.969 14.6321 134.292 14.5811 133.437 14.6219C133.437 14.1229 133.416 13.1859 133.376 11.8111C133.335 10.4261 133.325 9.35675 133.345 8.60314C133.386 7.09591 133.467 5.95021 133.589 5.16604C133.742 3.97451 134.007 3.05795 134.384 2.41636C134.608 2.009 134.847 1.72894 135.102 1.57618C135.458 1.34195 135.861 1.21465 136.309 1.19428C136.757 1.17391 137.164 1.25539 137.531 1.4387C138.03 1.67293 138.554 2.15667 139.104 2.88992C139.644 3.6028 140.051 4.34114 140.326 5.10494C140.968 6.85658 141.416 8.71516 141.67 10.6807Z" fill="#BADF01"/>
<path d="M158.319 3.16489C159.317 4.26476 159.668 5.86874 159.373 7.97682C159.19 9.42295 158.808 10.8538 158.227 12.2694C157.066 15.0903 155.238 17.5956 152.743 19.7852C151.582 20.8137 150.436 21.6488 149.306 22.2904C148.186 22.932 147.004 23.2936 145.762 23.375C145.161 23.4056 144.596 23.3343 144.066 23.1612C143.537 22.988 143.155 22.6825 142.921 22.2446C142.605 21.6539 142.493 20.717 142.585 19.4338C142.686 17.7229 143.196 15.3042 144.112 12.1777C144.143 12.0962 144.199 11.9231 144.28 11.6583C144.372 11.3834 144.443 11.1695 144.494 11.0167C144.494 11.0066 144.499 10.9913 144.509 10.9709C144.52 10.9404 144.525 10.9149 144.525 10.8945C144.565 10.7927 144.56 10.7061 144.509 10.6348C144.458 10.5534 144.387 10.5025 144.296 10.4821C144.234 10.4617 144.163 10.4515 144.082 10.4515C144.071 10.4515 144.056 10.4566 144.036 10.4668C144.015 10.477 144 10.4821 143.99 10.4821H143.837C143.827 10.4821 143.802 10.4872 143.761 10.4974C143.73 10.5075 143.71 10.5126 143.7 10.5126C143.639 10.5126 143.481 10.533 143.226 10.5737C142.972 10.6043 142.778 10.6196 142.646 10.6196C141.525 10.6603 140.604 10.5025 139.881 10.146C139.076 9.76921 138.674 9.0716 138.674 8.0532C138.674 7.23848 138.944 6.4645 139.484 5.73125C140.441 4.45825 142.131 3.38384 144.555 2.50802C146.449 1.79514 148.512 1.32667 150.742 1.10263C154.255 0.736002 156.781 1.42342 158.319 3.16489ZM151.246 7.70185C150.33 9.55534 149.612 11.7042 149.092 14.1483C149.062 14.2909 149.097 14.408 149.199 14.4997C149.301 14.5913 149.413 14.627 149.535 14.6066C149.668 14.5761 149.749 14.4844 149.78 14.3316C150.228 12.1115 150.925 10.0187 151.872 8.0532C151.934 7.92081 151.918 7.7986 151.827 7.68658C151.745 7.57455 151.643 7.51854 151.521 7.51854C151.409 7.51854 151.317 7.57965 151.246 7.70185Z" fill="#BADF01"/>
<path d="M165.959 14.1178V14.4844C165.959 15.7574 165.868 16.9897 165.684 18.1812C165.369 20.0347 164.91 21.4452 164.31 22.4126C163.973 22.9524 163.576 23.2732 163.118 23.375C162.558 23.5278 162.033 23.3903 161.545 22.9626C161.025 22.4636 160.618 21.8423 160.322 21.0989C160.027 20.3962 159.767 19.5204 159.543 18.4714C159.279 17.3512 159.126 15.8796 159.085 14.0567C159.085 12.2439 159.197 10.8232 159.421 9.79467C159.533 9.2651 159.732 8.68461 160.017 8.0532C160.547 8.93921 161.244 9.45859 162.11 9.61135H162.431C162.879 9.61135 163.322 9.48405 163.76 9.22945C164.208 8.96467 164.6 8.61332 164.936 8.17541C165.292 8.83737 165.552 9.73356 165.715 10.864C165.837 11.5972 165.919 12.6818 165.959 14.1178ZM165.027 2.17195C165.445 2.98667 165.588 3.99488 165.455 5.19659C165.394 5.6345 165.221 6.2099 164.936 6.92278C164.61 6.4645 164.208 6.11824 163.729 5.88401C163.25 5.64978 162.741 5.56831 162.201 5.6396C161.366 5.7007 160.699 6.03168 160.2 6.63254C160.037 6.03168 160.007 5.30352 160.109 4.44807C160.241 3.39912 160.597 2.5182 161.178 1.80532C161.758 1.08226 162.395 0.720726 163.087 0.720726H163.301C164.004 0.812382 164.579 1.29612 165.027 2.17195ZM164.371 7.2283C164.401 7.25885 164.437 7.31486 164.478 7.39634C164.518 7.46762 164.554 7.51854 164.584 7.5491C164.259 8.02774 163.882 8.39437 163.454 8.64897C163.037 8.89338 162.609 8.98504 162.171 8.92393C161.468 8.83228 160.918 8.36381 160.521 7.51854C160.511 7.50836 160.491 7.47781 160.46 7.42689C160.44 7.37597 160.419 7.34032 160.399 7.31996C160.704 6.93296 161.056 6.64272 161.453 6.44922C161.993 6.22518 162.522 6.18953 163.042 6.34229C163.571 6.48487 164.014 6.7802 164.371 7.2283Z" fill="#BADF01"/>
<path d="M180.833 12.8651C181.138 15.0751 180.97 17.066 180.329 18.8381C179.83 20.2231 179.076 21.3179 178.068 22.1224C177.059 22.9167 175.842 23.3139 174.417 23.3139C173.582 23.3139 172.792 23.1663 172.049 22.8709C171.306 22.5756 170.654 22.1886 170.094 21.7099C169.544 21.2211 169.034 20.6406 168.566 19.9685C168.098 19.2861 167.705 18.5936 167.39 17.8909C167.084 17.1882 166.819 16.4397 166.595 15.6454C165.76 12.6818 165.562 9.94233 166 7.42689C166.468 4.62629 167.492 2.72697 169.07 1.72894C169.661 1.27066 170.47 1.04152 171.499 1.04152C172.874 1.04152 174.167 1.4998 175.379 2.41636C176.601 3.33292 177.625 4.45825 178.45 5.79236C179.611 7.70695 180.405 10.0645 180.833 12.8651ZM172.293 9.29056C172.232 9.16835 172.146 9.10725 172.034 9.10725C171.901 9.10725 171.794 9.16326 171.713 9.27528C171.642 9.38731 171.636 9.50951 171.698 9.64191C172.635 11.7296 173.281 13.7613 173.638 15.737C173.668 15.8898 173.76 15.9662 173.913 15.9662C174.014 15.9662 174.106 15.9254 174.188 15.844C174.269 15.7625 174.295 15.6556 174.264 15.5232C173.928 13.6086 173.271 11.531 172.293 9.29056Z" fill="#BADF01"/>
<path d="M0.842773 21.7687V2.16544H3.80962V10.5695H13.3048V2.16544H16.2716V21.7687H13.3048V13.003H3.80962V21.7687H0.842773Z" fill="#BADF01"/>
<path d="M25.2646 22.106C23.585 22.106 22.261 21.5849 21.3047 20.5367C20.3423 19.4885 19.8642 17.9316 19.8642 15.8597V7.87861H22.831V15.5532C22.831 18.2442 23.9344 19.5866 26.135 19.5866C27.2384 19.5866 28.1395 19.1943 28.8506 18.4097C29.5616 17.6251 29.9171 16.5094 29.9171 15.0505V7.87861H32.884V21.7688H30.2543L30.0336 19.3292C29.6045 20.1873 28.9731 20.8678 28.1456 21.3581C27.312 21.8547 26.3557 22.0999 25.2768 22.0999L25.2646 22.106Z" fill="#BADF01"/>
<path d="M44.4759 22.1057C43.3909 22.1057 42.4347 21.8912 41.6071 21.4621C40.7735 21.033 40.1176 20.4261 39.6333 19.6415L39.3268 21.7686H36.6665V1.60751H39.6333V10.036C40.0808 9.38015 40.6999 8.80395 41.4846 8.3013C42.2692 7.79865 43.2745 7.54733 44.5066 7.54733C45.849 7.54733 47.0382 7.86608 48.0619 8.49745C49.0856 9.13496 49.8947 9.99927 50.4832 11.1026C51.0716 12.206 51.3659 13.4565 51.3659 14.8541C51.3659 16.2517 51.0716 17.5022 50.4832 18.5933C49.8947 19.6844 49.0856 20.5426 48.0619 21.1678C47.0321 21.7931 45.8429 22.1057 44.4759 22.1057ZM43.9733 19.5312C45.2421 19.5312 46.2904 19.096 47.1118 18.2255C47.9332 17.3612 48.3438 16.2211 48.3438 14.8235C48.3438 13.9101 48.16 13.0948 47.786 12.3899C47.4121 11.6788 46.8972 11.1272 46.2474 10.7226C45.5915 10.318 44.8376 10.1219 43.9794 10.1219C42.7105 10.1219 41.6684 10.5632 40.8593 11.4398C40.044 12.3163 39.6395 13.4442 39.6395 14.8296C39.6395 16.2149 40.044 17.3673 40.8593 18.2317C41.6684 19.1021 42.7105 19.5373 43.9794 19.5373L43.9733 19.5312Z" fill="#BADF01"/>
<path d="M61.0816 22.1055C59.7208 22.1055 58.5071 21.8052 57.4527 21.1922C56.3984 20.5853 55.5709 19.7394 54.9763 18.6605C54.3755 17.5817 54.0813 16.3189 54.0813 14.8784C54.0813 13.4379 54.3755 12.1445 54.964 11.0411C55.5525 9.93778 56.3739 9.0796 57.4282 8.46661C58.4825 7.8475 59.7085 7.54101 61.1122 7.54101C62.516 7.54101 63.6623 7.8475 64.6676 8.45435C65.6729 9.06121 66.4575 9.87035 67.0214 10.8756C67.5792 11.8809 67.8612 12.9966 67.8612 14.2103C67.8612 14.3942 67.8612 14.5965 67.8489 14.811C67.8367 15.0255 67.8244 15.2646 67.806 15.5221H56.9991C57.0911 16.8645 57.5385 17.8882 58.3293 18.587C59.12 19.2858 60.0395 19.6352 61.0877 19.6352C61.9275 19.6352 62.6324 19.4452 63.2025 19.0651C63.7726 18.6851 64.1956 18.164 64.4775 17.5081H67.4444C67.0705 18.8138 66.3287 19.9049 65.2192 20.7876C64.1097 21.6642 62.7305 22.1055 61.0877 22.1055H61.0816ZM61.0816 9.98069C60.0947 9.98069 59.212 10.2749 58.4519 10.8634C57.6857 11.4518 57.2198 12.3345 57.0543 13.5115H64.8944C64.8392 12.4265 64.453 11.5683 63.7481 10.9369C63.037 10.3056 62.1543 9.98682 61.0877 9.98682L61.0816 9.98069Z" fill="#BADF01"/>
<path d="M70.9388 21.7684V7.87815H73.5991L73.8505 10.5079C74.3347 9.59451 75.009 8.87118 75.8794 8.33789C76.7438 7.80459 77.7981 7.54101 79.0302 7.54101V10.6488H78.221C77.3996 10.6488 76.6641 10.7837 76.0204 11.0534C75.3768 11.3231 74.8619 11.7829 74.4818 12.4265C74.1018 13.0701 73.9056 13.9651 73.9056 15.0991V21.7623H70.9388V21.7684Z" fill="#BADF01"/>
<path d="M89.8349 10.3732V7.87834H85.9118V1.60751H82.9449V7.87834H80.5666V10.3732H82.9449V17.2325C82.9449 18.9305 83.3495 20.1135 84.1525 20.7755C84.9555 21.4376 86.0344 21.7686 87.4014 21.7686H89.6939V19.2492H88.1002C87.2971 19.2492 86.7332 19.1021 86.4083 18.814C86.0834 18.5259 85.9179 17.9987 85.9179 17.2325V10.3732H89.841H89.8349Z" fill="#BADF01"/>
</svg>
