<svg width="62" height="487" viewBox="0 0 62 487" fill="none" xmlns="http://www.w3.org/2000/svg">
<path d="M31.4334 297.06C28.9602 299.863 25.7862 301.581 21.9115 302.213C18.0643 302.845 14.5468 302.199 11.3591 300.275C9.35303 299.066 7.6355 297.486 6.20653 295.535C4.80504 293.611 3.74705 291.468 3.03256 289.104C2.31807 286.769 1.80969 284.474 1.50741 282.221C1.23261 279.967 1.10895 277.604 1.13642 275.131C1.13642 269.36 2.04327 264.345 3.85697 260.085C5.45083 256.54 7.55307 253.985 10.1637 252.418C12.472 251.044 14.9453 250.481 17.5834 250.728C19.6993 251.003 21.4169 251.841 22.7359 253.243C24.1099 254.782 24.7557 256.746 24.6733 259.137C24.5908 260.511 24.3435 261.844 23.9313 263.136C21.1008 266.983 19.081 271.572 17.8719 276.903C17.707 277.535 17.5421 278.483 17.3773 279.747C17.2124 281.039 17.0887 281.891 17.0063 282.303C16.9238 282.825 17.1437 283.114 17.6658 283.169C18.2154 283.251 18.5864 283.045 18.7788 282.55C18.8337 282.468 18.8612 282.386 18.8612 282.303C19.6581 275.186 21.9115 269.071 25.6213 263.96C27.8747 260.91 30.609 258.436 33.8242 256.54C35.3356 255.551 36.847 254.85 38.3584 254.438L40.4607 253.737C40.8729 253.682 41.4362 253.6 42.1507 253.49C44.7339 253.298 47.2071 253.737 49.5704 254.809C51.9612 255.908 54.0222 257.475 55.7535 259.508C57.5122 261.569 58.8312 264.097 59.7106 267.093C60.5075 269.511 60.906 272.712 60.906 276.697C60.7961 283.265 59.7518 288.417 57.7733 292.155C56.1794 295.04 54.1321 296.703 51.6314 297.142L50.9307 297.142C50.7658 297.197 50.5185 297.225 50.1887 297.225C49.5567 297.142 49.0483 297.06 48.6635 296.978C48.6086 296.978 48.3613 296.923 47.9216 296.813C47.8941 296.813 47.8391 296.799 47.7567 296.771C47.6743 296.744 47.6193 296.73 47.5918 296.73C47.5094 296.73 47.4682 296.703 47.4682 296.648L47.3857 296.648C47.2483 296.51 47.1384 296.428 47.0559 296.4C45.5995 295.741 44.4178 295.026 43.511 294.257C41.9171 292.91 40.8729 291.193 40.3782 289.104C39.9111 287.016 39.9798 284.969 40.5843 282.963C40.9965 281.616 41.3538 280.517 41.6561 279.665C41.766 279.528 41.9996 279.157 42.3568 278.552C42.3568 278.525 42.3706 278.47 42.398 278.387C42.4255 278.305 42.4393 278.25 42.4393 278.222C43.3461 276.464 44.3491 275.035 45.4484 273.935L46.2315 273.152L46.314 273.152L46.314 273.07L46.3964 273.07C46.6987 272.795 46.8361 272.493 46.8086 272.163C46.8086 271.833 46.6575 271.572 46.3552 271.38C46.0804 271.187 45.7781 271.187 45.4484 271.38C44.514 271.957 43.566 272.974 42.6041 274.43C41.6698 275.777 40.9004 277.041 40.2958 278.222L40.2958 278.305C39.4714 279.816 38.6195 281.836 37.7401 284.364C36.8608 286.92 35.9264 289.283 34.9371 291.454C33.9753 293.652 32.8074 295.521 31.4334 297.06Z" fill="#0B0C0D"/>
<path d="M50.6009 344.805C49.2544 345.107 47.743 345.08 46.0667 344.722C43.5934 344.118 41.9309 343.39 41.079 342.538C39.9248 341.301 39.0729 339.419 38.5233 336.89C37.8913 334.252 37.6714 331.436 37.8638 328.44C37.9462 326.709 38.1661 325.156 38.5233 323.782C38.5233 323.562 38.4684 323.425 38.3584 323.37C38.2485 322.876 38.0012 322.628 37.6165 322.628C35.0883 322.656 32.5051 322.862 29.867 323.246C27.2564 323.659 24.1099 324.263 20.4276 325.06C16.7727 325.885 14.2582 326.42 12.8842 326.668C10.5759 327.135 8.88586 327.423 7.81413 327.533C7.73169 327.533 7.59428 327.547 7.40192 327.575C7.23704 327.602 7.11338 327.616 7.03094 327.616L6.61873 327.533L6.37141 327.533C5.32716 327.396 4.31039 326.791 3.3211 325.72C2.30433 324.511 1.57611 322.518 1.13642 319.743C1.10895 319.578 0.944059 317.778 0.641775 314.343C0.641775 312.584 0.834142 310.949 1.21887 309.438C1.87839 307.212 2.9776 305.604 4.51649 304.615C5.0661 304.258 5.60197 304.01 6.12409 303.873C7.96527 303.323 9.28432 303.021 10.0813 302.966C11.2079 302.884 12.4583 302.939 13.8323 303.131C15.2338 303.323 16.2643 303.488 16.9238 303.626C17.6108 303.79 18.9024 304.148 20.7986 304.697C22.6947 305.247 23.7664 305.563 24.0137 305.645C28.8228 306.937 33.6593 307.954 38.5233 308.696C38.7706 308.751 39.018 308.709 39.2653 308.572C39.5401 308.462 39.6912 308.27 39.7187 307.995C39.7462 307.885 39.7737 307.706 39.8012 307.459C39.8286 307.239 39.8561 307.061 39.8836 306.923C40.3233 302.279 41.0515 298.926 42.0683 296.865C42.8927 294.969 44.1705 293.705 45.9018 293.073C47.3857 292.524 49.007 292.386 50.7658 292.661C53.6237 293.101 55.8222 294.901 57.361 298.061C58.79 300.864 59.7793 305.055 60.3289 310.633C61.0159 318.795 60.8373 325.637 59.793 331.161C58.1992 339.213 55.1351 343.76 50.6009 344.805Z" fill="#0B0C0D"/>
<path d="M35.0608 380.83C30.4441 381.352 26.7068 381.544 23.8489 381.407C18.9574 381.214 14.7391 380.198 11.1942 378.357C8.85837 377.12 6.89354 375.485 5.29968 373.451C3.73331 371.418 2.63409 369.123 2.00205 366.568C1.15016 363.435 0.91658 359.862 1.3013 355.85C1.65855 352.333 2.62035 349.255 4.18673 346.617C6.93476 342 11.5789 338.51 18.1192 336.147C23.1481 334.333 29.7296 332.932 37.8638 331.942C44.1293 331.118 49.2544 331.09 53.239 331.86C56.674 332.519 58.9274 333.646 59.9991 335.24C60.9884 336.779 61.2907 338.579 60.906 340.64C60.4388 342.673 59.2847 344.473 57.4435 346.04C56.2069 347.166 54.2146 348.403 51.4665 349.75C48.8009 350.959 46.5476 351.866 44.7064 352.47C41.1614 353.569 36.4073 354.627 30.4441 355.644C29.7296 355.754 28.6716 355.905 27.2702 356.098C25.8961 356.317 24.8656 356.482 24.1786 356.592C23.9038 355.108 23.313 353.501 22.4061 351.769C22.1863 351.44 21.9252 351.275 21.623 351.275C21.3207 351.275 21.0734 351.426 20.881 351.728C20.6886 352.03 20.6886 352.36 20.881 352.717C21.7604 354.504 22.2687 356.194 22.4061 357.788C22.6535 359.766 22.571 361.731 22.1588 363.682C22.0764 364.067 22.1588 364.369 22.4061 364.589C22.6809 364.836 22.9832 364.919 23.313 364.836C23.6702 364.754 23.9038 364.506 24.0137 364.094C24.3985 362.748 24.5359 360.92 24.4259 358.612C25.7725 358.612 28.3007 358.557 32.0105 358.447C35.7478 358.337 38.6332 358.31 40.6668 358.365C44.7339 358.475 47.8254 358.694 49.9414 359.024C53.1566 359.436 55.6298 360.151 57.361 361.168C58.4603 361.772 59.216 362.418 59.6282 363.105C60.2602 364.067 60.6037 365.152 60.6587 366.361C60.7136 367.57 60.4938 368.67 59.9991 369.659C59.3671 371.006 58.0618 372.421 56.0832 373.905C54.1596 375.361 52.1673 376.46 50.1063 377.202C45.3796 378.934 40.3645 380.143 35.0608 380.83Z" fill="#0B0C0D"/>
<path d="M55.3412 425.753C52.3734 428.446 48.0452 429.395 42.3568 428.598C38.4546 428.103 34.5936 427.072 30.7739 425.506C23.1618 422.373 16.4017 417.441 10.4934 410.708C7.71794 407.575 5.46456 404.484 3.7333 401.433C2.00205 398.411 1.02649 395.223 0.806654 391.87C0.724215 390.249 0.916579 388.724 1.38374 387.295C1.85091 385.866 2.67531 384.835 3.85697 384.203C5.45082 383.351 7.97901 383.049 11.4415 383.296C16.0582 383.571 22.5848 384.945 31.0212 387.418C31.241 387.501 31.7082 387.652 32.4227 387.872C33.1647 388.119 33.7418 388.312 34.154 388.449C34.1814 388.449 34.2227 388.463 34.2776 388.49C34.3601 388.518 34.4288 388.531 34.4837 388.531C34.7585 388.641 34.9921 388.628 35.1845 388.49C35.4043 388.353 35.5417 388.16 35.5967 387.913C35.6516 387.748 35.6791 387.556 35.6791 387.336C35.6791 387.309 35.6654 387.267 35.6379 387.212C35.6104 387.157 35.5967 387.116 35.5967 387.089L35.5967 386.676C35.5967 386.649 35.5829 386.58 35.5555 386.47C35.528 386.388 35.5142 386.333 35.5142 386.305C35.5142 386.141 35.4593 385.715 35.3493 385.028C35.2669 384.341 35.2257 383.819 35.2257 383.461C35.1158 380.438 35.5417 377.951 36.5035 376C37.5203 373.829 39.4027 372.744 42.1507 372.744C44.3491 372.744 46.4376 373.472 48.4162 374.929C51.8512 377.512 54.7504 382.074 57.1137 388.614C59.0373 393.725 60.3014 399.29 60.906 405.308C61.8953 414.789 60.0404 421.604 55.3412 425.753ZM43.0988 406.668C38.0974 404.195 32.299 402.258 25.7038 400.856C25.3191 400.774 25.003 400.87 24.7557 401.145C24.5084 401.42 24.4122 401.722 24.4672 402.052C24.5496 402.409 24.7969 402.629 25.2091 402.711C31.1998 403.92 36.847 405.803 42.1507 408.358C42.508 408.523 42.8377 408.482 43.14 408.235C43.4423 408.015 43.5934 407.74 43.5934 407.41C43.5934 407.108 43.4285 406.861 43.0988 406.668Z" fill="#0B0C0D"/>
<path d="M25.7862 446.37L24.7969 446.37C21.3619 446.37 18.0368 446.123 14.8216 445.628C9.82018 444.776 6.01416 443.54 3.40353 441.918C1.94708 441.012 1.08146 439.94 0.806652 438.703C0.394447 437.192 0.765434 435.777 1.91961 434.457C3.26614 433.056 4.94243 431.957 6.94849 431.16C8.84463 430.363 11.2079 429.662 14.0384 429.058C17.0612 428.343 21.0321 427.931 25.9511 427.821C30.8426 427.821 34.6761 428.123 37.4516 428.728C38.8806 429.03 40.4469 429.566 42.1507 430.335C39.7599 431.764 38.3584 433.647 37.9462 435.983L37.9462 436.848C37.9462 438.057 38.2897 439.253 38.9767 440.434C39.6912 441.644 40.6393 442.702 41.8209 443.608C40.0347 444.57 37.6165 445.271 34.5662 445.711C32.5876 446.04 29.6609 446.26 25.7862 446.37ZM58.0206 443.856C55.8221 444.982 53.1016 445.367 49.8589 445.01C48.6773 444.845 47.1246 444.378 45.201 443.608C46.4376 442.729 47.372 441.644 48.004 440.352C48.6361 439.06 48.8559 437.686 48.6635 436.23C48.4987 433.977 47.6055 432.177 45.9842 430.83C47.6055 430.39 49.5704 430.308 51.8787 430.583C54.7092 430.94 57.0862 431.902 59.0099 433.468C60.961 435.035 61.9365 436.752 61.9365 438.621L61.9365 439.198C61.6892 441.094 60.3839 442.647 58.0206 443.856ZM44.3766 442.083C44.2942 442.166 44.143 442.262 43.9232 442.372C43.7308 442.482 43.5934 442.578 43.511 442.66C42.2194 441.781 41.2301 440.764 40.5431 439.61C39.8836 438.483 39.6363 437.329 39.8011 436.148C40.0485 434.251 41.3126 432.767 43.5934 431.696C43.6209 431.668 43.7033 431.613 43.8407 431.531C43.9782 431.476 44.0743 431.421 44.1293 431.366C45.1735 432.19 45.9567 433.138 46.4789 434.21C47.0834 435.667 47.1796 437.096 46.7674 438.497C46.3827 439.926 45.5857 441.121 44.3766 442.083Z" fill="#0B0C0D"/>
<path d="M29.1663 486.504C23.2031 487.328 17.8307 486.875 13.0491 485.144C9.3118 483.797 6.35766 481.764 4.18672 479.043C2.04326 476.323 0.971533 473.039 0.971533 469.191C0.971533 466.938 1.37 464.808 2.16693 462.802C2.96386 460.796 4.00811 459.038 5.29968 457.526C6.61873 456.042 8.1851 454.668 9.9988 453.404C11.84 452.14 13.7086 451.082 15.6048 450.23C17.5009 449.406 19.5207 448.691 21.6642 448.087C29.6609 445.833 37.0531 445.297 43.8407 446.479C51.3978 447.743 56.5229 450.505 59.216 454.764C60.4526 456.358 61.0709 458.543 61.0709 461.318C61.0709 465.028 59.8343 468.518 57.361 471.788C54.8878 475.086 51.8512 477.848 48.2513 480.074C43.085 483.206 36.7234 485.35 29.1663 486.504ZM38.8119 463.462C39.1416 463.297 39.3065 463.063 39.3065 462.761C39.3065 462.404 39.1554 462.115 38.8531 461.895C38.5508 461.703 38.221 461.689 37.8638 461.854C32.2303 464.382 26.748 466.127 21.4169 467.089C21.0046 467.172 20.7985 467.419 20.7985 467.831C20.7985 468.106 20.9085 468.353 21.1283 468.573C21.3482 468.793 21.6367 468.862 21.9939 468.779C27.1602 467.872 32.7662 466.1 38.8119 463.462Z" fill="#0B0C0D"/>
<path d="M5.14117 0.823362L58.0381 0.823364L58.0381 8.82904L35.3609 8.82904L35.3609 34.4505L58.0381 34.4505L58.0381 42.4562L5.14116 42.4562L5.14117 34.4505L28.7943 34.4505L28.7943 8.82904L5.14117 8.82903L5.14117 0.823362Z" fill="#0B0C0D"/>
<path d="M4.23103 66.7227C4.23103 62.1905 5.63698 58.6177 8.46543 56.0374C11.2939 53.4405 15.4952 52.1503 21.0859 52.1503L42.6219 52.1503L42.6219 60.156L21.913 60.156C14.6516 60.156 11.0292 63.1333 11.0292 69.0714C11.0292 72.0487 12.0878 74.4802 14.205 76.3989C16.3222 78.3176 19.3326 79.277 23.2693 79.277L42.6219 79.277L42.6219 87.2827L5.14076 87.2827L5.14076 80.1867L11.7239 79.5913C9.40825 78.4334 7.57224 76.7297 6.24898 74.4968C4.90919 72.2472 4.24757 69.6669 4.24757 66.7557L4.23103 66.7227Z" fill="#0B0C0D"/>
<path d="M4.23175 118.562C4.23175 115.634 4.81067 113.054 5.96851 110.821C7.12636 108.572 8.76388 106.802 10.8811 105.495L5.14148 104.668L5.14148 97.4893L59.5437 97.4893L59.5437 105.495L36.8003 105.495C38.5701 106.702 40.1249 108.373 41.4813 110.49C42.8376 112.607 43.5158 115.32 43.5158 118.645C43.5158 122.267 42.6557 125.476 40.952 128.238C39.2317 131.001 36.8995 133.184 33.9222 134.772C30.9449 136.36 27.5706 137.154 23.7993 137.154C20.0281 137.154 16.6538 136.36 13.7095 134.772C10.7653 133.184 8.44961 131.001 6.76246 128.238C5.07532 125.46 4.23175 122.251 4.23175 118.562ZM11.1788 117.206C11.1788 120.63 12.3532 123.458 14.702 125.675C17.0342 127.891 20.1108 128.999 23.882 128.999C26.3466 128.999 28.5465 128.503 30.4487 127.494C32.3674 126.485 33.856 125.096 34.9477 123.342C36.0394 121.572 36.5687 119.538 36.5687 117.222C36.5687 113.798 35.3778 110.986 33.0125 108.803C30.6471 106.603 27.6037 105.512 23.8655 105.512C20.1273 105.512 17.0177 106.603 14.6854 108.803C12.3367 110.986 11.1623 113.798 11.1623 117.222L11.1788 117.206Z" fill="#0B0C0D"/>
<path d="M4.23226 163.37C4.23226 159.698 5.04276 156.423 6.69682 153.578C8.33434 150.733 10.617 148.5 13.5281 146.896C16.4393 145.275 19.8466 144.481 23.7337 144.481C27.6207 144.481 31.1108 145.275 34.0881 146.863C37.0654 148.451 39.3811 150.667 41.0352 153.512C42.7058 156.357 43.5328 159.665 43.5328 163.453C43.5328 167.241 42.7058 170.334 41.0683 173.047C39.4307 175.759 37.2474 177.877 34.5347 179.398C31.822 180.904 28.8117 181.664 25.5366 181.664C25.0404 181.664 24.4945 181.664 23.9156 181.631C23.3367 181.598 22.6916 181.565 21.9969 181.516L21.9969 152.354C18.3745 152.603 15.6122 153.81 13.7266 155.944C11.841 158.077 10.8981 160.559 10.8981 163.387C10.8981 165.653 11.4109 167.555 12.4364 169.094C13.4619 170.632 14.8679 171.773 16.6377 172.534L16.6377 180.54C13.1146 179.531 10.1703 177.529 7.78849 174.535C5.42318 171.542 4.23226 167.82 4.23226 163.387L4.23226 163.37ZM36.9496 163.37C36.9496 160.707 36.1557 158.326 34.5678 156.275C32.9799 154.207 30.598 152.95 27.4222 152.503L27.4222 173.659C30.3499 173.51 32.6656 172.468 34.3693 170.566C36.073 168.647 36.9331 166.265 36.9331 163.387L36.9496 163.37Z" fill="#0B0C0D"/>
<path d="M5.14199 189.969L42.6231 189.969L42.6231 197.148L35.5272 197.826C37.9917 199.132 39.9435 200.952 41.3825 203.301C42.8216 205.633 43.5328 208.478 43.5328 211.803L35.1467 211.803L35.1467 209.619C35.1467 207.403 34.7828 205.418 34.055 203.681C33.3272 201.944 32.0867 200.555 30.3499 199.529C28.6132 198.504 26.1982 197.975 23.1382 197.975L5.15853 197.975L5.15853 189.969L5.14199 189.969Z" fill="#0B0C0D"/>
<path d="M35.8905 240.958L42.6226 240.958L42.6226 230.372L59.5436 230.372L59.5436 222.366L42.6226 222.366L42.6226 215.948L35.8905 215.948L35.8905 222.366L17.3816 222.366C12.7998 222.366 9.60745 223.458 7.82107 225.625C6.03467 227.791 5.14148 230.703 5.14148 234.391L5.14148 240.577L11.9397 240.577L11.9397 236.277C11.9397 234.11 12.3367 232.588 13.1141 231.712C13.8915 230.835 15.314 230.388 17.3816 230.388L35.8905 230.388L35.8905 240.974L35.8905 240.958Z" fill="#0B0C0D"/>
</svg>
