<svg width="1186" height="334" viewBox="0 0 1186 334" fill="none" xmlns="http://www.w3.org/2000/svg">
<path d="M1162.23 332.248V312.937H1185.43V332.248H1162.23Z" fill="#E6E6E6"/>
<path d="M1158.08 229.086V332.313H1135.79L1124.39 280.667V332.313H1102.09V229.086H1125.55L1136.05 278.464V229.086H1158.08Z" fill="#E6E6E6"/>
<path d="M1041.24 304.448V255.265C1041.24 246.668 1043.55 240.016 1048.17 235.307C1052.84 230.555 1059.84 228.114 1069.17 227.984C1078.76 228.114 1085.87 230.555 1090.49 235.307C1095.15 240.016 1097.49 246.668 1097.49 255.265V304.448C1097.49 308.639 1096.95 312.462 1095.87 315.918C1094.83 319.331 1093.23 322.376 1091.07 325.055C1088.91 327.733 1085.97 329.807 1082.26 331.276C1078.59 332.744 1074.35 333.414 1069.56 333.285C1064.5 333.414 1060.12 332.744 1056.4 331.276C1052.73 329.807 1049.82 327.733 1047.66 325.055C1045.5 322.376 1043.88 319.331 1042.8 315.918C1041.76 312.462 1041.24 308.639 1041.24 304.448ZM1069.36 313.067C1070.18 313.067 1070.9 312.916 1071.5 312.613C1072.15 312.268 1072.65 311.771 1072.99 311.123C1073.38 310.432 1073.68 309.784 1073.9 309.179C1074.12 308.574 1074.27 307.775 1074.35 306.781C1074.44 305.744 1074.48 304.967 1074.48 304.448C1074.53 303.887 1074.55 303.131 1074.55 302.18C1074.55 301.964 1074.55 301.792 1074.55 301.662V260.19C1074.55 259.931 1074.55 259.412 1074.55 258.635C1074.59 257.857 1074.59 257.274 1074.55 256.885C1074.55 256.496 1074.53 255.935 1074.48 255.2C1074.48 254.423 1074.42 253.84 1074.29 253.451C1074.2 253.019 1074.07 252.5 1073.9 251.896C1073.77 251.248 1073.58 250.772 1073.32 250.47C1073.06 250.124 1072.75 249.779 1072.41 249.433C1072.06 249.044 1071.63 248.785 1071.11 248.656C1070.59 248.483 1070.01 248.396 1069.36 248.396C1068.46 248.396 1067.66 248.548 1066.97 248.85C1066.32 249.152 1065.8 249.649 1065.41 250.34C1065.02 250.988 1064.7 251.593 1064.44 252.155C1064.18 252.673 1064.01 253.472 1063.92 254.552C1063.83 255.589 1063.79 256.345 1063.79 256.82C1063.79 257.252 1063.79 258.008 1063.79 259.088C1063.79 259.261 1063.79 259.412 1063.79 259.542C1063.79 259.672 1063.79 259.801 1063.79 259.931V301.403C1063.79 302.353 1063.79 303.109 1063.79 303.671C1063.83 304.232 1063.9 305.053 1063.98 306.133C1064.07 307.213 1064.22 308.099 1064.44 308.79C1064.7 309.438 1065.02 310.129 1065.41 310.864C1065.8 311.598 1066.32 312.16 1066.97 312.548C1067.66 312.894 1068.46 313.067 1069.36 313.067Z" fill="#E6E6E6"/>
<path d="M1014.6 332.313V229.086H1036.63V332.313H1014.6Z" fill="#E6E6E6"/>
<path d="M962.951 229.086H1012.85V248.98H999.304V332.313H976.494V248.98H962.951V229.086Z" fill="#E6E6E6"/>
<path d="M957.115 229.086L968.52 332.313H946.488L944.868 316.761H933.333L931.908 332.313H909.746L921.41 229.086H957.115ZM940.073 248.461H937.999L934.953 297.968H943.118L940.073 248.461Z" fill="#E6E6E6"/>
<path d="M908.185 229.086V332.313H885.893L874.489 280.667V332.313H852.197V229.086H875.655L886.153 278.464V229.086H908.185Z" fill="#E6E6E6"/>
<path d="M824.199 332.313V229.086H846.231V332.313H824.199Z" fill="#E6E6E6"/>
<path d="M810.392 332.312L806.504 323.564C802.443 330.174 796.179 333.479 787.712 333.479C771.253 333.479 763.023 322.83 763.023 301.532V256.82C763.023 251.939 763.671 247.684 764.967 244.055C766.263 240.426 767.84 237.64 769.698 235.696C771.599 233.708 773.91 232.132 776.631 230.965C779.353 229.799 781.815 229.064 784.019 228.762C786.265 228.416 788.684 228.244 791.276 228.244C794.473 228.244 797.367 228.481 799.959 228.956C802.551 229.388 804.776 230.08 806.634 231.03C808.535 231.98 810.198 233.06 811.623 234.27C813.049 235.436 814.215 236.905 815.123 238.676C816.073 240.404 816.829 242.132 817.391 243.86C817.995 245.545 818.449 247.597 818.751 250.016C819.054 252.392 819.248 254.617 819.335 256.691C819.464 258.764 819.529 261.205 819.529 264.013H797.756V255.848C797.756 254.207 797.583 252.846 797.238 251.766C796.892 250.686 796.395 249.93 795.747 249.498C795.143 249.023 794.581 248.72 794.063 248.591C793.544 248.418 792.961 248.332 792.313 248.332C791.017 248.332 789.959 248.504 789.138 248.85C788.36 249.196 787.734 249.628 787.259 250.146C786.827 250.664 786.503 251.615 786.287 252.997C786.071 254.336 785.941 255.611 785.898 256.82C785.855 258.03 785.833 259.931 785.833 262.523V302.44C785.833 303.952 785.876 305.226 785.963 306.263C786.092 307.3 786.351 308.423 786.74 309.632C787.129 310.842 787.756 311.771 788.62 312.419C789.527 313.024 790.671 313.326 792.054 313.326C794.343 313.326 795.856 312.44 796.59 310.669C797.368 308.855 797.756 305.939 797.756 301.921V289.998H791.665V272.178H819.27V332.312H810.392Z" fill="#E6E6E6"/>
<path d="M751.289 229.086L762.694 332.313H740.662L739.042 316.761H727.507L726.082 332.313H703.92L715.584 229.086H751.289ZM734.246 248.461H732.173L729.127 297.968H737.292L734.246 248.461Z" fill="#E6E6E6"/>
<path d="M668.404 332.313H647.927L635.356 257.857V332.313H613.453V229.086H648.186L657.776 282.935L667.302 229.086H702.359V332.313H680.197V257.857L668.404 332.313Z" fill="#E6E6E6"/>
<path d="M585.455 332.313V229.086H607.487V332.313H585.455Z" fill="#E6E6E6"/>
<path d="M542.222 332.313H520.709V298.357L502.5 229.086H525.115L531.466 264.078L537.816 229.086H560.366L542.222 298.357V332.313Z" fill="#2D2D2D"/>
<path d="M451.303 332.313V229.086H482.212C490.291 229.086 496.274 230.879 500.162 234.464C504.05 238.007 505.994 244.076 505.994 252.673C505.994 252.932 505.994 253.3 505.994 253.775C505.994 255.287 505.994 256.41 505.994 257.144C505.994 257.879 505.908 259.024 505.735 260.579C505.605 262.134 505.389 263.365 505.087 264.272C504.828 265.136 504.417 266.216 503.856 267.512C503.294 268.808 502.603 269.867 501.782 270.688C500.961 271.508 499.924 272.308 498.672 273.085C497.419 273.863 495.972 274.446 494.33 274.835C496.706 275.396 498.736 276.368 500.421 277.751C502.106 279.133 503.38 280.602 504.244 282.157C505.108 283.669 505.778 285.549 506.253 287.795C506.772 290.041 507.074 291.921 507.16 293.433C507.247 294.945 507.29 296.759 507.29 298.876C507.29 304.319 506.901 308.985 506.124 312.873C505.389 316.761 504.093 320.238 502.236 323.305C500.378 326.329 497.786 328.597 494.46 330.109C491.176 331.578 487.094 332.313 482.212 332.313H451.303ZM473.594 284.036V313.974C474.631 314.061 475.387 314.104 475.862 314.104C481.78 314.104 484.74 311.555 484.74 306.457C484.74 306.457 484.74 302.159 484.74 293.562C484.74 290.279 484.178 287.881 483.055 286.369C481.975 284.814 480.225 284.036 477.806 284.036H473.594ZM473.594 267.966H478.26C479.383 267.966 480.29 267.728 480.981 267.253C481.716 266.778 482.234 266.108 482.536 265.244C482.839 264.337 483.033 263.538 483.12 262.847C483.206 262.112 483.249 261.248 483.249 260.255V250.016C483.249 246.733 481.629 245.092 478.389 245.092H473.594V267.966Z" fill="#2D2D2D"/>
<path d="M364.721 332.313V229.086H396.149C404.659 229.086 410.858 231.268 414.746 235.631C418.678 239.951 420.665 245.891 420.708 253.451C420.708 253.451 420.794 269.521 420.967 301.662C420.967 311.987 418.937 319.677 414.876 324.731C410.858 329.785 404.357 332.313 395.371 332.313H364.721ZM387.66 247.36V313.456C387.79 313.413 388.049 313.391 388.438 313.391C388.697 313.391 389.172 313.413 389.863 313.456C390.598 313.499 391.181 313.52 391.613 313.52C395.976 313.52 398.158 311.685 398.158 308.012V257.08C398.158 253.321 397.553 250.751 396.343 249.368C395.177 247.943 393.125 247.23 390.187 247.23C389.712 247.23 388.87 247.273 387.66 247.36Z" fill="#2D2D2D"/>
<path d="M314.172 332.313V229.086H359.791V249.109H337.37V269.262H358.884V288.637H337.37V312.16H361.281V332.313H314.172Z" fill="#2D2D2D"/>
<path d="M277.877 285.333C277.877 285.333 277.877 300.993 277.877 332.313H254.809V229.086H289.801C293.386 229.086 296.453 229.583 299.002 230.576C301.551 231.527 303.56 232.801 305.029 234.4C306.497 235.955 307.642 238.05 308.463 240.685C309.327 243.277 309.889 245.891 310.148 248.526C310.407 251.118 310.537 254.272 310.537 257.987C310.537 259.931 310.493 261.529 310.407 262.782C310.364 263.992 310.126 265.547 309.694 267.448C309.305 269.305 308.744 270.86 308.009 272.113C307.275 273.366 306.152 274.597 304.64 275.807C303.171 277.017 301.378 277.945 299.261 278.593C301.378 278.982 303.128 279.716 304.51 280.796C305.893 281.833 306.886 283.129 307.491 284.684C308.096 286.24 308.506 287.687 308.722 289.026C308.938 290.322 309.046 291.791 309.046 293.433C309.046 310.497 308.96 323.457 308.787 332.313H286.496V292.072C286.496 290.473 286.323 289.199 285.977 288.248C285.675 287.298 285.07 286.629 284.163 286.24C283.299 285.808 282.457 285.548 281.636 285.462C280.815 285.376 279.562 285.333 277.877 285.333ZM278.007 248.202V267.448H283.709C286.733 267.448 288.245 264.294 288.245 257.987C288.245 253.796 287.641 251.118 286.431 249.952C285.265 248.785 282.867 248.202 279.238 248.202H278.007Z" fill="#2D2D2D"/>
<path d="M204.26 332.313V229.086H249.879V249.109H227.458V269.262H248.972V288.637H227.458V312.16H251.369V332.313H204.26Z" fill="#2D2D2D"/>
<path d="M140.622 294.21L147.037 229.086H168.291L174.383 294.21L180.474 229.086H203.024L190.583 332.313H163.237L157.535 282.546L152.091 332.313H124.292L112.045 229.086H134.336L140.622 294.21Z" fill="#2D2D2D"/>
<path d="M55.9219 304.448V255.265C55.9219 246.668 58.2331 240.016 62.8555 235.307C67.5211 230.555 74.5195 228.114 83.8507 227.984C93.4411 228.114 100.547 230.555 105.17 235.307C109.836 240.016 112.168 246.668 112.168 255.265V304.448C112.168 308.639 111.628 312.462 110.548 315.918C109.512 319.331 107.913 322.376 105.753 325.055C103.593 327.733 100.655 329.807 96.9403 331.276C93.2683 332.744 89.0347 333.414 84.2395 333.285C79.1851 333.414 74.8003 332.744 71.0851 331.276C67.4131 329.807 64.4971 327.733 62.3371 325.055C60.1771 322.376 58.5571 319.331 57.4771 315.918C56.4403 312.462 55.9219 308.639 55.9219 304.448ZM84.0451 313.067C84.8659 313.067 85.5787 312.916 86.1835 312.613C86.8315 312.268 87.3283 311.771 87.6739 311.123C88.0627 310.432 88.3651 309.784 88.5811 309.179C88.7971 308.574 88.9483 307.775 89.0347 306.781C89.1211 305.744 89.1643 304.967 89.1643 304.448C89.2075 303.887 89.2291 303.131 89.2291 302.18C89.2291 301.964 89.2291 301.792 89.2291 301.662V260.19C89.2291 259.931 89.2291 259.412 89.2291 258.635C89.2723 257.857 89.2723 257.274 89.2291 256.885C89.2291 256.496 89.2075 255.935 89.1643 255.2C89.1643 254.423 89.0995 253.84 88.9699 253.451C88.8835 253.019 88.7539 252.5 88.5811 251.896C88.4515 251.248 88.2571 250.772 87.9979 250.47C87.7387 250.124 87.4363 249.779 87.0907 249.433C86.7451 249.044 86.3131 248.785 85.7947 248.656C85.2763 248.483 84.6931 248.396 84.0451 248.396C83.1379 248.396 82.3387 248.548 81.6475 248.85C80.9995 249.152 80.4811 249.649 80.0923 250.34C79.7035 250.988 79.3795 251.593 79.1203 252.155C78.8611 252.673 78.6883 253.472 78.6019 254.552C78.5155 255.589 78.4723 256.345 78.4723 256.82C78.4723 257.252 78.4723 258.008 78.4723 259.088C78.4723 259.261 78.4723 259.412 78.4723 259.542C78.4723 259.672 78.4723 259.801 78.4723 259.931V301.403C78.4723 302.353 78.4723 303.109 78.4723 303.671C78.5155 304.232 78.5803 305.053 78.6667 306.133C78.7531 307.213 78.9043 308.099 79.1203 308.79C79.3795 309.438 79.7035 310.129 80.0923 310.864C80.4811 311.598 80.9995 312.16 81.6475 312.548C82.3387 312.894 83.1379 313.067 84.0451 313.067Z" fill="#2D2D2D"/>
<path d="M0.382812 332.313V229.086H30.5148C34.4892 229.086 37.9668 229.604 40.9476 230.641C43.9284 231.678 46.5636 233.363 48.8532 235.696C51.1428 238.028 52.8708 241.268 54.0372 245.416C55.2468 249.52 55.8516 254.509 55.8516 260.384C55.8516 265.439 55.4844 269.78 54.75 273.409C54.0588 276.995 52.8492 280.192 51.1212 283C49.3932 285.808 46.9308 287.924 43.734 289.35C40.5804 290.732 36.6924 291.424 32.07 291.424H22.8036V332.313H0.382812ZM22.8036 247.878V272.826H24.0996C25.3092 272.826 26.2164 272.804 26.8212 272.761C27.4692 272.675 28.2036 272.524 29.0244 272.308C29.8884 272.048 30.5148 271.66 30.9036 271.141C31.3356 270.58 31.7676 269.845 32.1996 268.938C32.6316 267.988 32.9124 266.778 33.042 265.309C33.2148 263.84 33.3012 262.069 33.3012 259.996C33.3012 255.46 32.6964 252.306 31.4868 250.535C30.3204 248.764 28.2684 247.878 25.3308 247.878H22.8036Z" fill="#2D2D2D"/>
<path d="M1093.47 218.248V198.937H1116.67V218.248H1093.47Z" fill="#E6E6E6"/>
<path d="M1044.74 218.313V115.086H1090.36V135.109H1067.94V155.262H1089.45V174.637H1067.94V198.16H1091.85V218.313H1044.74Z" fill="#E6E6E6"/>
<path d="M1008.45 171.332C1008.45 171.332 1008.45 186.992 1008.45 218.313H985.377V115.086H1020.37C1023.95 115.086 1027.02 115.583 1029.57 116.576C1032.12 117.527 1034.13 118.801 1035.6 120.4C1037.07 121.955 1038.21 124.05 1039.03 126.685C1039.9 129.277 1040.46 131.891 1040.72 134.526C1040.98 137.118 1041.11 140.272 1041.11 143.987C1041.11 145.931 1041.06 147.529 1040.98 148.782C1040.93 149.992 1040.69 151.547 1040.26 153.448C1039.87 155.305 1039.31 156.86 1038.58 158.113C1037.84 159.366 1036.72 160.597 1035.21 161.807C1033.74 163.016 1031.95 163.945 1029.83 164.593C1031.95 164.982 1033.7 165.716 1035.08 166.796C1036.46 167.833 1037.45 169.129 1038.06 170.684C1038.66 172.24 1039.07 173.687 1039.29 175.026C1039.51 176.322 1039.61 177.791 1039.61 179.432C1039.61 196.496 1039.53 209.457 1039.36 218.313H1017.06V178.072C1017.06 176.473 1016.89 175.199 1016.55 174.248C1016.24 173.298 1015.64 172.628 1014.73 172.24C1013.87 171.808 1013.03 171.548 1012.2 171.462C1011.38 171.376 1010.13 171.332 1008.45 171.332ZM1008.58 134.202V153.448H1014.28C1017.3 153.448 1018.81 150.294 1018.81 143.987C1018.81 139.796 1018.21 137.118 1017 135.952C1015.83 134.785 1013.44 134.202 1009.81 134.202H1008.58Z" fill="#E6E6E6"/>
<path d="M924.266 190.967V115.086H946.427V188.958C946.427 189.044 946.427 189.196 946.427 189.412C946.427 190.535 946.427 191.42 946.427 192.068C946.47 192.716 946.578 193.602 946.751 194.725C946.967 195.849 947.248 196.734 947.594 197.382C947.982 198.03 948.544 198.613 949.278 199.132C950.013 199.607 950.92 199.845 952 199.845C952.907 199.845 953.685 199.693 954.333 199.391C955.024 199.088 955.564 198.635 955.953 198.03C956.342 197.382 956.644 196.777 956.86 196.216C957.119 195.611 957.292 194.833 957.378 193.883C957.465 192.889 957.508 192.133 957.508 191.615C957.551 191.096 957.573 190.362 957.573 189.412C957.573 189.196 957.573 189.044 957.573 188.958V115.086H979.734V190.967C979.734 200.298 977.488 207.383 972.995 212.221C968.546 217.06 961.59 219.457 952.13 219.414C942.496 219.457 935.433 217.06 930.94 212.221C926.49 207.383 924.266 200.298 924.266 190.967Z" fill="#E6E6E6"/>
<path d="M872.939 115.086H922.835V134.98H909.292V218.313H886.483V134.98H872.939V115.086Z" fill="#E6E6E6"/>
<path d="M836.322 218.313V115.086H859.132V198.16H882.59V218.313H836.322Z" fill="#E6E6E6"/>
<path d="M775.211 190.967V115.086H797.373V188.958C797.373 189.044 797.373 189.196 797.373 189.412C797.373 190.535 797.373 191.42 797.373 192.068C797.416 192.716 797.524 193.602 797.697 194.725C797.913 195.849 798.193 196.734 798.539 197.382C798.928 198.03 799.489 198.613 800.224 199.132C800.958 199.607 801.865 199.845 802.945 199.845C803.853 199.845 804.63 199.693 805.278 199.391C805.969 199.088 806.509 198.635 806.898 198.03C807.287 197.382 807.589 196.777 807.805 196.216C808.065 195.611 808.237 194.833 808.324 193.883C808.41 192.889 808.453 192.133 808.453 191.615C808.497 191.096 808.518 190.362 808.518 189.412C808.518 189.196 808.518 189.044 808.518 188.958V115.086H830.68V190.967C830.68 200.298 828.433 207.383 823.941 212.221C819.491 217.06 812.536 219.457 803.075 219.414C793.441 219.457 786.378 217.06 781.885 212.221C777.436 207.383 775.211 200.298 775.211 190.967Z" fill="#E6E6E6"/>
<path d="M771.512 173.86V193.364C771.512 202.35 768.963 208.96 763.865 213.193C758.768 217.384 751.639 219.479 742.481 219.479C734.359 219.479 727.75 217.168 722.652 212.545C717.555 207.88 715.006 201.27 715.006 192.716V144.829C715.006 134.591 717.252 126.944 721.745 121.89C726.281 116.792 733.366 114.244 743 114.244C746.931 114.244 750.56 114.74 753.886 115.734C757.212 116.684 760.15 118.11 762.699 120.011C765.291 121.912 767.321 124.417 768.79 127.528C770.259 130.595 770.993 134.137 770.993 138.155V156.364H748.443V144.376C748.443 138.198 746.628 135.109 743 135.109C740.84 135.109 739.414 135.8 738.723 137.183C738.032 138.522 737.686 140.401 737.686 142.82V191.615C737.686 193.732 738.161 195.568 739.112 197.123C740.105 198.678 741.401 199.456 743 199.456C744.468 199.456 745.743 198.894 746.823 197.771C747.903 196.604 748.443 194.552 748.443 191.615V173.86H771.512Z" fill="#E6E6E6"/>
<path d="M654.342 171.332C654.342 171.332 654.342 186.992 654.342 218.313H631.273V115.086H666.266C669.851 115.086 672.918 115.583 675.467 116.576C678.016 117.527 680.025 118.801 681.493 120.4C682.962 121.955 684.107 124.05 684.928 126.685C685.792 129.277 686.353 131.891 686.613 134.526C686.872 137.118 687.001 140.272 687.001 143.987C687.001 145.931 686.958 147.529 686.872 148.782C686.829 149.992 686.591 151.547 686.159 153.448C685.77 155.305 685.209 156.86 684.474 158.113C683.74 159.366 682.617 160.597 681.105 161.807C679.636 163.016 677.843 163.945 675.726 164.593C677.843 164.982 679.593 165.716 680.975 166.796C682.357 167.833 683.351 169.129 683.956 170.684C684.561 172.24 684.971 173.687 685.187 175.026C685.403 176.322 685.511 177.791 685.511 179.432C685.511 196.496 685.425 209.457 685.252 218.313H662.961V178.072C662.961 176.473 662.788 175.199 662.442 174.248C662.14 173.298 661.535 172.628 660.628 172.24C659.764 171.808 658.922 171.548 658.101 171.462C657.28 171.376 656.027 171.332 654.342 171.332ZM654.472 134.202V153.448H660.174C663.198 153.448 664.71 150.294 664.71 143.987C664.71 139.796 664.105 137.118 662.896 135.952C661.729 134.785 659.332 134.202 655.703 134.202H654.472Z" fill="#2D2D2D"/>
<path d="M570.422 190.448V141.265C570.422 132.668 572.733 126.016 577.355 121.307C582.021 116.555 589.02 114.114 598.351 113.984C607.941 114.114 615.048 116.555 619.67 121.307C624.336 126.016 626.668 132.668 626.668 141.265V190.448C626.668 194.639 626.128 198.462 625.048 201.918C624.011 205.331 622.413 208.376 620.253 211.055C618.093 213.733 615.156 215.807 611.44 217.276C607.768 218.744 603.535 219.414 598.74 219.284C593.685 219.414 589.3 218.744 585.585 217.276C581.913 215.807 578.997 213.733 576.837 211.055C574.677 208.376 573.057 205.331 571.977 201.918C570.94 198.462 570.422 194.639 570.422 190.448ZM598.545 199.067C599.366 199.067 600.079 198.916 600.683 198.613C601.331 198.268 601.828 197.771 602.174 197.123C602.563 196.432 602.865 195.784 603.081 195.179C603.297 194.574 603.448 193.775 603.535 192.781C603.621 191.744 603.664 190.967 603.664 190.448C603.708 189.887 603.729 189.131 603.729 188.18C603.729 187.964 603.729 187.792 603.729 187.662V146.19C603.729 145.931 603.729 145.412 603.729 144.635C603.772 143.857 603.772 143.274 603.729 142.885C603.729 142.496 603.708 141.935 603.664 141.2C603.664 140.423 603.6 139.84 603.47 139.451C603.384 139.019 603.254 138.5 603.081 137.896C602.952 137.248 602.757 136.772 602.498 136.47C602.239 136.124 601.936 135.779 601.591 135.433C601.245 135.044 600.813 134.785 600.295 134.656C599.776 134.483 599.193 134.396 598.545 134.396C597.638 134.396 596.839 134.548 596.148 134.85C595.5 135.152 594.981 135.649 594.592 136.34C594.203 136.988 593.88 137.593 593.62 138.155C593.361 138.673 593.188 139.472 593.102 140.552C593.015 141.589 592.972 142.345 592.972 142.82C592.972 143.252 592.972 144.008 592.972 145.088C592.972 145.261 592.972 145.412 592.972 145.542C592.972 145.672 592.972 145.801 592.972 145.931V187.403C592.972 188.353 592.972 189.109 592.972 189.671C593.015 190.232 593.08 191.053 593.167 192.133C593.253 193.213 593.404 194.099 593.62 194.79C593.88 195.438 594.203 196.129 594.592 196.864C594.981 197.598 595.5 198.16 596.148 198.548C596.839 198.894 597.638 199.067 598.545 199.067Z" fill="#2D2D2D"/>
<path d="M523.695 218.313V115.086H569.315V135.239H546.635V151.568H568.148V171.462H546.635V218.313H523.695Z" fill="#2D2D2D"/>
<path d="M437.113 218.313V115.086H468.541C477.052 115.086 483.251 117.268 487.139 121.631C491.07 125.951 493.057 131.891 493.1 139.451C493.1 139.451 493.187 155.521 493.36 187.662C493.36 197.987 491.329 205.676 487.268 210.731C483.251 215.785 476.749 218.313 467.764 218.313H437.113ZM460.052 133.36V199.456C460.182 199.412 460.441 199.391 460.83 199.391C461.089 199.391 461.565 199.412 462.256 199.456C462.99 199.499 463.573 199.521 464.005 199.521C468.368 199.521 470.55 197.684 470.55 194.012V143.08C470.55 139.321 469.945 136.751 468.736 135.368C467.569 133.943 465.517 133.23 462.58 133.23C462.104 133.23 461.262 133.273 460.052 133.36Z" fill="#2D2D2D"/>
<path d="M386.562 218.313V115.086H432.182V135.109H409.761V155.262H431.275V174.637H409.761V198.16H433.672V218.313H386.562Z" fill="#2D2D2D"/>
<path d="M380.597 115.086V218.313H358.305L346.901 166.667V218.313H324.609V115.086H348.067L358.565 164.464V115.086H380.597Z" fill="#2D2D2D"/>
<path d="M310.802 218.312L306.914 209.564C302.854 216.174 296.59 219.479 288.122 219.479C271.663 219.479 263.434 208.83 263.434 187.532V142.82C263.434 137.939 264.082 133.684 265.378 130.055C266.674 126.426 268.25 123.64 270.108 121.696C272.009 119.708 274.32 118.132 277.042 116.965C279.763 115.799 282.226 115.064 284.429 114.762C286.675 114.416 289.094 114.244 291.686 114.244C294.883 114.244 297.778 114.481 300.37 114.956C302.962 115.388 305.186 116.08 307.044 117.03C308.945 117.98 310.608 119.06 312.034 120.27C313.459 121.436 314.626 122.905 315.533 124.676C316.483 126.404 317.239 128.132 317.801 129.86C318.406 131.545 318.859 133.597 319.162 136.016C319.464 138.392 319.658 140.617 319.745 142.691C319.874 144.764 319.939 147.205 319.939 150.013H298.166V141.848C298.166 140.207 297.994 138.846 297.648 137.766C297.302 136.686 296.806 135.93 296.158 135.498C295.553 135.023 294.991 134.72 294.473 134.591C293.954 134.418 293.371 134.332 292.723 134.332C291.427 134.332 290.369 134.504 289.548 134.85C288.77 135.196 288.144 135.628 287.669 136.146C287.237 136.664 286.913 137.615 286.697 138.997C286.481 140.336 286.351 141.611 286.308 142.82C286.265 144.03 286.243 145.931 286.243 148.523V188.44C286.243 189.952 286.286 191.226 286.373 192.263C286.502 193.3 286.762 194.423 287.15 195.632C287.539 196.842 288.166 197.771 289.03 198.419C289.937 199.024 291.082 199.326 292.464 199.326C294.754 199.326 296.266 198.44 297 196.669C297.778 194.855 298.166 191.939 298.166 187.921V175.998H292.075V158.178H319.68V218.312H310.802Z" fill="#2D2D2D"/>
<path d="M236.859 218.313V115.086H258.891V218.313H236.859Z" fill="#2D2D2D"/>
<path d="M207.37 219.479C196.786 219.479 189.226 217.06 184.69 212.221C180.198 207.383 177.951 199.909 177.951 189.8V179.692H200.502V188.958C200.502 195.611 202.316 198.937 205.945 198.937C207.63 198.937 208.947 198.289 209.898 196.993C210.891 195.697 211.388 193.991 211.388 191.874C211.388 189.109 210.999 186.776 210.222 184.876C209.487 182.975 208.342 181.182 206.787 179.497C205.275 177.769 202.77 175.393 199.27 172.369L189.615 164.01C181.839 157.314 177.951 149.754 177.951 141.33C177.951 132.172 180.284 125.368 184.95 120.918C189.658 116.425 196.117 114.179 204.325 114.179C204.541 114.179 204.735 114.179 204.908 114.179C205.081 114.179 206.226 114.179 208.342 114.179C210.459 114.179 213.181 114.676 216.507 115.669C219.834 116.62 222.793 118.24 225.385 120.529C227.977 122.776 229.921 125.929 231.217 129.99C232.513 134.008 233.161 138.932 233.161 144.764H210.027L209.898 138.544C209.854 137.377 209.358 136.34 208.407 135.433C207.457 134.526 206.398 134.072 205.232 134.072C203.72 134.072 202.424 134.548 201.344 135.498C200.307 136.405 199.789 137.593 199.789 139.062C199.789 142 201.927 145.196 206.204 148.652L220.006 159.798C222.253 161.612 224.197 163.47 225.838 165.371C227.523 167.228 228.841 169.086 229.791 170.944C230.785 172.758 231.584 174.421 232.189 175.933C232.794 177.402 233.204 179.022 233.42 180.793C233.679 182.521 233.83 183.839 233.874 184.746C233.917 185.61 233.938 186.755 233.938 188.18C233.938 191.809 233.701 195.114 233.226 198.095C232.75 201.032 231.908 203.884 230.698 206.648C229.489 209.37 227.89 211.66 225.903 213.517C223.959 215.332 221.41 216.779 218.257 217.859C215.146 218.939 211.518 219.479 207.37 219.479Z" fill="#2D2D2D"/>
<path d="M129.93 218.313V115.086H175.549V135.109H153.128V155.262H174.642V174.637H153.128V198.16H177.039V218.313H129.93Z" fill="#2D2D2D"/>
<path d="M69.1406 218.313V115.086H100.569C109.079 115.086 115.278 117.268 119.166 121.631C123.097 125.951 125.085 131.891 125.128 139.451C125.128 139.451 125.214 155.521 125.387 187.662C125.387 197.987 123.357 205.676 119.296 210.731C115.278 215.785 108.777 218.313 99.791 218.313H69.1406ZM92.0798 133.36V199.456C92.2094 199.412 92.4686 199.391 92.8574 199.391C93.1166 199.391 93.5918 199.412 94.283 199.456C95.0174 199.499 95.6006 199.521 96.0326 199.521C100.396 199.521 102.577 197.684 102.577 194.012V143.08C102.577 139.321 101.973 136.751 100.763 135.368C99.5966 133.943 97.5446 133.23 94.607 133.23C94.1318 133.23 93.2894 133.273 92.0798 133.36Z" fill="#2D2D2D"/>
<path d="M966.777 104.248V84.9373H989.976V104.248H966.777Z" fill="#E6E6E6"/>
<path d="M939.103 105.479C928.519 105.479 920.959 103.06 916.423 98.2213C911.93 93.3829 909.684 85.9093 909.684 75.8005V65.6917H932.234V74.9581C932.234 81.6109 934.048 84.9373 937.677 84.9373C939.362 84.9373 940.68 84.2893 941.63 82.9933C942.624 81.6973 943.12 79.9909 943.12 77.8741C943.12 75.1093 942.732 72.7765 941.954 70.8757C941.22 68.9749 940.075 67.1821 938.52 65.4973C937.008 63.7693 934.502 61.3933 931.003 58.3693L921.348 50.0101C913.572 43.3141 909.684 35.7541 909.684 27.3301C909.684 18.1717 912.016 11.3677 916.682 6.91805C921.391 2.42525 927.849 0.178848 936.057 0.178848C936.273 0.178848 936.468 0.178848 936.64 0.178848C936.813 0.178848 937.958 0.178848 940.075 0.178848C942.192 0.178848 944.913 0.675649 948.24 1.66925C951.566 2.61965 954.525 4.23965 957.117 6.52925C959.709 8.77565 961.653 11.9293 962.949 15.9901C964.245 20.0077 964.893 24.9325 964.893 30.7645H941.76L941.63 24.5437C941.587 23.3773 941.09 22.3405 940.14 21.4333C939.189 20.5261 938.131 20.0725 936.964 20.0725C935.452 20.0725 934.156 20.5477 933.076 21.4981C932.04 22.4053 931.521 23.5933 931.521 25.0621C931.521 27.9997 933.66 31.1965 937.936 34.6525L951.739 45.7981C953.985 47.6125 955.929 49.4701 957.571 51.3709C959.256 53.2285 960.573 55.0861 961.524 56.9437C962.517 58.7581 963.316 60.4213 963.921 61.9333C964.526 63.4021 964.936 65.0221 965.152 66.7933C965.412 68.5213 965.563 69.8389 965.606 70.7461C965.649 71.6101 965.671 72.7549 965.671 74.1805C965.671 77.8093 965.433 81.1141 964.958 84.0949C964.483 87.0325 963.64 89.8837 962.431 92.6485C961.221 95.3701 959.623 97.6597 957.636 99.5173C955.692 101.332 953.143 102.779 949.989 103.859C946.879 104.939 943.25 105.479 939.103 105.479Z" fill="#E6E6E6"/>
<path d="M875.917 57.3325C875.917 57.3325 875.917 72.9925 875.917 104.312H852.848V1.08604H887.84C891.425 1.08604 894.493 1.58284 897.041 2.57644C899.59 3.52684 901.599 4.80125 903.068 6.39965C904.536 7.95485 905.681 10.05 906.502 12.6852C907.366 15.2773 907.928 17.8909 908.187 20.5261C908.446 23.1181 908.576 26.2717 908.576 29.9869C908.576 31.9309 908.533 33.5293 908.446 34.7821C908.403 35.9917 908.165 37.5469 907.733 39.4477C907.345 41.3053 906.783 42.8605 906.049 44.1133C905.314 45.3661 904.191 46.5973 902.679 47.8069C901.21 49.0165 899.417 49.9453 897.301 50.5933C899.417 50.9821 901.167 51.7165 902.549 52.7965C903.932 53.8333 904.925 55.1293 905.53 56.6845C906.135 58.2397 906.545 59.6869 906.761 61.0261C906.977 62.3221 907.085 63.7909 907.085 65.4325C907.085 82.4965 906.999 95.4565 906.826 104.312H884.535V64.0717C884.535 62.4733 884.362 61.1989 884.016 60.2485C883.714 59.2981 883.109 58.6285 882.202 58.2397C881.338 57.8077 880.496 57.5485 879.675 57.4621C878.854 57.3757 877.601 57.3325 875.917 57.3325ZM876.046 20.2021V39.4477H881.748C884.772 39.4477 886.284 36.2941 886.284 29.9869C886.284 25.7965 885.68 23.1181 884.47 21.9517C883.304 20.7853 880.906 20.2021 877.277 20.2021H876.046Z" fill="#E6E6E6"/>
<path d="M802.299 104.312V1.08604H847.918V21.1093H825.497V41.2621H847.011V60.6373H825.497V84.1597H849.409V104.312H802.299Z" fill="#E6E6E6"/>
<path d="M762.378 104.312H741.901L729.33 29.8573V104.312H707.428V1.08604H742.161L751.751 54.9349L761.277 1.08604H796.333V104.312H774.172V29.8573L762.378 104.312Z" fill="#E6E6E6"/>
<path d="M694.267 1.08604L705.672 104.312H683.64L682.02 88.7605H670.486L669.06 104.312H646.898L658.562 1.08604H694.267ZM677.225 20.4613H675.151L672.106 69.9685H680.27L677.225 20.4613Z" fill="#E6E6E6"/>
<path d="M637.498 104.312L633.61 95.5645C629.549 102.174 623.285 105.479 614.818 105.479C598.359 105.479 590.129 94.8301 590.129 73.5325V28.8205C590.129 23.9389 590.777 19.6837 592.073 16.0549C593.369 12.4261 594.946 9.63966 596.803 7.69566C598.704 5.70846 601.015 4.13165 603.737 2.96525C606.459 1.79885 608.921 1.06445 611.124 0.762053C613.371 0.416452 615.79 0.243652 618.382 0.243652C621.579 0.243652 624.473 0.481253 627.065 0.956453C629.657 1.38845 631.882 2.07965 633.739 3.03005C635.64 3.98045 637.303 5.06045 638.729 6.27005C640.155 7.43646 641.321 8.90526 642.228 10.6765C643.179 12.4045 643.935 14.1325 644.496 15.8605C645.101 17.5453 645.555 19.5973 645.857 22.0165C646.159 24.3925 646.354 26.6173 646.44 28.6909C646.57 30.7645 646.635 33.2053 646.635 36.0133H624.862V27.8485C624.862 26.2069 624.689 24.8461 624.343 23.7661C623.998 22.6861 623.501 21.9301 622.853 21.4981C622.248 21.0229 621.687 20.7205 621.168 20.5909C620.65 20.4181 620.067 20.3317 619.419 20.3317C618.123 20.3317 617.064 20.5045 616.243 20.8501C615.466 21.1957 614.839 21.6277 614.364 22.1461C613.932 22.6645 613.608 23.6149 613.392 24.9973C613.176 26.3365 613.047 27.6109 613.003 28.8205C612.96 30.0301 612.939 31.9309 612.939 34.5229V74.4397C612.939 75.9517 612.982 77.2261 613.068 78.2629C613.198 79.2997 613.457 80.4229 613.846 81.6325C614.235 82.8421 614.861 83.7709 615.725 84.4189C616.632 85.0237 617.777 85.3261 619.159 85.3261C621.449 85.3261 622.961 84.4405 623.695 82.6693C624.473 80.8549 624.862 77.9389 624.862 73.9213V61.9981H618.771V44.1781H646.375V104.312H637.498Z" fill="#E6E6E6"/>
<path d="M548.322 104.312H526.808V70.3573L508.6 1.08604H531.215L537.565 36.0781L543.916 1.08604H566.466L548.322 70.3573V104.312Z" fill="#2D2D2D"/>
<path d="M457.402 104.312V1.08604H488.312C496.39 1.08604 502.374 2.87885 506.262 6.46445C510.15 10.0068 512.094 16.0765 512.094 24.6733C512.094 24.9325 512.094 25.2997 512.094 25.7749C512.094 27.2869 512.094 28.4101 512.094 29.1445C512.094 29.8789 512.007 31.0237 511.834 32.5789C511.705 34.1341 511.489 35.3653 511.186 36.2725C510.927 37.1365 510.517 38.2165 509.955 39.5125C509.394 40.8085 508.702 41.8669 507.882 42.6877C507.061 43.5085 506.024 44.3077 504.771 45.0853C503.518 45.8629 502.071 46.4461 500.43 46.8349C502.806 47.3965 504.836 48.3685 506.521 49.7509C508.206 51.1333 509.48 52.6021 510.344 54.1573C511.208 55.6693 511.878 57.5485 512.353 59.7949C512.871 62.0413 513.174 63.9205 513.26 65.4325C513.346 66.9445 513.39 68.7589 513.39 70.8757C513.39 76.3189 513.001 80.9845 512.223 84.8725C511.489 88.7605 510.193 92.2381 508.335 95.3053C506.478 98.3293 503.886 100.597 500.559 102.109C497.276 103.578 493.194 104.312 488.312 104.312H457.402ZM479.694 56.0365V85.9741C480.73 86.0605 481.486 86.1037 481.962 86.1037C487.88 86.1037 490.839 83.5549 490.839 78.4573C490.839 78.4573 490.839 74.1589 490.839 65.5621C490.839 62.2789 490.278 59.8813 489.154 58.3693C488.074 56.8141 486.325 56.0365 483.906 56.0365H479.694ZM479.694 39.9661H484.359C485.482 39.9661 486.39 39.7285 487.081 39.2533C487.815 38.7781 488.334 38.1085 488.636 37.2445C488.938 36.3373 489.133 35.5381 489.219 34.8469C489.306 34.1125 489.349 33.2485 489.349 32.2549V22.0165C489.349 18.7333 487.729 17.0917 484.489 17.0917H479.694V39.9661Z" fill="#2D2D2D"/>
<path d="M379.957 1.08604H429.853V20.9797H416.31V104.312H393.5V20.9797H379.957V1.08604Z" fill="#2D2D2D"/>
<path d="M343.34 104.312V1.08604H366.149V84.1597H389.607V104.312H343.34Z" fill="#2D2D2D"/>
<path d="M315.34 104.312V1.08604H337.372V104.312H315.34Z" fill="#2D2D2D"/>
<path d="M254.229 76.9669V1.08604H276.39V74.9581C276.39 75.0445 276.39 75.1957 276.39 75.4117C276.39 76.5349 276.39 77.4205 276.39 78.0685C276.433 78.7165 276.541 79.6021 276.714 80.7253C276.93 81.8485 277.211 82.7341 277.557 83.3821C277.945 84.0301 278.507 84.6133 279.241 85.1317C279.976 85.6069 280.883 85.8445 281.963 85.8445C282.87 85.8445 283.648 85.6933 284.296 85.3909C284.987 85.0885 285.527 84.6349 285.916 84.0301C286.305 83.3821 286.607 82.7773 286.823 82.2157C287.082 81.6109 287.255 80.8333 287.341 79.8829C287.428 78.8893 287.471 78.1333 287.471 77.6149C287.514 77.0965 287.536 76.3621 287.536 75.4117C287.536 75.1957 287.536 75.0445 287.536 74.9581V1.08604H309.697V76.9669C309.697 86.2981 307.451 93.3829 302.958 98.2213C298.509 103.06 291.553 105.457 282.093 105.414C272.459 105.457 265.396 103.06 260.903 98.2213C256.453 93.3829 254.229 86.2981 254.229 76.9669Z" fill="#2D2D2D"/>
<path d="M195.838 104.312V1.08604H226.747C234.826 1.08604 240.809 2.87885 244.697 6.46445C248.585 10.0068 250.529 16.0765 250.529 24.6733C250.529 24.9325 250.529 25.2997 250.529 25.7749C250.529 27.2869 250.529 28.4101 250.529 29.1445C250.529 29.8789 250.443 31.0237 250.27 32.5789C250.14 34.1341 249.924 35.3653 249.622 36.2725C249.363 37.1365 248.952 38.2165 248.391 39.5125C247.829 40.8085 247.138 41.8669 246.317 42.6877C245.496 43.5085 244.46 44.3077 243.207 45.0853C241.954 45.8629 240.507 46.4461 238.865 46.8349C241.241 47.3965 243.272 48.3685 244.956 49.7509C246.641 51.1333 247.916 52.6021 248.78 54.1573C249.644 55.6693 250.313 57.5485 250.788 59.7949C251.307 62.0413 251.609 63.9205 251.696 65.4325C251.782 66.9445 251.825 68.7589 251.825 70.8757C251.825 76.3189 251.436 80.9845 250.659 84.8725C249.924 88.7605 248.628 92.2381 246.771 95.3053C244.913 98.3293 242.321 100.597 238.995 102.109C235.712 103.578 231.629 104.312 226.747 104.312H195.838ZM218.129 56.0365V85.9741C219.166 86.0605 219.922 86.1037 220.397 86.1037C226.315 86.1037 229.275 83.5549 229.275 78.4573C229.275 78.4573 229.275 74.1589 229.275 65.5621C229.275 62.2789 228.713 59.8813 227.59 58.3693C226.51 56.8141 224.76 56.0365 222.341 56.0365H218.129ZM218.129 39.9661H222.795C223.918 39.9661 224.825 39.7285 225.516 39.2533C226.251 38.7781 226.769 38.1085 227.072 37.2445C227.374 36.3373 227.568 35.5381 227.655 34.8469C227.741 34.1125 227.784 33.2485 227.784 32.2549V22.0165C227.784 18.7333 226.164 17.0917 222.924 17.0917H218.129V39.9661Z" fill="#2D2D2D"/>
</svg>
