<svg width="54" height="56" viewBox="0 0 54 56" fill="none" xmlns="http://www.w3.org/2000/svg">
<path d="M24.4796 22.133C24.7972 21.8903 25.3 21.7536 25.707 21.6996C25.8342 21.6824 25.8507 21.864 25.9418 21.8592C26.1195 21.8497 26.2243 21.7079 26.4061 21.7108C26.4668 21.7125 26.5203 21.9872 26.5812 21.9834C26.914 21.9608 27.1525 21.7738 27.4644 21.6935C28.9992 21.2995 30.4449 20.7599 31.97 20.2618C32.4746 20.0964 33.1614 20.0867 33.6349 19.7909C33.6904 19.756 33.5697 19.5469 33.5742 19.5242C33.6475 19.1745 33.7583 19.6473 33.8972 19.6634C34.452 19.7246 34.976 19.561 35.4038 19.3217C35.5877 19.2188 35.2422 18.8342 35.5239 19.0214C35.5431 19.034 35.5721 19.2909 35.634 19.299C35.773 19.3174 35.992 19.2005 36.093 19.1905C36.2868 19.1727 36.3169 19.1609 36.4928 19.112C36.7319 19.0481 37.0514 19.0898 37.2984 18.9673C37.3512 18.9403 37.2122 18.7079 37.2916 18.6422C37.3703 18.5763 37.6178 18.5391 37.7138 18.5801C37.8092 18.621 37.8196 18.8279 37.8443 18.8702C38.0435 19.2289 38.2086 18.6357 38.244 18.6154C38.6595 18.3755 39.0957 18.3952 39.5293 18.4265C39.7522 18.4417 39.9678 18.4608 40.1935 18.4526C40.704 18.4322 41.2806 18.3578 41.797 18.4566C42.4104 18.5762 42.8887 18.8617 43.4542 19.0904C43.5149 19.1158 43.5713 18.8057 43.6484 18.8378C44.4675 19.1781 45.1869 19.78 45.5854 20.5258C45.6247 20.6 45.3569 20.7037 45.3827 20.787C45.56 21.3046 45.4886 22.1357 46.6206 21.7553C46.7072 21.9518 46.7998 22.1732 46.8255 22.3997C46.8391 22.5147 46.8362 22.6312 46.8079 22.7466C46.7533 22.9697 46.4177 22.9553 46.6232 23.0841C46.6691 23.1135 46.8698 22.9436 46.9218 22.9975C47.1421 23.2285 47.2041 23.5626 47.4427 23.7911C47.4916 23.8371 47.6967 23.734 47.7416 23.7346C48.11 23.7498 47.687 24.1867 47.6669 24.2486C47.5283 24.7325 47.7284 24.9655 47.8272 25.3285C47.8496 25.4128 48.1166 25.228 48.149 25.3073C48.3128 25.7204 48.3922 26.1763 48.3378 26.6201C48.3248 26.7187 48.0512 26.6823 48.0317 26.7313C47.9473 26.9426 48.4425 26.902 48.3676 27.1071C48.3523 27.1501 48.1271 27.1631 48.104 27.1741C47.7393 27.3438 48.2948 27.3558 48.3112 27.3845C48.5271 27.7287 47.9852 28.0267 48.0988 28.3579C48.113 28.3982 48.3868 28.278 48.4092 28.3936C48.5372 29.0483 48.5221 29.735 48.4 30.3661C48.3798 30.5013 48.3519 30.6327 48.3168 30.7621C48.2801 30.895 48.0682 30.7957 48.0418 30.8044C47.6291 30.9236 48.1741 31.0243 48.1922 31.0721C48.3197 31.4354 47.8175 31.6614 48.4122 32.0199C47.9054 33.4202 47.3584 34.9097 45.9832 35.4764C45.9666 35.4836 45.7938 35.2727 45.7619 35.2875C45.3757 35.4578 45.7279 35.6999 45.8691 36.2701C45.9011 36.4163 45.3324 36.0867 45.2913 36.0612C45.1328 35.9755 44.9227 35.6248 44.8853 35.614C44.8339 35.5995 44.8182 35.6172 44.8259 35.6577C44.8628 35.8501 45.4316 36.5636 45.2684 36.6951C45.261 36.6982 45.1332 36.4861 45.1018 36.4799C45.0041 36.4599 45.0146 36.5758 44.9132 36.5474C44.6787 36.4813 44.2544 35.9908 44.3097 36.4178C44.3164 36.4731 44.7975 37.0601 44.5944 37.1609C44.514 37.2012 44.1977 37.4318 44.0786 37.449C43.9605 37.4672 43.8913 37.2216 43.8788 37.2171C43.464 37.0998 43.4843 36.9279 43.1165 36.5949C42.754 36.2595 43.3754 37.2083 43.3907 37.347C43.4054 37.4859 43.0897 37.3629 43.001 37.3069C42.9114 37.2517 42.8884 37.0863 42.8241 37.0629C42.4034 36.9081 42.9879 37.6167 42.9885 37.8226C42.9825 38.3126 42.4213 37.6577 42.2003 37.6773C42.1394 37.6831 42.2673 37.8331 42.2296 37.8721C42.077 38.0247 41.8559 37.8404 41.7492 38.1555C41.7331 38.2063 41.7677 38.7465 41.5049 38.4567C41.4676 38.4146 41.4272 38.2035 41.3298 38.1951C41.1841 38.1823 40.9554 38.2295 40.8549 38.3459C40.7805 38.4321 41.0187 38.7081 40.8587 38.6571C40.7878 38.634 40.8103 38.4073 40.6843 38.379C40.5592 38.3507 40.3112 38.4558 40.2175 38.4978C40.1241 38.5401 40.2674 38.7662 40.2658 38.7856C40.2538 38.8981 40.1081 39.0852 40.091 39.0907C39.2521 39.4228 38.3466 39.2278 37.5572 39.5765C37.4947 39.6035 37.6048 39.8607 37.596 39.8676C37.3982 40.0356 37.3996 39.2791 37.1875 39.0778C37.3417 39.617 37.2261 39.5409 37.083 39.6375C37.0141 39.6845 37.1045 39.8863 37.1026 39.9095C37.0634 40.257 36.8883 39.86 36.8494 39.7795C36.7046 39.4838 36.7057 39.8712 36.6088 39.6732C36.5131 39.4765 36.561 39.1437 36.4132 39.1799C36.4133 39.3851 36.6364 39.8733 36.539 39.9812C36.1664 40.3924 35.2674 40.1428 34.9106 40.158C34.5545 40.1748 34.4446 40.229 34.23 40.189C33.8429 40.1154 34.0344 40.4796 33.829 40.6896C33.6223 40.899 33.6012 39.9351 33.5394 39.7361C33.4788 39.537 33.4735 39.7515 33.4182 39.645C33.3627 39.5386 33.4297 39.3881 33.3304 39.359C33.2313 39.33 33.0251 39.7265 33.0193 39.9441C33.0074 40.4052 33.1868 40.8646 32.9122 40.7302C32.8964 40.7221 32.9119 40.4665 32.8531 40.4483C32.39 40.3115 31.9363 40.3512 31.4797 40.2271C31.4175 40.2095 31.4415 39.9255 31.4052 39.9121C31.0255 39.7715 31.2019 40.2277 31.0545 40.7696C31.0289 40.0708 30.8806 39.6568 30.6033 39.6794C30.4376 39.6926 30.4951 39.9932 30.4087 40.2171C30.383 40.2846 30.2469 40.0871 30.2381 40.2318C30.2107 40.7049 30.3691 41.2172 30.0643 41.0353C30.051 41.0265 30.0674 40.7675 30.023 40.7559C29.7388 40.6795 29.741 41.1713 29.4494 41.2567C29.2131 41.3242 28.7682 41.0631 28.499 41.0385C28.4343 40.2565 28.1933 40.4586 28.1444 41.0065C28.1352 41.0062 28.1261 41.006 28.117 41.006C28.113 41.0067 28.101 41.0069 28.0971 41.0075C27.9295 41.0019 27.7558 41.0369 27.5918 40.9771C27.5322 40.9556 27.5547 40.7264 27.5458 40.7024C27.4071 40.3259 27.3678 40.8563 27.332 40.8795C26.9404 41.1084 26.5788 40.7362 26.2229 41.1569C26.2102 41.172 26.2336 41.7169 26.0974 41.3291C26.0883 41.3023 26.1949 41.0444 26.0117 41.0407C25.8278 41.037 25.4573 40.7767 25.228 41.0521C25.1725 41.1183 25.0602 41.5735 24.9032 41.2416C24.8821 41.1965 24.8849 41.0392 24.8526 40.955C24.7482 40.6867 24.7604 41.2391 24.6227 40.7826C24.4849 40.3262 24.2573 39.997 24.034 40.3456C24.0267 40.3558 24.0129 40.7964 23.9318 40.7982C23.8017 40.8009 23.6101 40.7307 23.4759 40.7489C23.4118 40.7577 23.4837 41.0224 23.4731 41.0286C23.061 41.2288 22.7265 41.0257 22.2517 40.9806C22.1642 40.9718 21.9701 41.3698 21.7682 41.102C21.5461 40.8092 21.5537 39.4645 21.1777 39.8363C21.0247 39.9855 21.0527 41.6867 20.6284 40.8645C20.0798 41.1639 19.4735 40.8052 18.9412 41.2066C18.9172 41.2244 18.9117 41.703 18.8497 41.7068C18.7573 41.7117 18.6711 41.5028 18.6037 41.4995C18.3203 41.4801 18.1038 41.7088 17.8372 41.7262C17.736 41.7333 17.7309 41.5029 17.61 41.5115C17.4891 41.5204 17.4633 41.8298 17.2771 41.7165C17.1364 41.6299 16.9036 41.0494 16.7285 41.0093C16.8329 41.6049 16.7199 41.6132 16.5532 41.8071C16.5213 41.8447 16.6008 42.0438 16.5877 42.0722C16.5355 42.1925 16.4359 42.0339 16.3893 42.163C16.3779 42.1941 16.4159 42.3971 16.4088 42.4339C16.3503 42.7547 16.0716 42.3355 16.023 42.2626C15.8534 42.0083 15.8331 42.2197 15.7381 42.1786L15.7669 42.1707C15.7582 42.1682 15.7487 42.1639 15.7379 42.1573C15.6053 42.0767 15.6925 41.8842 15.5578 41.8551C15.2749 41.7966 14.9918 41.9537 14.7643 42.0521C14.6735 42.0926 14.854 42.3119 14.8437 42.3235C14.6961 42.4716 14.378 42.3069 14.5389 42.8433C13.746 41.6579 14.498 43.0201 14.1174 42.9076C14.0872 42.8983 13.7301 42.3288 13.7597 42.1991C13.7898 42.0692 14.0093 42.1875 14.0465 41.9934C14.0537 41.9484 13.9157 41.3102 13.9222 41.2643C13.961 40.9097 14.4336 41.7964 14.4655 41.8419C14.8235 42.3277 14.7153 41.6301 14.7521 41.5625C14.9019 41.2595 15.1658 41.3049 15.3233 41.0849C15.3382 41.0647 15.3469 41.035 15.3514 40.9988C15.3812 40.9912 15.4675 40.9617 15.4981 40.9586C15.5462 40.7462 15.4753 40.2683 15.5666 40.2681C15.9206 40.267 16.2095 41.1451 16.3822 40.3036C16.4195 40.1241 16.2191 39.4308 16.5702 39.9398C16.5925 39.9719 16.8695 40.4461 16.9164 40.1053C16.9222 40.0623 16.8842 39.8565 16.8986 39.836C16.9962 39.7025 17.1048 39.8523 17.2193 39.7506C17.3336 39.649 17.4683 39.5041 17.6277 39.5483C17.7239 39.5745 17.9043 39.939 17.9628 40.0258C18.1287 40.2763 18.1807 39.8099 18.3107 40.1258C18.4408 40.4433 18.3811 40.9689 18.6107 41.1495C18.5277 40.612 18.4517 40.0587 18.373 39.5174C18.8077 39.4639 19.2598 39.5691 19.689 39.4787C19.7423 39.4669 19.6428 39.1864 19.6988 39.1664C19.9357 39.083 20.1796 39.2572 20.4201 39.1383C20.6068 39.045 20.7779 38.708 20.9735 38.6021C21.1846 39.2009 21.4593 38.9502 21.6886 38.9776C21.7689 38.9868 21.7851 39.1524 21.847 39.199C22.0798 39.371 21.9125 38.8382 21.9586 38.745C22.1584 38.3472 22.3338 39.5796 22.6165 39.5139C22.6311 39.5108 22.7377 38.8297 22.759 38.7855C22.8912 38.4985 22.8134 39.0116 22.9216 39.0482C23.1185 39.1152 23.2659 39.2577 23.4628 39.0401C23.5197 38.9757 23.6288 38.5476 23.7877 38.8522C23.8085 38.8921 23.823 39.1111 23.8375 39.1225C24.097 39.3099 24.0312 38.6241 24.144 38.3778C24.2567 38.1314 24.5167 38.5835 24.5727 38.7157C24.7193 39.0576 24.502 38.8751 24.4992 38.9104C24.4693 39.3296 24.6155 39.2433 24.735 39.2668C24.8177 39.9375 24.9755 39.8815 24.8591 39.2884C24.846 39.2237 24.7614 39.2952 24.735 39.2668C24.7722 38.597 24.9477 38.4948 25.2027 39.0933C25.3221 39.374 25.2656 39.7188 25.5348 39.5703C25.6569 39.5033 25.5667 39.0442 25.6688 38.9079C25.9032 38.5969 26.2755 39.0017 26.5357 38.9129C26.6307 38.8807 26.5166 38.6341 26.581 38.6033C26.752 38.5208 26.9205 38.6999 27.0907 38.5896C27.106 38.5793 27.0479 38.3162 27.1026 38.3089C27.3866 38.2674 27.6519 38.3232 27.9313 38.3557L27.8706 38.3604C27.9969 38.3718 28.1278 38.378 28.2667 38.367C28.4723 38.3507 28.8312 38.1717 29.0459 38.1825C29.4186 38.1996 29.9019 38.5457 30.2063 38.4225C30.4019 38.3435 30.3328 38.0822 30.402 37.8931C30.5374 37.5265 30.8881 38.1254 30.9395 38.2183C30.941 38.2214 30.7739 38.3013 30.8801 38.4282C30.9626 38.7066 30.9378 38.2197 30.9395 38.2183C30.9729 38.2785 31.3239 38.303 31.3868 38.2447C31.4211 38.213 31.3733 37.9641 31.3916 37.9523C31.8273 37.6781 32.2711 37.5613 32.7448 37.6185C32.7536 37.6225 32.7781 37.9043 32.7982 37.9102C33.0811 37.9997 33.2061 37.6332 33.3921 37.399C33.5798 37.1645 33.7572 37.2067 33.9608 37.6658C34.115 37.5799 34.3832 37.7532 34.5405 37.8582C34.6981 37.9633 34.6225 37.4179 34.6323 37.4052C34.9365 36.9981 35.2015 37.2688 35.5874 37.241C35.7717 37.2287 36.1065 37.0753 36.2834 36.9728C36.4227 36.8913 36.5423 36.9956 36.6609 36.8822C36.6769 36.867 36.6005 36.6335 36.604 36.623C36.6862 36.3014 36.7557 36.9006 36.813 36.9967C37.0214 37.3457 37.1466 37.5281 37.2997 37.2992C37.3361 37.2464 37.2455 36.3785 37.3109 36.3083C37.3978 36.2182 37.4409 36.5269 37.5302 36.4242C37.5379 36.4157 37.4845 36.2327 37.5535 36.2219C37.8732 36.1692 38.2414 36.1725 38.5507 36.0492C38.593 36.0331 38.4426 35.7646 38.5013 35.7368C38.7769 35.6066 39.0864 35.5064 39.4088 35.5322C39.4886 35.5394 39.5242 35.7528 39.5618 35.8056C39.793 36.1235 39.7155 35.5585 39.7307 35.5408C40.1151 35.0948 40.6903 35.3804 41.0552 34.9216C41.077 34.8947 40.982 34.2735 41.3114 34.6708C41.3325 34.6977 41.6752 35.1016 41.5728 34.7502C41.566 34.7284 41.3812 34.5263 41.4838 34.4982C41.5879 34.469 41.6334 34.2332 41.9084 34.4073C41.9936 34.4631 42.3697 34.8388 42.2557 34.4181C42.2516 34.3866 41.887 33.5049 42.3122 33.9936C42.3821 34.074 42.7671 34.6386 42.6953 34.2592C42.68 34.1864 42.5466 34.0953 42.5543 33.972C42.5633 33.784 42.802 33.8323 42.7252 33.5045C42.7126 33.4458 42.4982 33.0237 42.7852 33.2419C42.821 33.2687 42.908 33.3937 42.9678 33.4402C42.9834 33.4527 42.9971 33.4597 43.0073 33.4581C43.242 33.4204 43.2906 33.1692 43.5388 33.1425C43.6273 33.1316 43.865 33.4155 43.9904 33.4277C44.1155 33.4404 44.296 33.3834 44.2211 33.2119C44.1444 33.0427 43.6463 32.7226 43.6772 32.6129C43.7969 32.1501 44.2796 32.0177 44.4697 31.6779C44.4962 31.6298 44.2849 31.5957 44.3065 31.5247C44.3948 31.2423 44.2521 30.862 44.6813 30.6014C44.7075 30.5853 44.7332 30.5712 44.7584 30.559C45.0632 30.2864 45.3274 30.6861 45.4469 30.3948C45.5086 30.2433 44.8191 30.1217 44.7958 30.0887C44.5604 29.7631 44.8497 29.5222 44.7375 29.2435C44.7141 29.1862 44.4423 29.2629 44.4255 29.2147C44.3657 29.0517 44.4745 28.8688 44.4374 28.7172C44.4201 28.649 44.2111 28.6823 44.2211 28.6187C44.2423 28.466 44.3158 28.3272 44.4939 28.1592C44.5101 28.1434 44.7823 28.1999 44.7777 28.0876C44.7696 27.9082 44.929 27.6538 44.6946 27.4879C44.624 27.438 44.1496 27.5254 44.4535 27.3396C44.5169 27.3011 45.0925 27.2204 44.5717 27.1731C44.4846 27.1603 43.7752 27.0758 44.1714 26.8649C44.2758 26.8089 44.7163 26.6137 44.6259 26.5626C44.612 26.5565 44.3706 26.6584 44.3315 26.6092C44.1982 26.4355 44.1653 26.2261 44.0242 26.0578C43.9861 26.0134 43.7565 26.1734 43.7083 26.1062C43.576 25.9239 43.5468 25.6528 43.5414 25.4234C43.54 25.3391 43.7657 25.3022 43.7859 25.2878C44.1107 25.0457 43.5995 25.2031 43.5595 25.1894C43.3131 25.0919 43.4759 24.8544 43.3361 24.724C43.2982 24.6881 43.0884 24.8343 43.0638 24.8359C42.8225 24.8489 43.2608 24.7065 43.2755 24.6261C43.2938 24.5314 43.283 24.4455 43.2549 24.3667C43.217 24.26 43.1496 24.1721 43.0832 24.0974C43.0407 24.0506 42.8246 24.2609 42.7903 24.2188C42.5831 23.9749 42.4536 23.7496 42.4234 23.4731C42.4177 23.4203 42.6033 23.2886 42.6354 23.247C42.8539 22.9496 42.4272 23.219 42.384 23.243C42.1718 23.3359 42.2858 23.17 42.2038 23.1494C41.8223 23.0712 41.6038 22.8247 41.2276 22.6639C40.8589 22.5062 40.4367 22.3424 39.927 22.362C39.7994 22.3671 39.6588 22.3851 39.5157 22.4185C39.4702 22.4288 39.5623 22.719 39.5245 22.7316C39.0398 22.8814 38.4832 22.8907 37.9486 23.1304C37.9046 23.1497 38.0475 23.4057 37.98 23.4457C37.8464 23.5284 37.6496 23.5705 37.4732 23.5297C37.3859 23.5107 37.4139 23.2459 37.3268 23.2319C37.1214 23.1995 36.9257 23.2411 36.7544 23.3464C36.6821 23.3917 36.8923 23.6289 36.7926 23.6658C36.1162 23.9234 35.4535 24.224 34.6035 24.1544C34.5456 24.1494 34.2836 23.6156 34.2208 23.7632C34.2741 23.9191 34.3465 24.0986 34.4085 24.2632C33.4182 24.7623 32.3176 25.0143 31.2644 25.4507C31.2202 25.4691 31.424 25.722 31.3392 25.759C30.8466 25.9747 30.4085 26.2698 29.7747 26.2179C29.712 26.2131 29.5066 25.6994 29.394 25.8433C29.3743 25.8692 29.1828 26.0389 29.176 26.1742C29.1759 26.1942 29.3247 26.4095 29.2564 26.4494C28.8569 26.6777 28.3972 26.8274 27.9139 26.8799C27.8356 26.8879 27.7907 26.6057 27.7339 26.6093C27.3326 26.6363 27.0515 26.9993 26.62 26.9268C26.3307 26.8774 26.2091 26.41 25.8942 26.0417C25.8497 25.9898 25.7103 26.0439 25.5874 25.8012C25.2782 25.1911 25.0246 24.4831 24.6872 23.8364C24.6147 23.6971 24.5059 23.9352 24.4513 23.5416C24.448 23.5151 24.5255 23.3395 24.5029 23.2078C24.4875 23.1167 24.3292 22.8857 24.3266 22.761C24.324 22.6365 24.4732 22.8224 24.4923 22.6655C24.5108 22.5071 24.3432 22.2383 24.4796 22.133ZM35.2546 38.3214C35.4307 38.557 35.2676 37.6032 35.1759 37.856C35.1717 37.8694 35.2457 38.3098 35.2546 38.3214ZM19.3718 40.2913C19.6112 40.6854 19.6328 40.047 19.4592 39.7406C19.2847 39.4347 19.2986 40.1719 19.3718 40.2913ZM17.6348 40.8994C17.8939 41.1953 17.6889 39.8384 17.5198 40.1499C17.5099 40.1675 17.6196 40.8823 17.6348 40.8994ZM26.3746 25.6685C26.3674 25.6577 26.2651 25.692 26.2682 25.7046C26.3474 26.0069 26.5519 25.9382 26.3746 25.6685ZM15.9339 41.5607C16.0315 41.7308 16.1702 41.4859 16.0492 41.2742C15.9515 41.1039 15.8122 41.3492 15.9339 41.5607ZM41.9822 37.2584C41.9905 37.2704 42.0646 37.2473 42.0261 37.1754C41.902 36.9441 41.8425 37.0573 41.9822 37.2584ZM13.0955 42.9082C13.5119 42.7192 14.3127 43.5648 13.8357 43.6975C13.7487 43.7222 13.8134 43.2906 13.6656 43.2594C13.3938 43.2041 13.6431 43.8845 13.267 43.6656C13.1985 43.6254 13.0704 42.9169 13.0954 42.9065C13.0955 42.9071 13.0955 42.9077 13.0955 42.9082ZM35.5438 39.4494C35.5488 39.4615 35.6559 39.4534 35.6561 39.4404C35.6543 39.128 35.4402 39.1439 35.5438 39.4494ZM46.0005 35.0733C46.0252 35.0881 46.2186 34.9087 46.2044 34.8851C45.9086 34.4616 45.5392 34.7991 46.0005 35.0733ZM28.4928 41.018C28.4029 41.3363 28.2703 41.3849 28.1449 41.0069C28.2587 41.017 28.3739 41.0096 28.4928 41.018Z" fill="#BADF01"/>
<path d="M24.1543 22.3431C24.0328 21.9743 24.0722 21.4656 24.1568 21.0755C24.1828 20.9525 24.3595 20.9954 24.3852 20.9099C24.4351 20.7428 24.3363 20.603 24.3992 20.4385C24.4209 20.3839 24.6977 20.4206 24.7142 20.364C24.8023 20.0479 24.704 19.7715 24.7296 19.4629C24.8546 17.9304 24.7934 16.4484 24.7278 14.9321C24.7053 14.4268 24.8716 13.7996 24.6928 13.2999C24.6718 13.2423 24.4407 13.3107 24.4196 13.3022C24.097 13.1681 24.5818 13.1596 24.6289 13.0362C24.8129 12.5367 24.7581 12.0261 24.5962 11.6007C24.5266 11.4202 24.0896 11.6829 24.3214 11.4537C24.337 11.4378 24.5946 11.4438 24.6129 11.3886C24.6543 11.2654 24.572 11.05 24.5763 10.9574C24.5857 10.7774 24.579 10.7539 24.5523 10.5879C24.5179 10.3614 24.5932 10.0788 24.4898 9.85023C24.4671 9.80254 24.2256 9.91884 24.1665 9.84801C24.1081 9.77891 24.0863 9.56153 24.1312 9.47828C24.1763 9.39489 24.3822 9.38306 24.4253 9.36085C24.7899 9.17585 24.2018 9.04492 24.1817 9.01786C23.8304 8.50465 24.0129 7.95797 23.8582 7.45228C23.741 7.07224 23.5064 6.71905 23.3831 6.40461C23.262 6.09235 23.2172 5.80077 23.0886 5.59543C23.0856 5.58541 23.0781 5.57567 23.0641 5.56738C23.056 5.56259 22.8483 5.78619 22.844 5.78676C22.8222 5.7869 22.4609 5.57998 21.9768 5.32764C21.9277 5.301 22.0254 5.04239 21.9759 4.99972C21.6832 4.73919 21.0453 4.20645 20.8712 5.38281C20.6318 5.34435 20.3348 5.31716 20.0893 5.10383C19.9299 4.96682 20.0431 4.66255 19.8748 4.80448C19.8363 4.83636 19.9159 5.08504 19.8573 5.11359C19.6455 5.21753 19.3996 5.19625 19.1846 5.29877C19.1658 5.31239 19.1482 5.32913 19.1323 5.34973C19.1079 5.38221 19.1607 5.60543 19.1618 5.64721C19.1871 5.98144 18.9605 5.47407 18.9093 5.44975C18.6143 5.23832 18.4881 5.44018 18.3045 5.5676C18.2604 5.5984 18.4945 5.80716 18.4622 5.84336C18.2959 6.02616 18.0827 6.2043 17.7847 6.35612C17.7175 6.39015 17.5527 6.17672 17.5094 6.18565C17.3184 6.23188 17.6928 6.55798 17.5245 6.60878C17.489 6.62089 17.3159 6.47719 17.2925 6.46753C16.9222 6.32124 17.3282 6.69945 17.3267 6.72349C17.3063 7.05244 16.7172 6.9223 16.6367 7.23052C16.6281 7.26711 16.9153 7.3346 16.8766 7.42802C16.6243 8.04646 16.254 8.67131 15.7738 9.23145C15.6995 9.31876 15.5327 9.16489 15.5058 9.16101C15.0828 9.10838 15.5637 9.38634 15.5695 9.42677C15.601 9.74342 15.0743 9.82055 15.6144 10.2391C15.4865 10.4431 15.3812 10.6569 15.2869 10.8764C14.9314 11.7001 14.8821 12.5434 14.333 13.3939C14.3249 13.4078 14.0573 13.3576 14.0423 13.3858C13.8623 13.7286 14.2888 13.6965 14.7929 13.938C14.9197 13.9955 14.2938 14.1496 14.2482 14.1671C14.0793 14.2219 13.6771 14.156 13.6442 14.175C13.387 14.3405 14.7199 14.3212 14.7226 14.5223C14.7205 14.5289 14.4746 14.5052 14.4505 14.5231C14.3747 14.5793 14.4734 14.6314 14.3905 14.6875C14.199 14.8147 13.553 14.8935 13.9407 15.0708C13.9912 15.0922 14.7431 15.0123 14.7202 15.198C14.7096 15.2727 14.7522 15.5977 14.7148 15.6953C14.6765 15.7928 14.4273 15.7573 14.4175 15.7648C14.1273 16.057 13.9836 15.9771 13.5277 16.1721C13.075 16.3721 14.1932 16.1791 14.3258 16.2132C14.4578 16.2469 14.2233 16.4734 14.1401 16.5359C14.0564 16.5975 13.894 16.5636 13.8492 16.6141C13.559 16.9519 14.4246 16.642 14.6171 16.7002C15.0728 16.8302 14.2778 17.1465 14.2384 17.3623C14.2277 17.4198 14.4061 17.3375 14.4334 17.3805C14.5393 17.5497 14.3083 17.7196 14.5918 17.8749C14.6382 17.9013 15.1693 17.948 14.8364 18.1455C14.7884 18.174 14.574 18.1806 14.5482 18.2707C14.5092 18.4049 14.5206 18.63 14.6225 18.7378C14.6977 18.8173 15.002 18.6206 14.9302 18.765C14.8982 18.8294 14.6769 18.7864 14.6333 18.9037C14.5895 19.0208 14.6686 19.2679 14.703 19.3608C14.7373 19.4535 14.9737 19.3285 14.9929 19.3312C15.1033 19.3493 15.2772 19.4926 15.2817 19.5085C15.5499 20.2966 15.3728 21.1725 15.7687 21.9138C15.7993 21.972 16.0484 21.8452 16.0558 21.8532C16.2348 22.0285 15.4824 22.09 15.297 22.3138C15.8228 22.1185 15.7548 22.2373 15.8618 22.3673C15.9138 22.4298 16.1074 22.3235 16.1307 22.3232C16.4788 22.328 16.0981 22.5341 16.0214 22.58C15.7396 22.7494 16.1246 22.71 15.9363 22.8239C15.7495 22.937 15.4141 22.9234 15.4639 23.0649C15.6678 23.0436 16.1326 22.7766 16.2486 22.8597C16.4306 22.99 16.5119 23.2213 16.5481 23.4727C16.6008 23.8315 16.558 24.2244 16.5897 24.4281C16.6441 24.7776 16.7083 24.8764 16.6909 25.0924C16.6571 25.4805 16.9995 25.2528 17.229 25.4327C17.4581 25.6142 16.5017 25.7356 16.3101 25.8172C16.1181 25.8973 16.332 25.8805 16.2316 25.946C16.1312 26.0111 15.9751 25.9618 15.9558 26.0614C15.9365 26.1606 16.3505 26.3203 16.5676 26.3048C17.0273 26.2698 17.4672 26.0479 17.3599 26.3309C17.3533 26.3471 17.0976 26.3578 17.0851 26.417C16.9933 26.8856 17.0745 27.3284 16.99 27.7866C16.9779 27.8494 16.693 27.8514 16.6828 27.8884C16.5752 28.2736 17.0141 28.0581 17.5663 28.1566C16.8721 28.2414 16.4731 28.4267 16.5168 28.6923C16.5427 28.8523 16.8378 28.7714 17.0677 28.8387C17.1371 28.8591 16.9507 29.009 17.0954 29.0053C17.5689 28.9945 18.0677 28.7972 17.9092 29.1134C17.9015 29.1273 17.6419 29.1305 17.6337 29.1756C17.5789 29.4659 18.0679 29.4197 18.1738 29.7094C18.2568 29.9365 18.0237 30.397 18.0132 30.668C17.2358 30.7741 17.4489 30.9962 17.9987 31.0233C18.0006 31.1981 18.0561 31.38 18.004 31.5557C17.9864 31.6162 17.7562 31.6085 17.7328 31.619C17.3657 31.7796 17.8972 31.7851 17.9225 31.8196C18.1737 32.1959 17.8186 32.5718 18.2523 32.9073C18.2679 32.9191 18.8116 32.8755 18.429 33.0258C18.4025 33.0357 18.1411 32.9393 18.1438 33.1213C18.1466 33.3042 17.8969 33.6776 18.1771 33.8972C18.2446 33.9504 18.7021 34.0518 18.3732 34.2146C18.3285 34.2364 18.1712 34.2368 18.0876 34.2705C17.8212 34.3788 18.3733 34.3564 17.919 34.5006C17.4648 34.6448 17.1387 34.8722 17.4891 35.086C17.4994 35.0929 17.94 35.1007 17.9425 35.1808C17.9463 35.3087 17.8773 35.498 17.8961 35.6299C17.9052 35.6928 18.1695 35.6199 18.1758 35.6302C18.3518 35.9829 18.2208 36.2794 18.154 36.6585C18.1407 36.7238 18.1276 36.7811 18.1167 36.8406C18.1009 36.9246 18.4804 37.1533 18.1936 37.3266C17.8794 37.5158 16.5445 37.3765 16.8719 37.7648C17.0024 37.9182 18.6952 38.1033 17.8223 38.4097C18.0422 38.9853 17.5855 39.5033 17.8671 40.0864C17.8796 40.1124 18.346 40.219 18.3361 40.281C18.3206 40.3721 18.0976 40.409 18.079 40.4727C17.9953 40.7389 18.1631 41.0023 18.1077 41.2627C18.0871 41.361 17.8641 41.3035 17.8389 41.4189C17.8136 41.534 18.1024 41.6486 17.9382 41.7905C17.8129 41.8984 17.1897 41.931 17.0961 42.0698C17.6927 42.1674 17.6647 42.2728 17.7883 42.4929C17.8122 42.5357 18.0265 42.5321 18.0485 42.5544C18.1423 42.6469 17.9583 42.6823 18.061 42.7737C18.0856 42.7959 18.2881 42.8361 18.3196 42.8568C18.3516 42.8774 18.3731 42.8972 18.3861 42.916C18.385 42.9263 18.3759 42.9558 18.3741 42.966C18.4595 43.1236 18.0572 43.1683 17.9806 43.1742C17.6495 43.2056 17.8886 43.3405 17.7447 43.3971C17.6009 43.4541 17.4986 43.2711 17.3952 43.3589C17.1805 43.5413 17.13 43.856 17.0718 44.0963C17.0495 44.1936 17.3333 44.181 17.3364 44.1963C17.3668 44.3973 17.0466 44.5594 17.5776 44.7362C16.1525 44.6971 17.6975 44.8689 17.3916 45.1069C17.3671 45.126 16.6951 45.1055 16.6044 45.0058C16.5139 44.9067 16.7363 44.7894 16.5996 44.6461C16.5666 44.6146 15.9687 44.3478 15.9358 44.3137C15.6741 44.061 16.6691 44.208 16.7242 44.2103C17.3273 44.2131 16.7057 43.8814 16.675 43.8091C16.526 43.5047 16.7249 43.3258 16.638 43.0856C16.5825 42.9286 15.9592 42.7209 16.0078 42.6318C16.0809 42.4987 16.3056 42.4734 16.4646 42.429L16.4405 42.5295C16.6257 42.4567 16.7181 42.361 16.3182 42.1366C16.161 42.0474 15.4429 41.9943 16.0335 41.8712C16.0706 41.8654 16.606 41.7757 16.2945 41.6368C16.2553 41.6195 16.0477 41.5925 16.0323 41.5749C15.9327 41.4585 16.1067 41.41 16.0402 41.2878C15.9737 41.1657 15.8691 41.0194 15.9516 40.8962C16.001 40.823 16.3982 40.7534 16.4965 40.7221C16.7796 40.6333 16.3381 40.4833 16.6749 40.4378C17.0135 40.3896 17.5119 40.5631 17.7397 40.3876C17.1973 40.3471 16.6411 40.2975 16.0958 40.2541C16.1381 39.8689 16.3275 39.4857 16.3095 39.0854C16.3067 39.0358 16.0137 39.0821 16.0031 39.0293C15.9595 38.8076 16.1685 38.6129 16.0839 38.3804C16.0172 38.2008 15.7047 38.0088 15.6224 37.8243C16.2421 37.6959 16.0229 37.4182 16.0716 37.2125C16.0885 37.1399 16.2547 37.1383 16.3068 37.0847C16.4989 36.8821 15.9533 36.997 15.8646 36.9483C15.7437 36.8819 15.7875 36.829 15.9019 36.7784L15.9168 36.9461C16.1511 36.8127 16.7084 36.6703 16.6636 36.4817C16.6605 36.4671 15.9795 36.3673 15.9354 36.347C15.6483 36.2203 16.1613 36.2923 16.1977 36.1866C16.2643 35.9937 16.4064 35.8489 16.1879 35.6594C16.1233 35.6045 15.6949 35.5046 15.9983 35.3465C16.038 35.3257 16.2568 35.3086 16.268 35.2944C16.4534 35.0395 15.7684 35.1143 15.5211 35.0101C15.2739 34.9063 15.7225 34.6482 15.8538 34.5909C16.1934 34.4419 16.0141 34.6557 16.0493 34.6576C16.4688 34.6778 16.3805 34.5381 16.4021 34.4218C17.0712 34.3265 17.0123 34.1737 16.4217 34.3012C16.3572 34.3154 16.4301 34.3956 16.4021 34.4218C15.7321 34.4006 15.6274 34.2375 16.22 33.9744C16.4978 33.8511 16.844 33.8954 16.6887 33.6388C16.6185 33.5225 16.1623 33.6253 16.0233 33.5322C15.7064 33.3195 16.0982 32.9472 15.9985 32.7018C15.9624 32.6128 15.7209 32.7341 15.6875 32.6745C15.598 32.5168 15.7689 32.3462 15.6502 32.1919C15.6392 32.178 15.3796 32.249 15.3695 32.1979C15.2878 31.8104 15.4112 31.4486 15.3578 31.0416C15.332 30.8453 15.1348 30.5182 15.1326 30.3124C15.1282 29.9573 15.4397 29.4639 15.2947 29.1826C15.2013 28.9989 14.9462 29.0884 14.7527 29.0383C14.3782 28.9433 14.9464 28.5502 15.0349 28.4932C15.0379 28.4913 15.1307 28.6452 15.2487 28.5316C15.5192 28.4272 15.0364 28.4947 15.0349 28.4932C15.0925 28.4566 15.0878 28.1145 15.0245 28.0592C14.9901 28.0291 14.7463 28.0985 14.7331 28.082C14.4238 27.689 14.2683 27.2732 14.2812 26.8108C14.2844 26.802 14.5622 26.7491 14.5662 26.7289C14.6286 26.4461 14.2523 26.3636 14.0017 26.2092C13.7506 26.0534 13.7753 25.878 14.2109 25.6296C14.1102 25.4894 14.2556 25.2109 14.3435 25.0452C14.4318 24.8805 13.898 25.0154 13.8844 25.0074C13.5678 24.8245 13.6093 24.626 13.629 24.3838C13.6356 24.2905 13.6393 24.1914 13.6199 24.0858C13.5873 23.9018 13.3979 23.5734 13.2775 23.3979C13.1817 23.2597 13.2741 23.1272 13.1493 23.0105C13.1326 22.9947 12.9061 23.0902 12.8952 23.0872C12.5648 23.0195 13.1589 22.9098 13.2498 22.8438C13.5805 22.604 13.7532 22.4658 13.5124 22.3176C13.4572 22.2834 12.5925 22.4126 12.5161 22.3408C12.4184 22.2471 12.7262 22.1945 12.6165 22.0988C12.6074 22.0905 12.4267 22.1514 12.4109 22.0752C12.3348 21.7214 12.3202 21.3106 12.1892 20.9499C12.172 20.9004 11.9027 21.0537 11.8731 20.9832C11.734 20.6528 11.6314 20.2666 11.6716 19.8848C11.6823 19.7904 11.9011 19.7867 11.9566 19.7515C12.2919 19.5384 11.7158 19.5254 11.6983 19.5007C11.2709 18.9286 11.6361 18.3139 11.2687 17.6807C11.2479 17.6492 10.6095 17.4599 11.0878 17.24C11.1194 17.2242 11.6104 17.0116 11.2415 16.9545C11.2184 16.9506 10.967 17.0747 10.9714 16.9275C10.9762 16.782 10.7653 16.5715 11.0326 16.3353C11.1165 16.2591 11.6142 16.0575 11.1843 15.9144C11.1543 15.9102 10.1952 15.6916 10.8306 15.5316C10.9354 15.5057 11.6162 15.4748 11.2527 15.2744C11.1824 15.2351 11.0351 15.3239 10.9334 15.2137C10.7769 15.0425 10.95 14.8003 10.6429 14.5819C10.5884 14.5455 10.1233 14.3752 10.4761 14.2388C10.5314 14.218 10.7588 14.2597 10.785 14.1894C10.9108 13.8576 10.7747 13.4964 10.9609 13.1649C11.0265 13.0491 11.3878 13.1427 11.4976 13.0307C11.6072 12.918 11.7293 12.69 11.5803 12.5415C11.4315 12.3903 10.8294 12.4518 10.8125 12.2437C10.7444 11.326 11.3016 10.5342 11.6407 9.74402C11.692 9.62508 11.457 9.65446 11.5211 9.47146C11.5235 9.46462 11.5259 9.45772 11.5283 9.45076C11.7126 8.90597 11.9112 7.88922 12.5287 7.57608C13.0242 7.32965 13.0645 7.92283 13.3245 7.68834C13.449 7.57595 12.8943 7.14498 12.8911 7.09991C12.8476 6.6666 13.236 6.55357 13.3091 6.20173C13.3249 6.12776 13.0456 6.06705 13.0623 6.00482C13.1171 5.79102 13.334 5.64569 13.4173 5.4499C13.4546 5.36113 13.262 5.2727 13.3204 5.20296C13.4588 5.03472 13.6348 4.91335 13.9171 4.8371C13.9423 4.8309 14.0961 5.07944 14.1891 4.95083C14.3416 4.73917 14.6807 4.58725 14.7111 4.21509C14.7199 4.10433 14.3407 3.80277 14.7364 3.84356C14.8202 3.85193 15.226 4.26756 15.0014 3.75835C14.9557 3.68018 14.7649 2.88119 15.2463 3.025C15.3723 3.06213 15.8029 3.30716 15.8474 3.16868C15.8533 3.14768 15.626 3.00202 15.6938 2.90891C15.9373 2.58478 16.3118 2.34128 16.6791 2.04348C16.7791 1.96306 16.4804 1.8202 16.6416 1.70511C17.0875 1.38324 17.8178 1.19655 18.3795 1.18826C18.5868 1.1845 18.4828 1.42796 18.5024 1.44903C18.5645 1.5241 18.6136 1.55899 18.6549 1.56671C18.7434 1.60401 18.7551 1.26616 18.7859 1.23743C19.0333 1.01711 19.2755 1.23953 19.5255 1.14761C19.5947 1.12302 19.5192 0.876073 19.5311 0.85218C19.6598 0.617906 19.5919 1.08143 19.6912 1.12238C19.9671 1.23918 20.2598 1.19759 20.5354 1.15298C20.6369 1.13633 20.5091 0.847817 20.6016 0.836377C21.1517 0.763843 21.7679 0.796616 22.3722 1.02288C22.4856 1.06634 22.3871 1.28314 22.4055 1.3371C22.5225 1.71281 22.8316 1.26134 22.9049 1.22674C23.2154 1.06345 23.2917 1.2839 23.5555 1.31212C24.3189 1.40465 25.5348 1.80124 26.4651 3.08735C26.8153 3.60564 27.0017 4.056 27.149 4.43866C27.6027 5.68858 27.5962 6.54062 27.9032 7.50878C27.9215 7.5697 28.1983 7.43551 28.218 7.48764C28.4591 8.17017 28.4817 8.86525 28.6929 9.52489C28.7096 9.57886 28.9752 9.4471 29.0115 9.53249C29.0881 9.70815 29.1146 9.94537 29.0562 10.1428C29.0285 10.2399 28.7666 10.1614 28.7435 10.258C28.6896 10.4858 28.7059 10.7079 28.7857 10.9153C28.8203 11.0036 29.086 10.8188 29.1085 10.9378C29.2663 11.7401 29.4288 12.5213 29.1616 13.3742C29.1432 13.4327 28.562 13.5587 28.6902 13.6613C28.8544 13.6487 29.0462 13.623 29.2211 13.604C29.4669 14.7495 29.3962 15.9066 29.4926 17.0581C29.4968 17.1067 29.7996 16.9881 29.8092 17.0822C29.865 17.6269 30.0084 18.1436 29.7563 18.7287C29.7318 18.7872 29.1793 18.8167 29.2796 18.9709C29.298 18.9999 29.3964 19.2314 29.5223 19.2822C29.5411 19.2888 29.793 19.2178 29.8087 19.2952C29.8954 19.7495 29.8853 20.2275 29.775 20.7023C29.7566 20.7775 29.4755 20.7279 29.46 20.7817C29.352 21.1616 29.6009 21.5513 29.3875 21.9245C29.2439 22.1773 28.7628 22.1369 28.3103 22.3089C28.2465 22.3332 28.2507 22.4814 27.9809 22.5159C27.3024 22.6029 26.5504 22.6055 25.8281 22.7067C25.6725 22.7282 25.8603 22.9088 25.4712 22.8294C25.4452 22.8237 25.3057 22.6935 25.1742 22.6712C25.0833 22.6556 24.8125 22.7269 24.6942 22.6884C24.576 22.65 24.8013 22.5725 24.6599 22.5037C24.517 22.4353 24.2076 22.5022 24.1543 22.3431ZM14.7298 24.2977C14.9454 24.0993 14.0154 24.3667 14.276 24.4272C14.2897 24.4298 14.7193 24.3077 14.7298 24.2977ZM17.0543 39.5078C17.4856 39.3532 16.8603 39.2267 16.5283 39.3341C16.1966 39.4394 16.9235 39.5533 17.0543 39.5078ZM17.2573 41.2301C17.6115 41.0696 16.248 40.9147 16.5048 41.1368C16.5192 41.1497 17.2368 41.2393 17.2573 41.2301ZM28.1201 21.742C28.1075 21.7451 28.1054 21.8505 28.1183 21.8517C28.4296 21.8767 28.4335 21.6658 28.1201 21.742ZM17.3191 42.9235C17.5152 42.9181 17.3583 42.6911 17.1159 42.6979C16.9222 42.6999 17.0764 42.9275 17.3191 42.9235ZM13.7772 17.464C13.7908 17.459 13.7882 17.3819 13.7086 17.3997C13.4524 17.4573 13.5469 17.5477 13.7772 17.464ZM16.8437 45.9593C16.8978 45.4935 18.0451 45.3023 17.9027 45.7445C17.8778 45.8274 17.5455 45.557 17.4408 45.6608C17.2501 45.8593 17.9615 45.9887 17.5835 46.1917C17.514 46.2313 16.8377 45.9894 16.8422 45.9584C16.8427 45.9587 16.8432 45.959 16.8437 45.9593ZM15.8197 23.8878C15.8312 23.8815 15.8119 23.7777 15.799 23.779C15.489 23.8161 15.5272 24.0235 15.8197 23.8878ZM14.0967 13.1033C14.1239 13.1001 14.1783 12.8748 14.1551 12.8637C13.6737 12.6686 13.5586 13.1498 14.0967 13.1033ZM17.9931 30.6751C18.3153 30.7456 18.3708 30.8786 17.999 31.0228C18.0037 30.9067 17.9906 30.792 17.9931 30.6751Z" fill="#BADF01"/>
</svg>
