<svg width="50" height="44" viewBox="0 0 50 44" fill="none" xmlns="http://www.w3.org/2000/svg">
<path d="M22.097 0.454473C22.1636 0.466921 22.1068 0.593403 22.023 0.696313C21.997 0.72892 21.8621 0.731867 21.8384 0.756268C21.792 0.8034 21.8628 0.835038 21.8068 0.883456C21.7877 0.900069 21.5749 0.912455 21.5597 0.92938C21.4783 1.02477 21.5427 1.09228 21.5107 1.18448C21.3518 1.63114 21.3407 2.06815 21.3148 2.51458C21.3065 2.66235 21.1445 2.86673 21.252 3.00146C21.2648 3.01741 21.4471 2.97676 21.4629 2.97762C21.7037 2.99198 21.3294 3.03639 21.2854 3.07709C21.1119 3.23936 21.12 3.39389 21.212 3.50949C21.252 3.55975 21.6082 3.4436 21.4124 3.53357C21.3991 3.53977 21.2014 3.55797 21.1831 3.57674C21.1422 3.62066 21.1873 3.6764 21.1763 3.70545C21.1538 3.76089 21.1572 3.76899 21.163 3.8178C21.1659 3.84889 21.1495 3.88627 21.1367 3.92414C21.1215 3.96581 21.111 4.00806 21.1411 4.04173C21.1536 4.05503 21.3506 4.0018 21.3886 4.02001C21.4266 4.03818 21.4203 4.10502 21.3768 4.13478C21.3332 4.16448 21.1743 4.1815 21.1388 4.19139C20.8398 4.27514 21.2735 4.27636 21.2855 4.28402C21.4918 4.42525 21.2767 4.61518 21.3046 4.77653C21.3269 4.903 21.4274 5.01585 21.4366 5.13665C21.4471 5.28289 21.3574 5.4125 21.3994 5.5476C21.4036 5.56177 21.6361 5.50503 21.6417 5.52227C21.7004 5.70292 21.7062 5.89301 21.5784 6.10332C21.5654 6.12442 21.3547 6.13578 21.3294 6.15896C21.1784 6.29908 20.8019 6.55329 21.7125 6.4649C21.6902 6.54674 21.6698 6.64604 21.5002 6.74615C21.3911 6.81067 21.1586 6.80548 21.264 6.84417C21.2875 6.85295 21.4819 6.80327 21.5022 6.81899C21.5878 6.88553 21.5377 6.97839 21.6526 7.03808C21.6764 7.05005 21.8524 7.01574 21.8849 7.01474C22.1488 7.00798 21.7336 7.14261 21.705 7.16149C21.492 7.3052 21.5952 7.36278 21.6059 7.45913C21.6082 7.48149 21.841 7.41491 21.8518 7.43498C21.9045 7.53891 21.9044 7.66109 21.8172 7.78507C21.7973 7.81306 21.5914 7.82555 21.5716 7.8407C21.4865 7.90711 21.8701 7.85321 21.7959 7.91589C21.7808 7.92903 21.6068 7.95278 21.5881 7.95789C21.2949 8.03808 21.7218 7.9915 21.7325 7.99747C21.8762 8.07089 21.4459 8.21012 21.5238 8.28976C21.5336 8.29934 21.7483 8.2373 21.7624 8.26652C21.8578 8.46084 21.8355 8.69261 21.6951 8.92522C21.6736 8.96162 21.5053 8.96705 21.4854 8.97251C21.1743 9.05931 21.6022 9.0079 21.62 9.01557C21.749 9.07768 21.4066 9.21699 21.9213 9.18474C21.8049 9.55956 22.1479 9.85638 21.7541 10.2779C21.7496 10.2831 21.5392 10.3112 21.5312 10.3215C21.4317 10.446 21.7531 10.3703 22.1622 10.3715C22.265 10.3719 21.7945 10.5074 21.7602 10.5182C21.6336 10.5576 21.3196 10.5931 21.2955 10.6031C21.1067 10.6846 22.1335 10.5005 22.1449 10.5649C22.1435 10.5672 21.9528 10.5912 21.935 10.5998C21.8788 10.6268 21.9568 10.6306 21.8945 10.6582C21.7503 10.7221 21.2528 10.8204 21.5534 10.8274C21.5924 10.8282 22.1737 10.7171 22.1559 10.7788C22.1483 10.8034 22.1756 10.9025 22.1427 10.9374C22.1098 10.9721 21.9185 10.985 21.9107 10.9884C21.6753 11.1074 21.5673 11.0961 21.206 11.1976C20.846 11.2988 21.7184 11.1381 21.8187 11.137C21.9187 11.136 21.7233 11.2274 21.6544 11.2535C21.5854 11.2795 21.4631 11.2829 21.4248 11.302C21.1749 11.4275 21.8648 11.2627 22.0081 11.2653C22.3474 11.2714 21.7074 11.4315 21.6538 11.4998C21.6393 11.5183 21.7847 11.4803 21.8009 11.4918C21.8631 11.5376 21.6665 11.6054 21.8627 11.6362C21.8947 11.6413 22.2932 11.625 22.0128 11.7071C21.9724 11.7188 21.8085 11.7333 21.7764 11.7631C21.7281 11.8076 21.7035 11.8759 21.7639 11.9041C21.8086 11.9249 22.0694 11.8475 21.9927 11.8965C21.9584 11.9183 21.7978 11.9164 21.7464 11.9551C21.695 11.9937 21.7145 12.0665 21.7248 12.0939C21.7351 12.1211 21.9344 12.071 21.9484 12.0709C22.0287 12.0713 22.1353 12.1087 22.1359 12.1136C22.2023 12.3521 21.8995 12.6293 22.0529 12.8466C22.0646 12.8634 22.2754 12.8146 22.2794 12.8168C22.3794 12.8641 21.8047 12.9121 21.6228 12.9884C22.0538 12.9078 21.98 12.9471 22.035 12.9832C22.0618 13.0005 22.2272 12.9601 22.2446 12.9591C22.5042 12.947 22.1797 13.0255 22.1136 13.0427C21.8702 13.1062 22.1659 13.0788 22.0033 13.1215C21.8419 13.164 21.5933 13.1729 21.6037 13.2149C21.7605 13.2002 22.1592 13.0991 22.2303 13.1202C22.4991 13.1996 22.2212 13.4823 22.205 13.5853C22.1889 13.6887 22.2229 13.7154 22.1768 13.7822C22.0935 13.9028 22.3869 13.8134 22.5352 13.8539C22.6836 13.8947 21.9403 13.9904 21.7833 14.027C21.6263 14.0634 21.7912 14.0451 21.7059 14.0713C21.6207 14.0974 21.5087 14.0918 21.4805 14.1237C21.4523 14.1556 21.7468 14.179 21.9143 14.1598C22.269 14.1191 22.6323 14.0231 22.5147 14.1151C22.5077 14.1205 22.3114 14.1408 22.2944 14.1596C22.1661 14.3072 22.1787 14.4363 22.0677 14.5814C22.0521 14.6013 21.8337 14.6235 21.8222 14.6355C21.7016 14.7606 22.0593 14.6617 22.4731 14.6477C21.933 14.7278 21.6091 14.8152 21.6192 14.8929C21.6251 14.9396 21.8587 14.8912 22.0295 14.8927C22.0809 14.8931 21.9252 14.9538 22.0368 14.9407C22.4014 14.8981 22.8005 14.7975 22.6532 14.905C22.6461 14.9098 22.4465 14.9327 22.4366 14.9469C22.3716 15.0385 22.7512 14.9832 22.8114 15.0594C22.8587 15.119 22.6484 15.276 22.6239 15.3577C22.0188 15.4603 22.1695 15.5075 22.5916 15.4646C22.5829 15.5164 22.6156 15.5652 22.5661 15.6225C22.5493 15.6422 22.3723 15.6617 22.3537 15.667C22.0623 15.7497 22.4717 15.7008 22.4894 15.7086C22.6637 15.7958 22.3721 15.9418 22.6915 15.9991C22.703 16.0011 23.1242 15.935 22.8225 16.017C22.8016 16.0226 22.6043 16.0194 22.5983 16.0733C22.5923 16.1271 22.3839 16.2634 22.5908 16.3006C22.6406 16.3098 22.9892 16.2944 22.7287 16.3753C22.6933 16.3862 22.5719 16.4019 22.506 16.4201C22.2961 16.4787 22.7228 16.4173 22.3665 16.505C22.0101 16.5927 21.749 16.6924 22.0103 16.7214C22.018 16.7224 22.3575 16.6814 22.3561 16.705C22.3535 16.7426 22.2922 16.8059 22.3009 16.8433C22.3052 16.8612 22.5122 16.8136 22.5166 16.8161C22.6547 16.9173 22.4831 17.0351 22.4246 17.1789C22.4135 17.2053 22.7103 17.2246 22.4929 17.3096C22.2549 17.4028 21.2198 17.5275 21.4844 17.6019C21.5903 17.6322 22.9023 17.4669 22.2423 17.6673C22.4376 17.8018 22.1185 18.0127 22.3854 18.1356C22.3973 18.1412 22.7646 18.1018 22.7627 18.12C22.759 18.147 22.5917 18.1904 22.5836 18.2107C22.5457 18.2964 22.7032 18.3418 22.6934 18.4199C22.69 18.4495 22.5127 18.4699 22.5087 18.5053C22.5049 18.5405 22.7399 18.5231 22.6361 18.5879C22.5569 18.637 22.0903 18.753 22.0431 18.808C22.5095 18.7294 22.5053 18.7623 22.638 18.7968C22.6637 18.8033 22.824 18.7639 22.8445 18.7656C22.9317 18.7717 22.8005 18.814 22.8949 18.8178C22.9176 18.8188 23.0768 18.7916 23.1043 18.7909C23.3445 18.7835 22.9958 18.8998 22.9351 18.9199C22.7044 18.9966 22.9144 18.9777 22.8259 19.0213C22.7374 19.0649 22.6138 19.0438 22.5627 19.0857C22.4572 19.1725 22.4976 19.2537 22.502 19.3225C22.5047 19.3498 22.714 19.2948 22.7193 19.2978C22.7828 19.3443 22.5665 19.4396 22.9951 19.3975C21.9073 19.6248 23.1071 19.4128 22.9017 19.5303C22.8851 19.5396 22.3689 19.6368 22.2888 19.6258C22.2087 19.6148 22.3642 19.5504 22.24 19.5374C22.2108 19.5342 21.718 19.5725 21.6875 19.5714C21.4496 19.5625 22.2218 19.4223 22.2639 19.4124C22.7173 19.3044 22.1853 19.339 22.1466 19.3306C21.9697 19.2923 22.0687 19.2167 21.9409 19.1812C21.8583 19.1578 21.3511 19.2416 21.3616 19.2102C21.3964 19.106 22.0975 18.9509 21.4692 18.9668C21.3352 18.97 20.7847 19.0846 21.2083 18.9406C21.235 18.9316 21.6244 18.8116 21.3674 18.8253C21.335 18.8271 21.1736 18.855 21.1592 18.8525C21.0658 18.8347 21.1906 18.7905 21.1229 18.7653C21.0551 18.7401 20.9559 18.7128 21.0036 18.6625C21.0321 18.6322 21.3273 18.5487 21.3989 18.5243C21.6052 18.4544 21.2513 18.4787 21.5046 18.4138C21.7591 18.3485 22.158 18.3216 22.3154 18.2383C21.8957 18.3086 21.4646 18.3781 21.0424 18.4476C21.0366 18.3258 21.1518 18.1842 21.1126 18.0674C21.1073 18.053 20.8845 18.1071 20.8731 18.0927C20.8256 18.0315 20.9762 17.9451 20.9002 17.8864C20.8405 17.8411 20.5917 17.8235 20.5218 17.7771C20.9956 17.6598 20.8183 17.6039 20.8516 17.5354C20.8631 17.5115 20.9915 17.4908 21.0307 17.4684C21.1754 17.3846 20.756 17.4845 20.6866 17.4803C20.3903 17.4621 21.3489 17.2909 21.3115 17.2158C21.3099 17.2117 20.7895 17.2486 20.7565 17.247C20.541 17.238 20.9332 17.2089 20.9662 17.1743C21.0264 17.1113 21.1424 17.0542 20.9821 17.0197C20.9347 17.0097 20.6086 17.0224 20.8493 16.9457C20.8809 16.9357 21.0504 16.909 21.0596 16.9037C21.2134 16.8098 20.6819 16.8996 20.4955 16.8932C20.3092 16.8868 20.666 16.7659 20.7696 16.736C21.0378 16.6582 20.8905 16.7394 20.9177 16.7364C21.2404 16.7009 21.1781 16.6683 21.1996 16.6316C21.7197 16.5371 21.6807 16.4976 21.2197 16.5938C21.1694 16.6044 21.2223 16.621 21.1996 16.6316C20.6836 16.6914 20.6097 16.6533 21.0779 16.5166C21.2973 16.4524 21.5625 16.4317 21.4536 16.3702C21.4044 16.3423 21.0481 16.4177 20.9449 16.4034C20.7095 16.3706 21.0282 16.2205 20.9629 16.1564C20.9391 16.1331 20.7473 16.1928 20.7243 16.1781C20.6627 16.1391 20.8027 16.0713 20.7189 16.036C20.7111 16.0328 20.5074 16.0789 20.5022 16.0643C20.4587 15.9545 20.5731 15.8315 20.5562 15.7118C20.5479 15.6538 20.4169 15.5705 20.4294 15.5071C20.45 15.3978 20.7267 15.2178 20.6389 15.1421C20.5825 15.0924 20.3791 15.1404 20.2348 15.1399C19.9551 15.139 20.427 14.9711 20.5003 14.9468C20.5027 14.946 20.5597 14.9871 20.6607 14.9426C20.8779 14.8894 20.5014 14.9472 20.5003 14.9468C20.5477 14.9309 20.5774 14.8244 20.5346 14.8112C20.5113 14.8042 20.3176 14.8437 20.3091 14.8394C20.1119 14.7363 20.0395 14.612 20.1075 14.4623C20.111 14.4592 20.3295 14.4253 20.3351 14.4186C20.4186 14.3243 20.1436 14.321 19.9742 14.2835C19.805 14.2463 19.8492 14.1862 20.2167 14.0838C20.1612 14.0434 20.3146 13.9455 20.4081 13.8884C20.5016 13.8312 20.0765 13.8986 20.0675 13.8966C19.7804 13.8336 20.0122 13.7283 20.0303 13.6075C20.0397 13.55 19.9597 13.4532 19.9033 13.4028C19.858 13.363 19.9526 13.3181 19.8817 13.2866C19.8723 13.2823 19.6844 13.3206 19.6769 13.3201C19.4428 13.3116 19.9083 13.255 19.9891 13.231C20.2829 13.1442 20.4387 13.0943 20.2871 13.0573C20.2524 13.0488 19.5806 13.1219 19.5373 13.1029C19.4823 13.078 19.7227 13.0496 19.659 13.0246C19.6537 13.0224 19.5068 13.0483 19.5096 13.0256C19.5206 12.9207 19.5875 12.7977 19.5549 12.6965C19.551 12.6825 19.321 12.7409 19.3116 12.7213C19.2673 12.6292 19.2577 12.522 19.3508 12.4096C19.3744 12.3818 19.5401 12.3682 19.5877 12.3549C19.8757 12.2738 19.4422 12.3036 19.4328 12.2978C19.1989 12.1632 19.5614 11.9625 19.3479 11.8201C19.3355 11.8125 18.8662 11.8179 19.2524 11.7182C19.2781 11.7114 19.6734 11.6108 19.3944 11.6289C19.377 11.6301 19.1741 11.6858 19.189 11.6468C19.2039 11.6077 19.0564 11.5744 19.2748 11.487C19.3436 11.4594 19.7372 11.3544 19.4106 11.3635C19.3878 11.3643 18.6551 11.4176 19.148 11.3072C19.2292 11.2891 19.7561 11.203 19.477 11.1951C19.4229 11.1937 19.3088 11.2326 19.2308 11.2179C19.1107 11.1956 19.2421 11.1159 18.9987 11.1039C18.9557 11.1019 18.5919 11.1246 18.8577 11.0472C18.8993 11.0351 19.0766 11.0141 19.0934 10.9944C19.1744 10.9007 19.043 10.84 19.1512 10.741C19.1892 10.7061 19.4756 10.6715 19.5468 10.6297C19.6179 10.5879 19.6812 10.5174 19.5461 10.5088C19.411 10.5005 18.9641 10.6114 18.92 10.5719C18.7286 10.3994 18.9612 10.1622 18.9659 9.95565C18.9666 9.92533 18.8088 9.97735 18.7984 9.9347C18.7592 9.77864 18.5602 9.52891 18.8808 9.33245C19.1377 9.17528 19.3712 9.27781 19.4691 9.17461C19.5156 9.12495 18.9819 9.17128 18.9637 9.16438C18.7789 9.09671 19.0004 8.98902 18.9141 8.91481C18.8962 8.89948 18.6859 8.95345 18.673 8.94C18.6272 8.8944 18.7131 8.82381 18.6873 8.77759C18.6752 8.75694 18.513 8.78883 18.5221 8.76641C18.5421 8.71328 18.6029 8.65678 18.7474 8.58281C18.7606 8.57605 18.9683 8.57102 18.9696 8.53322C18.9712 8.47216 19.1093 8.37351 18.9423 8.3329C18.8921 8.32096 18.5196 8.38367 18.7695 8.29709C18.8217 8.27899 19.2707 8.21409 18.8759 8.23038C18.8105 8.23378 18.2747 8.23657 18.6035 8.13784C18.69 8.11176 19.0512 8.02136 18.9895 8.007C18.9798 8.00528 18.782 8.05251 18.7591 8.0358C18.6818 7.97636 18.6906 7.89926 18.6158 7.83845C18.5954 7.82228 18.3933 7.88596 18.3695 7.86074C18.3037 7.79046 18.3393 7.68093 18.391 7.59283C18.4104 7.5602 18.5852 7.55072 18.6035 7.54547C18.9013 7.4605 18.4884 7.51059 18.4626 7.50364C18.3079 7.4593 18.4917 7.37576 18.4297 7.31934C18.4131 7.3039 18.2199 7.34969 18.2019 7.34912C18.0255 7.34146 18.3809 7.30907 18.4157 7.27937C18.5142 7.19599 18.4863 7.12704 18.4504 7.06683C18.4369 7.04476 18.2149 7.10983 18.2055 7.08959C18.1455 6.97309 18.1438 6.83173 18.2481 6.68887C18.2681 6.6617 18.4449 6.64667 18.484 6.6351C18.757 6.55466 18.3687 6.57079 18.3306 6.56585C18.1565 6.54234 18.3073 6.49551 18.2707 6.45476C18.09 6.25797 18.1456 5.96572 18.1738 5.74773C18.2088 5.45966 18.3394 5.22158 18.2527 4.96853C18.2473 4.95223 18.0181 5.00798 18.0105 4.99444C17.926 4.82511 17.9808 4.62979 17.8934 4.46415C17.8912 4.45979 17.8889 4.45544 17.8865 4.45112C17.8788 4.43641 17.6625 4.49545 17.6428 4.4731C17.6008 4.42752 17.6022 4.36181 17.6641 4.30018C17.694 4.2702 17.8882 4.2715 17.9144 4.24199C17.9759 4.17411 17.9812 4.10884 17.9359 4.05447C17.9162 4.0316 17.6975 4.10721 17.6894 4.07461C17.6309 3.86001 17.5546 3.63804 17.81 3.36865C17.8274 3.34937 18.2828 3.26067 18.1896 3.24152C18.0622 3.25969 17.9128 3.28416 17.7768 3.30517C17.6503 2.98941 17.7573 2.64251 17.7298 2.30576C17.7286 2.29141 17.4897 2.35386 17.486 2.32629C17.4654 2.17079 17.3741 2.02486 17.5912 1.8251C17.6124 1.80538 18.0413 1.75066 17.9696 1.71277C17.9564 1.70537 17.8887 1.6413 17.7933 1.63722C17.7789 1.63669 17.5812 1.67906 17.572 1.65662C17.5218 1.52432 17.5466 1.37017 17.6498 1.20508C17.6669 1.17867 17.8833 1.17694 17.8973 1.15817C17.9959 1.02603 17.8163 0.904492 17.9994 0.722837C18.1237 0.600943 18.4973 0.622104 18.8607 0.558732C18.9119 0.549603 18.9193 0.493321 19.1321 0.491066C19.667 0.483994 20.2528 0.497381 20.8228 0.486556C20.9456 0.489254 20.8133 0.439888 21.1101 0.469483C21.1299 0.47482 21.2285 0.492613 21.3292 0.488653C21.3988 0.487346 21.6151 0.483485 21.7041 0.480055C21.793 0.475175 21.6117 0.47901 21.7163 0.474459C21.8222 0.470049 22.0676 0.45138 22.097 0.454473ZM20.8257 13.632C21.023 13.5599 20.2761 13.6827 20.4615 13.6921C20.4713 13.6924 20.816 13.6356 20.8257 13.632ZM21.7146 18.088C22.0352 17.9829 21.5457 18.0332 21.2975 18.1111C21.0496 18.189 21.6174 18.12 21.7146 18.088ZM22.0412 18.5481C22.2908 18.4469 21.2316 18.6203 21.4559 18.644C21.4686 18.6455 22.0267 18.554 22.0412 18.5481ZM18.9783 0.764772C18.9882 0.762898 18.9948 0.726716 18.9848 0.727019C18.7436 0.727724 18.7308 0.803807 18.9783 0.764772ZM22.3885 19.0008C22.5285 18.9585 22.3546 18.9362 22.1805 18.9887C22.0404 19.0311 22.2143 19.0534 22.3885 19.0008ZM21.2899 11.5639C21.3009 11.5614 21.3072 11.5383 21.2445 11.5495C21.0423 11.5857 21.1046 11.6057 21.2899 11.5639ZM22.5466 19.8447C22.5648 19.7128 23.4255 19.4864 23.3503 19.6395C23.3368 19.6673 23.0626 19.6344 22.9892 19.6794C22.8556 19.7616 23.4108 19.7051 23.1269 19.8144C23.0749 19.8343 22.5436 19.8526 22.5453 19.8447C22.5457 19.8447 22.5461 19.8447 22.5466 19.8447ZM21.718 13.4565C21.7277 13.454 21.732 13.4226 21.722 13.4235C21.4825 13.4481 21.4738 13.5115 21.718 13.4565ZM21.5365 10.234C21.5574 10.2292 21.5651 10.1561 21.5453 10.1572C21.1518 10.1874 21.135 10.3346 21.5365 10.234ZM22.608 15.3616C22.8518 15.353 22.8865 15.387 22.5918 15.4644C22.6022 15.4294 22.5989 15.3965 22.608 15.3616Z" fill="black"/>
<path d="M13.0288 9.5917C13.1478 9.51038 13.3233 9.5595 13.462 9.63966C13.5054 9.66447 13.502 9.8001 13.5327 9.82322C13.5928 9.86827 13.6346 9.79674 13.6952 9.85177C13.7154 9.87066 13.7199 10.0842 13.7405 10.0992C13.853 10.1798 13.9418 10.1141 14.0496 10.1462C14.5806 10.3044 15.0852 10.3216 15.6067 10.3538C15.7784 10.3642 16.0069 10.5299 16.1698 10.4244C16.1888 10.4119 16.1535 10.2284 16.1554 10.2127C16.1864 9.9716 16.2133 10.3477 16.2589 10.3924C16.4401 10.5687 16.6167 10.5638 16.7581 10.4735C16.8183 10.4345 16.7077 10.075 16.7983 10.2732C16.8046 10.2866 16.813 10.4851 16.8332 10.5039C16.8791 10.546 16.9504 10.5013 16.9833 10.513C17.0468 10.5365 17.0564 10.5333 17.113 10.5284C17.1906 10.5235 17.2941 10.6097 17.3714 10.5547C17.3878 10.5424 17.339 10.3439 17.3629 10.3061C17.3868 10.2683 17.4634 10.276 17.4945 10.3203C17.5256 10.3646 17.5349 10.5243 17.5439 10.56C17.6191 10.8617 17.6516 10.4266 17.6614 10.4148C17.8406 10.2105 18.045 10.4302 18.2341 10.4056C18.3783 10.3863 18.5221 10.287 18.6601 10.2806C18.8254 10.2736 18.9777 10.3652 19.1334 10.3263C19.1498 10.3224 19.1001 10.0881 19.1202 10.0829C19.3348 10.0276 19.552 10.0262 19.7894 10.1583C19.8132 10.1717 19.8118 10.3832 19.8372 10.4091C19.9915 10.563 20.2538 10.9466 20.2168 10.0313C20.3112 10.0552 20.4247 10.0777 20.5281 10.2499C20.5952 10.3606 20.5738 10.5936 20.6252 10.4887C20.6368 10.4654 20.5926 10.2694 20.612 10.2494C20.6935 10.1651 20.8008 10.2168 20.877 10.1028C20.8924 10.0792 20.8645 9.90212 20.8655 9.86945C20.8752 9.60474 21.0029 10.0238 21.0228 10.0529C21.173 10.2695 21.2488 10.1668 21.3609 10.1581C21.3869 10.1561 21.3255 9.92142 21.3494 9.91099C21.4743 9.86004 21.6117 9.86309 21.7516 9.9526C21.7828 9.97308 21.7834 10.1797 21.7997 10.1999C21.8711 10.2865 21.8342 9.9008 21.9022 9.97631C21.9165 9.99174 21.9324 10.1667 21.937 10.1855C22.0105 10.481 21.985 10.052 21.9926 10.0415C22.0876 9.89871 22.2166 10.3332 22.3156 10.2564C22.3274 10.2467 22.2696 10.0303 22.3047 10.0167C22.5392 9.92421 22.8014 9.95133 23.0635 10.0959C23.1041 10.1181 23.0995 10.287 23.1045 10.3071C23.1844 10.6206 23.1527 10.1906 23.1626 10.1729C23.243 10.0446 23.3801 10.3906 23.3776 9.87371C23.8053 9.99658 24.1691 9.65751 24.6317 10.0587C24.6375 10.0632 24.6567 10.2746 24.6682 10.2828C24.8065 10.3843 24.7389 10.0609 24.7654 9.65064C24.7718 9.54764 24.8999 10.0213 24.9102 10.0559C24.9479 10.1834 24.9694 10.4989 24.9796 10.5232C25.0622 10.7137 24.913 9.68117 24.9877 9.67068C24.9903 9.67209 25.0063 9.86369 25.0152 9.88175C25.0427 9.9385 25.0518 9.86027 25.0797 9.92317C25.1439 10.0688 25.2278 10.5689 25.2543 10.2676C25.2576 10.2285 25.1645 9.64399 25.2356 9.66251C25.264 9.67039 25.3807 9.6442 25.4188 9.67769C25.4569 9.71113 25.4601 9.90314 25.4636 9.911C25.5865 10.1487 25.567 10.2568 25.6622 10.6206C25.7571 10.9829 25.6241 10.1059 25.6286 10.0053C25.6335 9.90497 25.7275 10.1021 25.7534 10.1715C25.7794 10.2409 25.7758 10.3637 25.7957 10.4023C25.927 10.6543 25.7772 9.96045 25.7891 9.81669C25.8168 9.47637 25.9635 10.1201 26.039 10.1748C26.0596 10.1895 26.0242 10.0431 26.0386 10.027C26.0957 9.96506 26.1627 10.163 26.2097 9.96644C26.2174 9.9344 26.2216 9.53451 26.2995 9.81669C26.3106 9.85739 26.318 10.0219 26.3502 10.0545C26.398 10.1034 26.4772 10.1285 26.5136 10.0681C26.5404 10.0234 26.4657 9.76112 26.5182 9.8385C26.5416 9.87306 26.5299 10.0343 26.5719 10.0861C26.6138 10.138 26.6991 10.119 26.731 10.109C26.7629 10.0989 26.7164 9.89851 26.7171 9.88447C26.7218 9.80396 26.7712 9.69721 26.7769 9.69665C26.8849 9.67163 26.9964 9.70197 27.1069 9.73985C27.2865 9.79933 27.4593 9.8784 27.6193 9.78442C27.6395 9.77272 27.5943 9.56096 27.597 9.55697C27.6574 9.45676 27.6819 10.0337 27.7607 10.2165C27.6904 9.78368 27.7321 9.85787 27.7764 9.80283C27.7978 9.77595 27.7599 9.6099 27.7596 9.59238C27.7588 9.33192 27.833 9.65769 27.8495 9.72414C27.9104 9.96856 27.8944 9.6716 27.9353 9.83493C27.9761 9.99702 27.9732 10.2466 28.0226 10.2362C28.0139 10.0788 27.9177 9.67836 27.9458 9.60707C28.0501 9.33774 28.3637 9.61674 28.4809 9.63306C28.6009 9.64898 28.6332 9.61485 28.7078 9.66104C28.8424 9.74456 28.7527 9.4503 28.807 9.30126C28.8613 9.15224 28.9365 9.89811 28.9713 10.0556C29.0059 10.2131 28.9927 10.0476 29.0191 10.1331C29.0454 10.2185 29.0333 10.331 29.0692 10.3592C29.1051 10.3873 29.1461 10.0916 29.1316 9.9236C29.1011 9.56758 29.0068 9.2034 29.1079 9.32103C29.1138 9.32803 29.1281 9.525 29.1491 9.54192C29.3156 9.66991 29.4627 9.65686 29.6264 9.76721C29.6488 9.78272 29.6648 10.0019 29.6782 10.0133C29.8179 10.1335 29.7189 9.77511 29.7206 9.35969C29.7896 9.90146 29.8774 10.2259 29.9683 10.215C30.0229 10.2086 29.9768 9.97446 29.9857 9.80297C29.9883 9.75129 30.0517 9.90708 30.0412 9.79522C30.0073 9.42949 29.9071 9.02987 30.0255 9.17667C30.0308 9.1837 30.0489 9.38396 30.0649 9.39374C30.1684 9.45798 30.1196 9.07752 30.2096 9.01628C30.2799 8.96828 30.4545 9.17723 30.5468 9.20095C30.6416 9.80741 30.7029 9.65523 30.6693 9.23199C30.729 9.23995 30.7862 9.20649 30.8499 9.25545C30.8717 9.27211 30.8878 9.44953 30.8933 9.4681C30.9781 9.75951 30.9372 9.34903 30.9469 9.33111C31.0547 9.15465 31.2127 9.44504 31.2901 9.12324C31.2928 9.11166 31.2309 8.68976 31.3151 8.9914C31.3207 9.01221 31.3107 9.21048 31.3723 9.21552C31.4337 9.22066 31.5848 9.42733 31.6344 9.21879C31.6464 9.16858 31.6401 8.81873 31.7254 9.07866C31.7369 9.11398 31.7511 9.23558 31.7702 9.30139C31.8313 9.51101 31.774 9.08365 31.8641 9.43978C31.9545 9.79584 32.0606 10.0561 32.1033 9.79271C32.1048 9.78502 32.0679 9.44485 32.0951 9.44574C32.1385 9.44745 32.2097 9.50758 32.2528 9.49802C32.2737 9.49327 32.2247 9.28644 32.2278 9.282C32.3495 9.14078 32.4802 9.31029 32.6456 9.36516C32.6759 9.37564 32.7056 9.07703 32.7985 9.29304C32.9 9.52953 33.017 10.566 33.1102 10.2981C33.1475 10.1909 32.9911 8.87728 33.2062 9.53453C33.3669 9.3343 33.6037 9.64831 33.7517 9.37615C33.7585 9.36406 33.7213 8.99621 33.7423 8.99759C33.7736 9.00032 33.8201 9.16708 33.8434 9.17447C33.9415 9.20975 33.9979 9.04994 34.0879 9.05716C34.122 9.05953 34.142 9.23697 34.1826 9.23981C34.2234 9.24245 34.2082 9.00683 34.281 9.1089C34.3362 9.18676 34.4606 9.65166 34.5236 9.69713C34.442 9.23118 34.4802 9.23421 34.5228 9.09967C34.5309 9.07359 34.4884 8.91395 34.4907 8.89326C34.4996 8.80544 34.5459 8.93575 34.5522 8.84075C34.5538 8.81793 34.5254 8.65889 34.525 8.63126C34.5211 8.39023 34.649 8.7364 34.6711 8.79671C34.7554 9.02565 34.7375 8.81537 34.7863 8.90272C34.835 8.99006 34.8084 9.11506 34.8558 9.16483C34.9542 9.26773 35.0489 9.22405 35.1286 9.21715C35.1603 9.21341 35.1005 9.0051 35.1041 8.99964C35.1591 8.93408 35.2655 9.1479 35.2246 8.71875C35.4679 9.80338 35.2444 8.60568 35.3766 8.80763C35.3871 8.824 35.4903 9.33907 35.4761 9.42002C35.4618 9.5009 35.3901 9.34708 35.3727 9.47238C35.3686 9.50181 35.4038 9.99562 35.4019 10.0263C35.3871 10.2657 35.2391 9.49493 35.2284 9.45305C35.1116 9.00144 35.1418 9.5348 35.1314 9.57392C35.0838 9.75315 34.998 9.65651 34.9545 9.78614C34.9258 9.87001 35.0131 10.3767 34.9769 10.3672C34.8564 10.3361 34.6907 9.63724 34.6963 10.2681C34.6973 10.4027 34.8191 10.9517 34.6602 10.5313C34.6502 10.5048 34.5192 10.1177 34.5299 10.3755C34.5312 10.408 34.5603 10.5692 34.557 10.5837C34.5344 10.6782 34.4857 10.5544 34.4549 10.6234C34.424 10.6924 34.3904 10.793 34.3328 10.7469C34.2982 10.7193 34.2077 10.4255 34.1808 10.3544C34.1039 10.1496 34.1245 10.5043 34.0548 10.252C33.9847 9.99844 33.9624 9.59846 33.8694 9.44312C33.9415 9.86245 34.0124 10.2934 34.0834 10.7153C33.9405 10.7255 33.7795 10.6142 33.6426 10.6574C33.6257 10.6631 33.6831 10.8853 33.666 10.8973C33.5937 10.9469 33.496 10.7984 33.4261 10.8765C33.372 10.9379 33.3433 11.1887 33.2878 11.2603C33.1644 10.7876 33.0946 10.9674 33.0152 10.9359C32.9876 10.9251 32.9673 10.7966 32.9424 10.7579C32.8491 10.6147 32.9533 11.0333 32.9464 11.1032C32.9164 11.4016 32.7447 10.443 32.6561 10.4826C32.6514 10.4843 32.6788 11.0062 32.6759 11.0395C32.6586 11.2563 32.6368 10.8629 32.5974 10.8307C32.5255 10.7718 32.4621 10.6569 32.4176 10.8186C32.4047 10.8665 32.4092 11.1938 32.3274 10.9538C32.3167 10.9224 32.2911 10.7527 32.2852 10.7436C32.1805 10.5913 32.2676 11.1233 32.2543 11.3107C32.2408 11.4981 32.1114 11.1424 32.08 11.0389C31.9981 10.7713 32.0881 10.9173 32.0855 10.8902C32.055 10.5667 32.0149 10.63 31.9725 10.6093C31.88 10.0888 31.8324 10.129 31.9289 10.59C31.9396 10.6403 31.961 10.5868 31.9725 10.6093C32.0246 11.1264 31.9773 11.2016 31.8342 10.7341C31.7671 10.515 31.7522 10.249 31.677 10.3597C31.6428 10.4097 31.7181 10.7661 31.6976 10.8701C31.6514 11.1072 31.4884 10.7899 31.4104 10.8569C31.3824 10.8811 31.4448 11.0728 31.4268 11.0961C31.3794 11.1587 31.3055 11.0192 31.2608 11.1041C31.2568 11.112 31.3029 11.3158 31.2855 11.3213C31.1539 11.3672 31.0177 11.2539 30.8761 11.2728C30.8088 11.2819 30.7058 11.4147 30.6312 11.4032C30.5053 11.3838 30.3056 11.1082 30.2152 11.1969C30.155 11.2541 30.202 11.4578 30.1948 11.6028C30.1812 11.8838 30.0049 11.4118 29.9806 11.3382C29.9799 11.3357 30.03 11.2782 29.9828 11.1772C29.9307 10.9595 29.9811 11.3371 29.9806 11.3382C29.9645 11.2907 29.8413 11.2619 29.8241 11.3049C29.8149 11.3284 29.852 11.5226 29.8466 11.5311C29.7162 11.7302 29.5694 11.8035 29.3968 11.7362C29.3934 11.7327 29.3644 11.5135 29.3569 11.5079C29.2514 11.4245 29.2332 11.7007 29.1809 11.871C29.1287 12.0411 29.062 11.9968 28.961 11.6282C28.9113 11.6839 28.8042 11.5302 28.7421 11.4366C28.6807 11.3428 28.7373 11.7694 28.7345 11.7784C28.6467 12.0667 28.5332 11.8345 28.3954 11.816C28.3296 11.8065 28.2122 11.8867 28.1492 11.9434C28.1004 11.9889 28.0536 11.8937 28.0128 11.9648C28.0073 11.9743 28.0416 12.163 28.0406 12.1706C28.0176 12.4055 27.9773 11.9381 27.9537 11.857C27.8682 11.5619 27.8193 11.4053 27.7676 11.5574C27.7554 11.5922 27.8036 12.2667 27.7793 12.31C27.7474 12.3652 27.7278 12.1238 27.6952 12.1876C27.6924 12.1928 27.7143 12.3404 27.6881 12.3375C27.6197 12.3311 27.5449 12.3069 27.4706 12.2928C27.4141 12.2816 27.358 12.2766 27.3055 12.2906C27.2891 12.2944 27.3437 12.5256 27.3204 12.535C27.2107 12.5789 27.085 12.5878 26.9599 12.4935C26.9288 12.4696 26.9228 12.3032 26.9101 12.2553C26.8326 11.9657 26.8412 12.4011 26.8338 12.4105C26.6601 12.6446 26.4521 12.2785 26.2723 12.4914C26.2628 12.5038 26.2402 12.9748 26.1473 12.5863C26.141 12.5605 26.0475 12.1628 26.0516 12.4429C26.0519 12.4605 26.1043 12.6646 26.0598 12.6492C26.0151 12.6339 25.9678 12.7815 25.8801 12.5613C25.8523 12.492 25.7549 12.0958 25.7451 12.4236C25.7448 12.4464 25.7607 13.1823 25.6626 12.6865C25.6466 12.6048 25.5795 12.0752 25.552 12.3552C25.5471 12.4094 25.5852 12.5244 25.5632 12.6024C25.5297 12.7227 25.4453 12.5899 25.4166 12.8338C25.4117 12.8769 25.4153 13.2421 25.342 12.9745C25.3305 12.9326 25.3174 12.7545 25.2955 12.7373C25.1909 12.655 25.1131 12.7858 25.0044 12.676C24.966 12.6375 24.9442 12.3497 24.8999 12.2777C24.8555 12.2058 24.7769 12.1415 24.7587 12.2768C24.7405 12.4121 24.8405 12.8621 24.7922 12.9056C24.5828 13.0948 24.3162 12.8586 24.0799 12.8503C24.0447 12.8491 24.0949 13.0082 24.0445 13.018C23.8602 13.0548 23.5569 13.2503 23.3506 12.9253C23.1845 12.6651 23.3198 12.4325 23.2059 12.3327C23.1511 12.2852 23.1688 12.8213 23.1594 12.8395C23.0683 13.0237 22.9604 12.7993 22.8682 12.8846C22.8492 12.9023 22.8978 13.1141 22.8814 13.1268C22.8253 13.172 22.7485 13.0846 22.6923 13.1098C22.6675 13.1215 22.6937 13.2848 22.6681 13.2753C22.6071 13.2544 22.5474 13.1921 22.4714 13.0458C22.4645 13.0324 22.4723 12.8241 22.4288 12.822C22.3586 12.8193 22.2529 12.679 22.1942 12.8457C22.177 12.8958 22.2247 13.2705 22.1408 13.0184C22.1232 12.9657 22.0783 12.5142 22.0701 12.9104C22.0686 12.9763 22.0379 13.5134 21.9455 13.1817C21.9211 13.0945 21.8407 12.7306 21.8199 12.7921C21.8172 12.8019 21.8587 13.0011 21.8377 13.0238C21.7634 13.1002 21.6751 13.0898 21.5984 13.1637C21.578 13.1839 21.6386 13.3878 21.6073 13.4112C21.5215 13.4757 21.3978 13.4378 21.2995 13.3842C21.263 13.3641 21.2638 13.1886 21.2589 13.1702C21.1806 12.8699 21.2106 13.285 21.2007 13.3107C21.1386 13.4649 21.0521 13.2793 20.984 13.3401C20.9652 13.3564 21.0051 13.551 21.0032 13.569C20.9827 13.7457 20.969 13.3887 20.9371 13.3533C20.8479 13.2528 20.7664 13.2793 20.6936 13.3142C20.6669 13.3273 20.7275 13.5511 20.7032 13.5602C20.5596 13.6185 20.4028 13.6165 20.2421 13.5093C20.2118 13.4887 20.2065 13.3111 20.1957 13.2717C20.1207 12.9963 20.1121 13.3861 20.1035 13.4242C20.0646 13.5983 20.0212 13.4461 19.9722 13.4818C19.7321 13.659 19.3993 13.5969 19.1465 13.5645C18.8181 13.5231 18.5496 13.3874 18.2516 13.4692C18.2326 13.4741 18.2816 13.7051 18.2656 13.7124C18.0578 13.7959 17.8351 13.7313 17.6284 13.8258C17.6114 13.8332 17.6647 14.0513 17.6384 14.0706C17.5846 14.1115 17.5094 14.1088 17.4417 14.0455C17.4088 14.0151 17.4233 13.8203 17.3906 13.7935C17.3145 13.7308 17.2402 13.7241 17.1758 13.7683C17.1485 13.7875 17.2212 14.0083 17.1834 14.0158C16.9265 14.0709 16.6759 14.142 16.3764 13.8818C16.3558 13.8639 16.2823 13.4058 16.255 13.4988C16.2682 13.6269 16.2872 13.7771 16.303 13.9137C15.9342 14.0347 15.5395 13.9221 15.1571 13.9449C15.141 13.9459 15.1991 14.1863 15.1681 14.1895C14.9885 14.2083 14.8227 14.2976 14.6092 14.0782C14.5881 14.0568 14.5437 13.6267 14.4983 13.6983C14.4903 13.7113 14.4167 13.7786 14.4075 13.8743C14.4064 13.8887 14.4462 14.0871 14.4209 14.0962C14.2735 14.1455 14.1095 14.1196 13.9433 14.0161C13.9164 13.999 13.9157 13.7826 13.8963 13.7686C13.7591 13.6708 13.6456 13.8496 13.5039 13.6707C13.4089 13.5502 13.392 13.178 13.3048 12.8205C13.2925 12.77 13.2428 12.768 13.2139 12.5572C13.141 12.0273 13.092 11.4432 13.0116 10.8787C12.9943 10.7571 12.9455 10.8965 12.9473 10.5972C12.9475 10.5771 12.9826 10.4735 12.9818 10.3721C12.9813 10.3021 12.9398 10.0892 12.9453 9.99876C12.9508 9.90837 12.9915 10.086 13.006 9.97873C13.0202 9.87014 12.9777 9.62746 13.0288 9.5917ZM28.4651 11.0176C28.3914 10.8196 28.4953 11.5693 28.5161 11.3832C28.517 11.3733 28.4688 11.0273 28.4651 11.0176ZM33.6812 10.0518C33.5668 9.73296 33.6131 10.2232 33.6978 10.4701C33.7825 10.7167 33.716 10.1484 33.6812 10.0518ZM34.2226 9.7081C34.1107 9.4607 34.2889 10.5192 34.3212 10.293C34.3232 10.2802 34.2291 9.72246 34.2226 9.7081ZM13.4858 12.6929C13.4839 12.683 13.4477 12.6777 13.4481 12.6877C13.4593 12.9285 13.5317 12.939 13.4858 12.6929ZM34.7542 9.34297C34.7079 9.20379 34.6785 9.3794 34.7361 9.55247C34.7824 9.6917 34.8118 9.5161 34.7542 9.34297ZM26.0915 10.5405C26.0893 10.5294 26.063 10.5228 26.0723 10.5859C26.1021 10.789 26.1288 10.7268 26.0915 10.5405ZM35.734 9.15273C35.5817 9.13935 35.3353 8.283 35.5111 8.35274C35.5429 8.36535 35.5 8.64211 35.5507 8.71414C35.6434 8.84531 35.588 8.28957 35.7094 8.57069C35.7315 8.62217 35.7431 9.15543 35.734 9.15399C35.734 9.15357 35.734 9.15315 35.734 9.15273ZM28.3073 10.1219C28.3049 10.1121 28.2687 10.1079 28.2693 10.1178C28.2854 10.3583 28.3586 10.367 28.3073 10.1219ZM24.5664 10.2763C24.5617 10.2554 24.4781 10.2465 24.478 10.2664C24.4882 10.6615 24.6574 10.6806 24.5664 10.2763ZM30.5508 9.2169C30.5497 8.97226 30.591 8.93681 30.6691 9.23172C30.6292 9.22181 30.5903 9.22565 30.5508 9.2169Z" fill="black"/>
<path d="M38.2587 22.1384C38.3485 22.2443 38.3128 22.4158 38.2435 22.555C38.222 22.5986 38.0868 22.6075 38.0661 22.6389C38.0258 22.7001 38.1001 22.7334 38.0499 22.7962C38.0326 22.8171 37.8204 22.8406 37.807 22.8616C37.7353 22.9759 37.8073 23.0545 37.7835 23.16C37.6659 23.6797 37.6866 24.1617 37.6936 24.6611C37.696 24.8257 37.5481 25.0578 37.6653 25.2036C37.6791 25.2205 37.8592 25.1705 37.875 25.1709C38.1172 25.1789 37.7449 25.2382 37.7038 25.2857C37.5419 25.474 37.5598 25.6414 37.6603 25.7683C37.7036 25.8222 38.0532 25.6848 37.8626 25.7887C37.8498 25.7958 37.6528 25.8216 37.6356 25.8426C37.5971 25.8899 37.6469 25.9538 37.6377 25.9861C37.619 26.0486 37.6229 26.0575 37.632 26.111C37.6426 26.1844 37.5646 26.2911 37.625 26.3595C37.6385 26.374 37.8324 26.3099 37.8718 26.3292C37.9112 26.3485 37.9092 26.4222 37.8674 26.4557C37.8256 26.4893 37.6673 26.5124 37.6324 26.5241C37.3377 26.6226 37.7732 26.6149 37.7858 26.6232C38.0024 26.776 37.7987 26.9896 37.8372 27.168C37.867 27.3033 37.9764 27.4315 37.993 27.5627C38.0119 27.7192 37.9319 27.8723 37.9821 28.0176C37.9871 28.033 38.2167 27.965 38.2234 27.9837C38.2939 28.1823 38.3115 28.3907 38.197 28.6276C38.1854 28.6514 37.9748 28.6686 37.9508 28.695C37.8088 28.8556 37.4459 29.139 38.3543 29.0237C38.3374 29.1157 38.3232 29.226 38.1593 29.3398C38.0538 29.4132 37.8204 29.4132 37.9284 29.4529C37.9525 29.4619 38.1444 29.4028 38.1658 29.4195C38.2555 29.4896 38.2117 29.5963 38.3306 29.6593C38.3553 29.672 38.5296 29.6301 38.5622 29.6283C38.8264 29.615 38.4183 29.7727 38.3908 29.794C38.1858 29.9556 38.2934 30.0189 38.3101 30.1254C38.3139 30.1501 38.5432 30.0713 38.5553 30.0933C38.6149 30.208 38.6215 30.3386 38.5423 30.4801C38.5241 30.5117 38.3184 30.5298 38.2995 30.5471C38.2184 30.6228 38.5998 30.5548 38.5293 30.6258C38.515 30.6407 38.3419 30.6707 38.3235 30.6768C38.0344 30.7719 38.4597 30.711 38.4707 30.7173C38.6195 30.7955 38.196 30.9556 38.2795 31.0439C38.2899 31.0544 38.5013 30.9809 38.5174 31.0132C38.6256 31.2278 38.6169 31.481 38.4909 31.7429C38.4716 31.7836 38.3031 31.7932 38.2835 31.7997C37.9768 31.9022 38.4029 31.8361 38.4211 31.8442C38.5544 31.91 38.2191 32.069 38.7337 32.0237C38.6404 32.4419 39.0026 32.7616 38.6334 33.235C38.6293 33.241 38.42 33.2763 38.4126 33.2879C38.3206 33.4281 38.6382 33.3376 39.0487 33.3304C39.1518 33.3286 38.6882 33.4881 38.6544 33.5007C38.5299 33.5469 38.2171 33.5927 38.1936 33.6043C38.0091 33.6981 39.0278 33.4731 39.0431 33.5436C39.0419 33.5462 38.8521 33.5768 38.8347 33.5866C38.7799 33.6175 38.8584 33.6199 38.7976 33.6516C38.6567 33.7245 38.164 33.8444 38.4659 33.8461C38.5051 33.8461 39.0813 33.7112 39.0673 33.78C39.0613 33.8075 39.0948 33.9166 39.0639 33.9557C39.033 33.9948 38.8419 34.013 38.8343 34.0169C38.6055 34.1531 38.4965 34.143 38.1402 34.2624C37.7853 34.3816 38.6506 34.1859 38.751 34.1825C38.8513 34.1791 38.6608 34.2838 38.5932 34.3139C38.5257 34.344 38.4031 34.3503 38.3659 34.3722C38.1231 34.5168 38.8049 34.3199 38.9489 34.3201C39.2896 34.32 38.6575 34.5104 38.6079 34.5871C38.5945 34.6078 38.7381 34.5628 38.7551 34.5751C38.8202 34.6244 38.6271 34.7033 38.8258 34.733C38.8582 34.7379 39.2569 34.7114 38.9806 34.8076C38.9407 34.8214 38.7773 34.8409 38.7468 34.8743C38.7011 34.9242 38.6807 35.0009 38.7431 35.0309C38.7892 35.053 39.0461 34.962 38.9721 35.0178C38.9391 35.0427 38.7778 35.0438 38.7286 35.0877C38.6795 35.1315 38.7036 35.2117 38.7155 35.2416C38.7275 35.2714 38.9244 35.2119 38.9384 35.2116C39.019 35.2103 39.1282 35.2493 39.1291 35.2546C39.2098 35.5145 38.9238 35.8307 39.0904 36.0651C39.1032 36.0835 39.3117 36.0252 39.3158 36.0276C39.4191 36.0781 38.8455 36.1426 38.6677 36.231C39.0951 36.133 39.0235 36.1781 39.0809 36.2169C39.1089 36.2356 39.2723 36.1875 39.2897 36.1861C39.5494 36.1675 39.2287 36.2609 39.1634 36.2813C38.9231 36.3564 39.2182 36.3201 39.0576 36.3706C38.8983 36.4209 38.6495 36.4358 38.6625 36.482C38.8188 36.4626 39.2127 36.3427 39.2853 36.3645C39.5597 36.4465 39.298 36.7638 39.2882 36.8786C39.2784 36.9932 39.3141 37.022 39.2719 37.0965C39.1956 37.2312 39.4845 37.1265 39.6357 37.1679C39.7869 37.2096 39.0472 37.3307 38.8919 37.3742C38.7366 37.4176 38.9009 37.3941 38.817 37.4248C38.7331 37.4555 38.6204 37.4515 38.5941 37.4874C38.5678 37.5234 38.8647 37.5434 39.0315 37.5188C39.3849 37.4666 39.7434 37.3532 39.6311 37.4573C39.6244 37.4634 39.4287 37.4899 39.4129 37.5109C39.2931 37.6769 39.3136 37.8186 39.2109 37.9807C39.1965 38.0031 38.9788 38.032 38.968 38.0455C38.8547 38.1866 39.2074 38.0699 39.6218 38.0462C39.0848 38.1457 38.7652 38.2489 38.7801 38.3346C38.7889 38.3861 39.0202 38.3278 39.1917 38.326C39.2433 38.3254 39.0908 38.3955 39.2019 38.3788C39.5651 38.3243 39.9593 38.2051 39.818 38.3266C39.8112 38.3321 39.6123 38.3615 39.6033 38.3773C39.5437 38.4797 39.9209 38.4104 39.986 38.4935C40.0371 38.5587 39.8358 38.7366 39.8162 38.8273C39.2154 38.9529 39.3695 39.002 39.7902 38.9459C39.7847 39.0033 39.8204 39.0564 39.7742 39.1205C39.7585 39.1425 39.5821 39.1676 39.5638 39.1739C39.2765 39.2709 39.6842 39.2089 39.7025 39.2171C39.8826 39.3103 39.5991 39.4775 39.9229 39.5343C39.9345 39.5362 40.3531 39.4547 40.0554 39.5513C40.0348 39.5579 39.8366 39.5585 39.8339 39.6181C39.8312 39.6776 39.6302 39.8315 39.8401 39.8689C39.8907 39.878 40.2394 39.8542 39.983 39.9488C39.9482 39.9615 39.8274 39.9813 39.7624 40.0028C39.5554 40.0718 39.9797 39.9954 39.6275 40.0995C39.2754 40.2036 39.0196 40.319 39.2834 40.3457C39.2912 40.3467 39.6293 40.2945 39.6293 40.3205C39.629 40.362 39.5713 40.4331 39.5823 40.4741C39.5876 40.4937 39.7924 40.437 39.797 40.4396C39.9415 40.5484 39.7767 40.6826 39.7267 40.8425C39.7172 40.8719 40.0161 40.8872 39.8031 40.9854C39.5701 41.093 38.5393 41.2518 38.8092 41.3284C38.9172 41.3594 40.2233 41.1506 39.5735 41.3854C39.7776 41.5302 39.4702 41.7693 39.7454 41.8995C39.7576 41.9054 40.1237 41.8545 40.1228 41.8747C40.1208 41.9047 39.9556 41.956 39.9488 41.9786C39.916 42.0741 40.0766 42.121 40.0715 42.2075C40.07 42.2402 39.8934 42.2664 39.8915 42.3054C39.8897 42.3444 40.1245 42.3204 40.0243 42.394C39.9478 42.4498 39.4867 42.5871 39.4426 42.6489C39.9058 42.5527 39.9036 42.5892 40.0387 42.6246C40.0649 42.6314 40.2233 42.5846 40.244 42.586C40.3319 42.5911 40.2028 42.6404 40.2978 42.6428C40.3206 42.6434 40.4787 42.6101 40.5062 42.6088C40.7467 42.5958 40.4039 42.7313 40.3442 42.7547C40.1176 42.8441 40.327 42.8189 40.2409 42.8689C40.1547 42.9188 40.0294 42.8981 39.9808 42.9453C39.8801 43.0432 39.9256 43.1319 39.9342 43.2079C39.9385 43.238 40.1452 43.173 40.1507 43.1762C40.2172 43.2263 40.006 43.3359 40.4334 43.2808C39.356 43.5539 40.5467 43.2955 40.3478 43.4294C40.3316 43.44 39.8197 43.5578 39.7387 43.5473C39.6577 43.5367 39.8098 43.4624 39.6844 43.4505C39.6549 43.4477 39.1629 43.4999 39.1323 43.4992C38.893 43.4942 39.6592 43.3238 39.7008 43.312C40.1491 43.1835 39.6175 43.2324 39.5782 43.224C39.3984 43.1853 39.4931 43.0999 39.3629 43.0633C39.2786 43.0391 38.7748 43.1419 38.7835 43.107C38.8121 42.9913 39.5059 42.8058 38.8766 42.8359C38.7424 42.8422 38.1972 42.9799 38.6133 42.8122C38.6395 42.8016 39.023 42.6613 38.7659 42.6818C38.7335 42.6844 38.5734 42.7185 38.5588 42.7159C38.464 42.6982 38.5865 42.647 38.517 42.6205C38.4476 42.5941 38.3464 42.566 38.3912 42.5095C38.4179 42.4754 38.709 42.3773 38.7793 42.3488C38.982 42.2675 38.6286 42.3014 38.8786 42.2246C39.13 42.1474 39.5285 42.1096 39.6813 42.0144C39.2646 42.1005 38.8364 42.186 38.4171 42.2712C38.4038 42.1365 38.5109 41.9784 38.4645 41.8502C38.4583 41.8344 38.2381 41.8986 38.2257 41.8829C38.1745 41.8164 38.3203 41.7178 38.2404 41.6545C38.1778 41.6057 37.9271 41.5907 37.8542 41.5412C38.3224 41.4022 38.1412 41.3443 38.1705 41.268C38.1805 41.2414 38.3081 41.2159 38.346 41.1904C38.4861 41.0949 38.0715 41.2137 38.0016 41.2105C37.7032 41.1964 38.6545 40.9879 38.6124 40.9056C38.6105 40.9012 38.0908 40.9523 38.0575 40.9512C37.8408 40.9455 38.2325 40.9056 38.2634 40.8666C38.32 40.7955 38.4329 40.7305 38.2701 40.6957C38.222 40.6857 37.8956 40.7064 38.1325 40.6169C38.1635 40.6052 38.3319 40.5723 38.3409 40.5662C38.4894 40.4594 37.9617 40.5694 37.7743 40.5661C37.587 40.5629 37.9376 40.4221 38.0398 40.3869C38.304 40.2954 38.1613 40.3882 38.1883 40.3844C38.5098 40.3387 38.4454 40.3039 38.4647 40.2628C38.9807 40.148 38.9392 40.105 38.4826 40.2206C38.4327 40.2333 38.4868 40.2507 38.4647 40.2628C37.9508 40.3393 37.8742 40.2986 38.3356 40.1379C38.5518 40.0626 38.8165 40.0343 38.7036 39.9689C38.6526 39.9391 38.2997 40.0297 38.1954 40.016C37.9573 39.9847 38.2679 39.8126 38.1985 39.743C38.1732 39.7178 37.9844 39.7877 37.9605 39.7718C37.8963 39.7299 38.0326 39.6521 37.9464 39.6147C37.9383 39.6113 37.7368 39.6664 37.7307 39.6504C37.6803 39.5297 37.7878 39.3925 37.7636 39.2604C37.7518 39.1967 37.6152 39.1071 37.6239 39.0366C37.6377 38.9147 37.9047 38.7117 37.812 38.6297C37.7524 38.576 37.5513 38.6332 37.4065 38.6355C37.1259 38.6403 37.5889 38.445 37.661 38.4166C37.6634 38.4157 37.7231 38.4601 37.8216 38.4088C38.0363 38.3455 37.6621 38.4171 37.661 38.4166C37.7075 38.3982 37.7307 38.2793 37.6871 38.2659C37.6633 38.2587 37.4714 38.3063 37.4626 38.3017C37.2587 38.1926 37.1785 38.0569 37.2376 37.8898C37.2409 37.8864 37.458 37.8444 37.4632 37.8369C37.5412 37.7309 37.265 37.7322 37.093 37.6949C36.921 37.6576 36.9617 37.5904 37.3241 37.4699C37.266 37.4265 37.4139 37.3153 37.5042 37.2502C37.5944 37.185 37.1722 37.2682 37.163 37.2661C36.8711 37.2019 37.0972 37.081 37.1082 36.9478C37.1141 36.8843 37.028 36.7792 36.9683 36.7245C36.9204 36.6814 37.0125 36.6298 36.9395 36.5962C36.9297 36.5916 36.7436 36.6378 36.736 36.6374C36.5006 36.6326 36.9642 36.5606 37.0437 36.5324C37.333 36.43 37.4864 36.3722 37.3321 36.3348C37.2968 36.3261 36.6275 36.421 36.5829 36.401C36.5262 36.3747 36.7656 36.3384 36.7002 36.3121C36.6948 36.3098 36.549 36.3414 36.5504 36.3164C36.555 36.2004 36.6145 36.0625 36.5756 35.9512C36.5709 35.9359 36.3437 36.005 36.333 35.9837C36.2831 35.8836 36.2671 35.7658 36.3535 35.6396C36.3755 35.6084 36.5409 35.59 36.5879 35.5743C36.8718 35.4787 36.4386 35.5204 36.4289 35.5142C36.1856 35.3685 36.5377 35.1427 36.3146 34.9889C36.3017 34.9807 35.8312 34.9962 36.2124 34.8777C36.2378 34.8698 36.6281 34.7498 36.3494 34.776C36.3319 34.7776 36.1318 34.8433 36.1445 34.8001C36.1571 34.757 36.0071 34.7237 36.2209 34.6227C36.2882 34.5909 36.6766 34.4669 36.3496 34.4837C36.3268 34.4851 35.595 34.5593 36.0827 34.4269C36.163 34.4052 36.6862 34.2991 36.4057 34.2959C36.3514 34.2954 36.2393 34.341 36.1602 34.3262C36.0382 34.3037 36.1651 34.2128 35.9204 34.2052C35.8771 34.2041 35.5137 34.237 35.7755 34.1461C35.8166 34.1319 35.9931 34.1049 36.0088 34.0829C36.0843 33.978 35.9488 33.9137 36.0511 33.8018C36.087 33.7622 36.3722 33.7181 36.441 33.6702C36.5098 33.6223 36.5688 33.5426 36.4329 33.5366C36.2969 33.5305 35.8554 33.6623 35.8089 33.6199C35.6067 33.4357 35.8245 33.1645 35.817 32.9393C35.816 32.9059 35.6609 32.9667 35.6478 32.9199C35.5987 32.7476 35.3839 32.4777 35.6933 32.2535C35.9411 32.0738 36.1819 32.1827 36.2735 32.0661C36.3171 32.01 35.7845 32.0723 35.7658 32.065C35.5763 31.9947 35.7921 31.8722 35.7009 31.792C35.682 31.7755 35.4744 31.8397 35.4607 31.8251C35.4119 31.7758 35.4936 31.6957 35.4648 31.6448C35.4513 31.6221 35.2906 31.6609 35.2983 31.6357C35.3149 31.5758 35.3727 31.5137 35.5131 31.429C35.5259 31.4213 35.7339 31.4109 35.7329 31.3695C35.7307 31.3025 35.8632 31.1906 35.6931 31.1491C35.642 31.1369 35.2723 31.2144 35.5174 31.1129C35.5686 31.0917 36.015 31.0102 35.6199 31.0364C35.5542 31.0406 35.0174 31.0576 35.3411 30.9414C35.4263 30.9108 35.7829 30.8031 35.7202 30.7887C35.7103 30.787 35.5149 30.8435 35.4909 30.8257C35.4097 30.762 35.4137 30.6764 35.3346 30.6101C35.3131 30.5925 35.1145 30.6677 35.089 30.64C35.0186 30.564 35.0479 30.4442 35.0941 30.3455C35.1115 30.309 35.2863 30.2946 35.3043 30.2884C35.5977 30.1878 35.1866 30.2523 35.1603 30.2451C35.0023 30.1995 35.181 30.1013 35.1156 30.0421C35.0981 30.0257 34.9072 30.0805 34.8891 30.0803C34.7118 30.0763 35.0662 30.0321 35.0992 29.9988C35.1929 29.9052 35.1606 29.8298 35.1207 29.7637C35.1057 29.7395 34.8873 29.8166 34.8764 29.7943C34.8082 29.6633 34.799 29.514 34.8941 29.3518C34.9124 29.3212 35.0888 29.3006 35.1272 29.2869C35.396 29.1915 35.0073 29.2176 34.9688 29.2128C34.7928 29.1913 34.9412 29.1369 34.902 29.0932C34.7082 28.8802 34.7459 28.5585 34.7599 28.3158C34.777 27.9996 34.8924 27.7326 34.7892 27.4565C34.7828 27.4389 34.5565 27.506 34.5481 27.4915C34.4498 27.3015 34.4976 27.0838 34.3882 26.8958C34.3797 26.8803 34.1665 26.9505 34.1454 26.9271C34.1006 26.8796 34.0978 26.8079 34.1558 26.7379C34.1837 26.7038 34.3786 26.7002 34.4028 26.6668C34.4596 26.5888 34.4608 26.5178 34.4121 26.4604C34.3909 26.4361 34.1765 26.525 34.1663 26.4897C34.0923 26.2501 34.003 26.0184 34.2397 25.7102C34.256 25.6891 34.7065 25.578 34.6118 25.5605C34.4853 25.5845 34.3373 25.616 34.2025 25.6434C34.0545 25.3031 34.1371 24.9178 34.0858 24.556C34.0836 24.5408 33.8487 24.6178 33.8432 24.5885C33.811 24.4193 33.7098 24.2698 33.9121 24.0468C33.9318 24.0247 34.3566 23.9438 34.2819 23.907C34.2684 23.9006 34.1959 23.8366 34.0999 23.8365C34.0855 23.8368 33.8911 23.8925 33.8801 23.8692C33.82 23.7335 33.8335 23.575 33.924 23.4075C33.939 23.3804 34.1543 23.3602 34.1668 23.3405C34.2539 23.2012 34.0674 23.1093 34.2348 22.9582C34.3476 22.857 34.7167 22.8073 35.066 22.6921C35.1153 22.6759 35.1136 22.6284 35.3212 22.5819C35.8431 22.4648 36.4207 22.3654 36.9765 22.238C37.0962 22.2106 36.9538 22.1767 37.2518 22.1515C37.2718 22.1499 37.3776 22.1739 37.4784 22.164C37.5481 22.1572 37.7568 22.0985 37.8473 22.0956C37.9376 22.0927 37.7639 22.1475 37.8718 22.1515C37.9809 22.1553 38.2192 22.0929 38.2587 22.1384ZM37.9073 36.9577C38.1008 36.8741 37.3591 37.0251 37.5456 37.0316C37.5555 37.0317 37.8978 36.9619 37.9073 36.9577ZM39.0695 41.8607C39.3848 41.7381 38.8969 41.8036 38.6526 41.8946C38.4087 41.9856 38.974 41.8979 39.0695 41.8607ZM39.4251 42.3622C39.6694 42.2454 38.6174 42.4583 38.8437 42.4799C38.8566 42.4812 39.4109 42.369 39.4251 42.3622ZM35.2065 22.8529C35.2162 22.8502 35.2188 22.8153 35.2089 22.8165C34.9701 22.8489 34.965 22.9188 35.2065 22.8529ZM39.8009 42.8551C39.9388 42.8055 39.763 42.7843 39.5915 42.8459C39.4535 42.8955 39.6293 42.9167 39.8009 42.8551ZM38.2469 34.6655C38.2578 34.6625 38.2627 34.6368 38.2004 34.6505C37.9999 34.6947 38.0635 34.7155 38.2469 34.6655ZM40.0105 43.7837C40.0209 43.6378 40.8705 43.3704 40.8044 43.5409C40.7924 43.5718 40.5154 43.5411 40.4445 43.5923C40.3155 43.6857 40.8689 43.6121 40.5908 43.7385C40.5399 43.7615 40.008 43.7924 40.0093 43.7837C40.0097 43.7837 40.0101 43.7837 40.0105 43.7837ZM38.7917 36.7456C38.8013 36.7427 38.8036 36.708 38.7938 36.7093C38.555 36.7415 38.5501 36.8113 38.7917 36.7456ZM38.4124 33.1905C38.4329 33.1843 38.4363 33.1043 38.4166 33.1059C38.0238 33.1479 38.0157 33.3099 38.4124 33.1905ZM39.8005 38.832C40.0445 38.8175 40.0814 38.8543 39.7905 38.9457C39.7987 38.9069 39.7935 38.8708 39.8005 38.832Z" fill="black"/>
<path d="M28.1937 34.2146C28.296 34.1183 28.4713 34.1436 28.6159 34.2044C28.6612 34.2232 28.6776 34.3578 28.7104 34.3766C28.7745 34.4131 28.8042 34.3368 28.8704 34.3832C28.8925 34.3992 28.9279 34.6098 28.9498 34.6219C29.0694 34.6866 29.1449 34.6099 29.2529 34.6272C29.785 34.7131 30.2714 34.6631 30.7762 34.6258C30.9426 34.6133 31.1854 34.747 31.3265 34.6211C31.3429 34.6062 31.2825 34.4294 31.282 34.4136C31.277 34.171 31.3571 34.5394 31.4074 34.5776C31.6068 34.728 31.7751 34.6998 31.898 34.5917C31.9501 34.5452 31.7922 34.2043 31.9076 34.3883C31.9156 34.4007 31.9524 34.596 31.9745 34.6119C32.0245 34.6475 32.0864 34.5939 32.1196 34.6011C32.1838 34.616 32.1926 34.6115 32.2462 34.5992C32.3199 34.5841 32.432 34.6556 32.498 34.5911C32.5119 34.5767 32.4365 34.3869 32.4539 34.3463C32.4713 34.3058 32.5459 34.3033 32.5821 34.343C32.6183 34.3828 32.6503 34.5395 32.6641 34.5736C32.7797 34.8621 32.7483 34.4275 32.7559 34.4144C32.8987 34.1887 33.1259 34.3792 33.3042 34.3299C33.4394 34.2919 33.5632 34.1748 33.695 34.1503C33.8523 34.1218 34.0115 34.1925 34.1558 34.1335C34.171 34.1275 34.0898 33.9022 34.1083 33.8944C34.3054 33.8119 34.5152 33.7817 34.7611 33.8816C34.7858 33.8919 34.8147 34.1012 34.8427 34.1236C35.0128 34.2557 35.3192 34.601 35.1533 33.7004C35.2472 33.7117 35.3596 33.7192 35.4836 33.8761C35.5635 33.977 35.5762 34.2102 35.6105 34.0999C35.6183 34.0752 35.5481 33.8871 35.5638 33.8648C35.6299 33.7709 35.7402 33.8082 35.7974 33.6855C35.8089 33.66 35.7571 33.4885 35.7535 33.456C35.7256 33.1928 35.9073 33.5909 35.9304 33.6172C36.105 33.8122 36.1633 33.7008 36.27 33.6776C36.2948 33.6723 36.2026 33.448 36.2242 33.4346C36.337 33.3681 36.4688 33.3536 36.6162 33.424C36.6492 33.4403 36.6787 33.6447 36.6972 33.6626C36.7781 33.739 36.6887 33.3621 36.7643 33.4282C36.7801 33.4416 36.8199 33.6127 36.8271 33.6307C36.939 33.9138 36.8542 33.4925 36.8601 33.4811C36.9311 33.3277 37.116 33.7412 37.2008 33.6524C37.2108 33.6413 37.125 33.4345 37.1568 33.4165C37.368 33.2954 37.6246 33.2887 37.8964 33.3986C37.9386 33.4154 37.9575 33.5832 37.9651 33.6024C38.0855 33.9026 37.9955 33.4809 38.0026 33.4622C38.0619 33.325 38.241 33.6504 38.1673 33.139C38.5953 33.2067 38.899 32.8254 39.398 33.1655C39.4042 33.1694 39.4514 33.3763 39.4635 33.383C39.6103 33.4664 39.5014 33.1545 39.4718 32.7448C39.4644 32.6419 39.651 33.0954 39.6656 33.1284C39.719 33.2501 39.7825 33.5597 39.7955 33.5826C39.9004 33.7611 39.6174 32.757 39.6878 32.7375C39.6905 32.7385 39.7317 32.9263 39.7427 32.9431C39.7769 32.9959 39.775 32.9173 39.8104 32.9762C39.8919 33.1125 40.0399 33.5976 40.0252 33.2958C40.0231 33.2567 39.8553 32.6891 39.9256 32.6989C39.9538 32.7033 40.0623 32.6632 40.1035 32.6917C40.1447 32.7201 40.1735 32.9099 40.1779 32.9173C40.3281 33.1377 40.3238 33.2472 40.464 33.5959C40.6039 33.9432 40.3589 33.0906 40.3499 32.9904C40.3411 32.8905 40.4573 33.0745 40.4915 33.1401C40.5256 33.2058 40.5387 33.3278 40.5628 33.3637C40.7223 33.5975 40.4861 32.9283 40.4784 32.7844C40.4598 32.444 40.6868 33.0639 40.767 33.1088C40.7887 33.121 40.7353 32.9802 40.7469 32.9625C40.7932 32.8944 40.8836 33.0826 40.9028 32.8822C40.906 32.8496 40.8575 32.4529 40.9698 32.7231C40.9859 32.7621 41.0146 32.9242 41.05 32.9526C41.1029 32.9953 41.1817 33.0109 41.2086 32.9468C41.2284 32.8993 41.1224 32.6483 41.1829 32.7188C41.2098 32.7503 41.2198 32.9113 41.2669 32.9578C41.3138 33.0043 41.3936 32.9753 41.4232 32.9616C41.4527 32.9477 41.3819 32.7547 41.3807 32.7407C41.3751 32.6603 41.4086 32.5487 41.4139 32.5475C41.6724 32.4511 42.0078 32.7176 42.2358 32.537C42.2538 32.5231 42.1834 32.3183 42.1856 32.314C42.2311 32.2078 42.3276 32.7769 42.4266 32.9492C42.3043 32.5281 42.3538 32.5969 42.3899 32.5372C42.4073 32.5081 42.3498 32.3478 42.3474 32.3304C42.3144 32.0721 42.4264 32.3868 42.4506 32.4508C42.5396 32.6863 42.4869 32.3938 42.5467 32.5511C42.6062 32.7072 42.6348 32.9549 42.6808 32.9391C42.6527 32.7841 42.51 32.3979 42.5281 32.324C42.5961 32.0449 42.9313 32.287 43.048 32.2898C43.1645 32.2927 43.1916 32.2553 43.2693 32.2929C43.4096 32.3609 43.288 32.0786 43.3217 31.9251C43.3557 31.7715 43.5184 32.5032 43.5709 32.6557C43.6232 32.8082 43.5905 32.6455 43.6261 32.7274C43.6617 32.8093 43.6638 32.9222 43.7016 32.9463C43.7394 32.9704 43.7435 32.6726 43.7095 32.5074C43.6375 32.1575 43.5032 31.8062 43.6147 31.9121C43.6212 31.9184 43.6587 32.1123 43.6808 32.1268C43.8552 32.2364 43.9974 32.2073 44.167 32.3C44.1904 32.3131 44.2315 32.5289 44.2458 32.5389C44.3946 32.6435 44.2574 32.2981 44.2109 31.8856C44.3407 32.4161 44.4625 32.7291 44.5484 32.709C44.6 32.6971 44.5285 32.4695 44.5173 32.2983C44.5139 32.2467 44.5931 32.3948 44.5702 32.2849C44.4953 31.9253 44.3533 31.5387 44.4839 31.6725C44.4898 31.6789 44.5303 31.8758 44.5468 31.8839C44.6536 31.9373 44.563 31.5646 44.6436 31.4944C44.7067 31.4395 44.8976 31.6297 44.9905 31.6438C45.1502 32.2365 45.1915 32.0796 45.1118 31.6626C45.1702 31.6647 45.2219 31.6257 45.2893 31.668C45.3124 31.6824 45.3474 31.857 45.3547 31.8749C45.4686 32.1561 45.3836 31.7525 45.3909 31.7338C45.4754 31.5481 45.66 31.8212 45.6997 31.4943C45.7011 31.4825 45.5958 31.0693 45.7098 31.3609C45.7175 31.381 45.729 31.579 45.7894 31.578C45.8498 31.5772 46.0164 31.7686 46.0428 31.5566C46.0492 31.5056 46.0061 31.1586 46.1158 31.409C46.1306 31.443 46.1571 31.5625 46.1824 31.6261C46.2634 31.8288 46.1631 31.4095 46.2876 31.755C46.4121 32.1005 46.5427 32.3491 46.5553 32.0838C46.5559 32.0761 46.4847 31.7414 46.511 31.7398C46.5531 31.7376 46.6281 31.7909 46.669 31.7775C46.6885 31.7709 46.62 31.5697 46.6224 31.5651C46.7246 31.414 46.8692 31.5705 47.0338 31.6107C47.064 31.6185 47.0632 31.3189 47.1741 31.5257C47.2957 31.752 47.5124 32.7722 47.5751 32.498C47.6007 32.3882 47.3184 31.0958 47.5913 31.7308C47.7266 31.5181 47.9852 31.8107 48.1019 31.5279C48.1072 31.5153 48.0359 31.1526 48.0563 31.1522C48.0867 31.1524 48.1476 31.3144 48.1708 31.3198C48.2692 31.3468 48.308 31.1834 48.3957 31.1833C48.4289 31.1828 48.465 31.3577 48.5046 31.3572C48.5441 31.3566 48.5071 31.1235 48.587 31.2191C48.6475 31.2922 48.8116 31.7445 48.8765 31.7847C48.7539 31.3278 48.791 31.3278 48.8195 31.1906C48.8249 31.1641 48.7689 31.0087 48.7692 30.9879C48.7696 30.8998 48.8265 31.0258 48.8237 30.9308C48.8231 30.9079 48.7809 30.752 48.778 30.7245C48.7518 30.4851 48.9075 30.8193 48.9344 30.8775C49.0372 31.0986 49.0003 30.8908 49.0555 30.9738C49.1107 31.0569 49.0966 31.1833 49.147 31.2291C49.2515 31.3237 49.3388 31.2728 49.4151 31.2597C49.4453 31.2535 49.3683 31.051 49.3713 31.0453C49.4183 30.9757 49.5408 31.1801 49.4618 30.7564C49.7966 31.8163 49.4705 30.6424 49.6167 30.833C49.6283 30.8484 49.7753 31.3527 49.7691 31.4344C49.7628 31.5159 49.6794 31.3685 49.6742 31.4945C49.6729 31.5241 49.7525 32.0125 49.7535 32.0432C49.7614 32.2825 49.5473 31.5274 49.5332 31.4865C49.3787 31.0465 49.4572 31.5746 49.4508 31.6144C49.4214 31.7964 49.3299 31.7069 49.3 31.8393C49.2801 31.925 49.4115 32.422 49.3757 32.4155C49.2571 32.3939 49.0317 31.712 49.0964 32.3389C49.1101 32.4727 49.279 33.009 49.0867 32.6035C49.0746 32.5779 48.9119 32.2033 48.9465 32.4589C48.9509 32.4911 48.9941 32.649 48.9923 32.6638C48.9796 32.7595 48.9211 32.6402 48.8981 32.7113C48.8751 32.7823 48.8522 32.8851 48.7926 32.8438C48.7567 32.8191 48.6416 32.5343 48.609 32.4658C48.5157 32.2681 48.5692 32.6193 48.478 32.3741C48.3861 32.1276 48.3263 31.7317 48.2217 31.5849C48.3314 31.9959 48.4412 32.4186 48.5502 32.8324C48.4146 32.8539 48.2489 32.7565 48.1218 32.8106C48.1061 32.8177 48.183 33.0338 48.1678 33.0472C48.1033 33.1024 47.9957 32.9628 47.936 33.0463C47.89 33.1119 47.8885 33.3633 47.8424 33.4391C47.6763 32.9798 47.6276 33.1644 47.5488 33.1398C47.5213 33.1313 47.4887 33.0055 47.4608 32.9691C47.3566 32.8349 47.4993 33.2419 47.4998 33.312C47.5018 33.6109 47.2392 32.6732 47.1582 32.7202C47.1538 32.7224 47.2339 33.2386 47.2346 33.2719C47.2405 33.4888 47.1788 33.0998 47.1378 33.0713C47.0628 33.0191 46.9908 32.9102 46.9645 33.075C46.957 33.1237 46.9957 33.4485 46.8923 33.2173C46.8787 33.1871 46.8363 33.0208 46.8297 33.0122C46.7136 32.8702 46.8535 33.3909 46.8604 33.5782C46.8673 33.7656 46.7058 33.4239 46.6646 33.3239C46.5578 33.0655 46.6594 33.2024 46.654 33.1757C46.5903 32.8572 46.5586 32.9236 46.516 32.9069C46.3718 32.3983 46.3306 32.4424 46.4724 32.8916C46.4879 32.9406 46.5025 32.8855 46.516 32.9069C46.6214 33.4157 46.5844 33.4947 46.3967 33.0435C46.3088 32.832 46.2657 32.5693 46.2057 32.686C46.1784 32.7388 46.2892 33.0859 46.281 33.191C46.2623 33.4307 46.0713 33.1309 46.0047 33.2045C45.9806 33.2312 46.0615 33.4157 46.0468 33.4405C46.0079 33.5072 45.9218 33.3757 45.8886 33.4642C45.8857 33.4724 45.9523 33.6704 45.9364 33.6775C45.8171 33.7351 45.6725 33.6361 45.5402 33.6684C45.4764 33.684 45.3932 33.8259 45.3214 33.8215C45.1974 33.8151 44.9775 33.5607 44.8996 33.6583C44.8485 33.7211 44.9174 33.9186 44.9276 34.0631C44.9476 34.3432 44.7249 33.8924 44.6923 33.8221C44.6912 33.8198 44.7329 33.7575 44.6756 33.6621C44.5999 33.4515 44.6926 33.821 44.6923 33.8221C44.6711 33.7767 44.5496 33.7608 44.5384 33.8052C44.5324 33.8294 44.5909 34.0183 44.5868 34.0273C44.4875 34.2377 44.3546 34.326 44.1824 34.2772C44.1788 34.2741 44.1245 34.0597 44.1166 34.055C44.0052 33.9835 44.0215 34.2594 43.9931 34.4336C43.9647 34.6076 43.8946 34.5711 43.7529 34.2163C43.7122 34.277 43.5916 34.1359 43.5209 34.0497C43.4501 33.9635 43.5572 34.3803 43.5555 34.3896C43.5065 34.6852 43.3719 34.4666 43.2366 34.4638C43.172 34.4617 43.0704 34.5541 43.0183 34.6171C42.9773 34.6676 42.9201 34.5787 42.8901 34.6537C42.886 34.6637 42.9428 34.8468 42.9428 34.8545C42.9508 35.0899 42.8527 34.6312 42.8199 34.5534C42.7006 34.2706 42.6338 34.1209 42.6043 34.2773C42.5975 34.3131 42.7298 34.9761 42.712 35.0218C42.6885 35.0801 42.6387 34.8431 42.6157 34.9101C42.6137 34.9156 42.6536 35.0593 42.6282 35.0594C42.5107 35.0618 42.3679 35.0108 42.2575 35.0564C42.2422 35.0621 42.3245 35.2849 42.3035 35.2968C42.205 35.3528 42.0867 35.376 41.9544 35.2973C41.9216 35.2772 41.8939 35.1131 41.8755 35.0671C41.7634 34.7893 41.8291 35.2195 41.8234 35.2296C41.6892 35.4815 41.4417 35.1435 41.2982 35.3757C41.2906 35.3891 41.3319 35.8583 41.1913 35.4846C41.1819 35.4597 41.0393 35.0771 41.081 35.3539C41.0836 35.3712 41.1609 35.5672 41.1165 35.5572C41.0722 35.5472 41.0467 35.6991 40.933 35.4916C40.897 35.4263 40.7505 35.0458 40.7853 35.3715C40.788 35.3942 40.9028 36.1208 40.7423 35.6416C40.716 35.5627 40.5802 35.0463 40.5923 35.3268C40.5948 35.3811 40.6469 35.4903 40.6363 35.5703C40.6202 35.6935 40.5213 35.5723 40.527 35.8172C40.5281 35.8605 40.5813 36.2217 40.475 35.9655C40.4584 35.9254 40.4216 35.7507 40.3984 35.7364C40.2882 35.6672 40.2305 35.8065 40.1118 35.7111C40.0698 35.6777 40.0096 35.3954 39.9574 35.3296C39.9052 35.2638 39.8214 35.2097 39.8227 35.3458C39.824 35.482 39.9813 35.9151 39.941 35.9642C39.7656 36.1775 39.4795 35.9763 39.2521 35.9974C39.2184 36.0005 39.2883 36.1518 39.2417 36.1678C39.07 36.2272 38.8086 36.4582 38.565 36.1627C38.3699 35.9261 38.4668 35.6789 38.344 35.5945C38.2849 35.5543 38.3768 36.0826 38.3704 36.1018C38.3096 36.2954 38.1739 36.0872 38.0979 36.1832C38.0822 36.2031 38.1584 36.4066 38.1444 36.4212C38.0972 36.473 38.0117 36.3962 37.9618 36.4281C37.9395 36.4429 37.9875 36.6011 37.9616 36.595C37.9002 36.5821 37.8342 36.5281 37.7409 36.3929C37.7324 36.3806 37.7106 36.1735 37.6687 36.177C37.601 36.1832 37.4807 36.0576 37.4479 36.2301C37.4384 36.2819 37.5369 36.6466 37.4209 36.4079C37.3966 36.358 37.2899 35.9169 37.3379 36.3101C37.3457 36.3755 37.3921 36.9107 37.257 36.5944C37.2214 36.5112 37.0931 36.1614 37.0819 36.2249C37.0808 36.2349 37.1485 36.4267 37.1318 36.4518C37.0718 36.5368 36.985 36.538 36.9222 36.621C36.9055 36.6436 36.9924 36.8375 36.9658 36.8646C36.8927 36.9396 36.77 36.9176 36.6676 36.8774C36.6298 36.8622 36.6057 36.6885 36.5984 36.6709C36.4807 36.3839 36.5683 36.7907 36.5625 36.8174C36.5249 36.9781 36.4159 36.8055 36.3596 36.8744C36.3439 36.8929 36.4097 37.0803 36.4105 37.0984C36.4162 37.2758 36.3522 36.9244 36.3167 36.8934C36.2169 36.8055 36.1424 36.8424 36.0777 36.8862C36.054 36.9026 36.1439 37.1162 36.122 37.1284C35.9931 37.2046 35.8426 37.2228 35.6734 37.1377C35.6414 37.1213 35.611 36.9462 35.595 36.9087C35.4839 36.646 35.5314 37.0327 35.5287 37.0715C35.5165 37.2487 35.4534 37.1037 35.4113 37.1455C35.2065 37.352 34.879 37.3339 34.6327 37.3348C34.3119 37.3369 34.0356 37.2378 33.7619 37.3577C33.7444 37.3651 33.8246 37.5872 33.8104 37.5965C33.6236 37.7062 33.4008 37.6717 33.2165 37.7924C33.2013 37.8019 33.2839 38.0106 33.2614 38.0331C33.2158 38.0807 33.1434 38.0879 33.0694 38.0342C33.0335 38.0085 33.0192 37.8139 32.9841 37.7918C32.9021 37.7397 32.8302 37.7428 32.7748 37.795C32.7513 37.8177 32.853 38.0265 32.8178 38.0388C32.5795 38.1273 32.3499 38.2306 32.0253 38.0129C32.0031 37.9979 31.8662 37.5546 31.8536 37.6502C31.8848 37.7751 31.9248 37.9211 31.9598 38.0541C31.6237 38.2226 31.2294 38.1635 30.8662 38.2368C30.8509 38.2399 30.9416 38.4699 30.9123 38.4772C30.7428 38.5196 30.5971 38.6299 30.3605 38.4413C30.3372 38.4229 30.2322 38.0035 30.199 38.0803C30.1933 38.0942 30.1325 38.1706 30.1376 38.2664C30.1387 38.2808 30.2056 38.4717 30.1827 38.484C30.0486 38.5524 29.8876 38.5485 29.7133 38.4683C29.6851 38.455 29.6529 38.241 29.6323 38.2297C29.4866 38.1513 29.4038 38.3431 29.2419 38.1851C29.1333 38.0785 29.063 37.7127 28.9275 37.3708C28.9084 37.3225 28.8604 37.3271 28.8021 37.1225C28.6552 36.6082 28.5233 36.0371 28.3642 35.4895C28.33 35.3716 28.3034 35.5159 28.2617 35.2197C28.259 35.1999 28.2775 35.0927 28.262 34.9926C28.2513 34.9234 28.1807 34.7184 28.1728 34.6282C28.1649 34.5381 28.2297 34.7084 28.228 34.6003C28.2259 34.4911 28.1498 34.2567 28.1937 34.2146ZM43.2031 33.6647C43.108 33.4765 43.3011 34.2083 43.2975 34.0216C43.2971 34.0117 43.2079 33.6739 43.2031 33.6647ZM48.0994 32.2054C47.9583 31.8979 48.051 32.3814 48.1565 32.6199C48.2618 32.8582 48.1423 32.2987 48.0994 32.2054ZM48.5874 31.8197C48.4559 31.5827 48.7285 32.6209 48.7381 32.3934C48.7388 32.3805 48.5951 31.8335 48.5874 31.8197ZM29.0824 37.2206C29.0792 37.211 29.0437 37.2106 29.0456 37.2204C29.0913 37.4571 29.1622 37.4579 29.0824 37.2206ZM49.0655 31.4143C49.0079 31.2795 48.996 31.4565 49.0677 31.6241C49.1253 31.7589 49.1372 31.5819 49.0655 31.4143ZM40.8659 33.4648C40.8623 33.4541 40.8361 33.4507 40.8533 33.5121C40.9089 33.7098 40.9265 33.6449 40.8659 33.4648ZM49.9935 31.1484C49.8453 31.1469 49.5286 30.3143 49.7047 30.37C49.7366 30.38 49.7206 30.6587 49.7762 30.7264C49.8777 30.8497 49.7732 30.3011 49.9162 30.5714C49.9422 30.6208 50.0024 31.1504 49.9936 31.1497C49.9935 31.1492 49.9935 31.1488 49.9935 31.1484ZM42.9404 32.794C42.937 32.7846 42.9018 32.7843 42.9036 32.7941C42.9491 33.0308 43.0201 33.0314 42.9404 32.794ZM39.365 33.3891C39.3576 33.369 39.2765 33.3704 39.2792 33.3901C39.343 33.7799 39.5073 33.7782 39.365 33.3891ZM44.9961 31.6593C44.9681 31.4163 45.0033 31.3772 45.1116 31.6623C45.0719 31.6565 45.0356 31.6639 44.9961 31.6593Z" fill="black"/>
<path d="M12.3922 24.3731C12.4563 24.3546 12.3954 24.4457 12.3104 24.5322C12.2841 24.5603 12.1496 24.5672 12.1255 24.5872C12.0786 24.6274 12.1483 24.6483 12.0924 24.6929C12.0733 24.7081 11.861 24.7259 11.8457 24.7412C11.7631 24.8206 11.8277 24.8808 11.7947 24.9575C11.6342 25.3494 11.6221 25.7275 11.5958 26.117C11.5879 26.2489 11.4264 26.4339 11.5329 26.5439C11.5456 26.557 11.7272 26.5136 11.7429 26.5136C11.9825 26.5148 11.6097 26.5696 11.5662 26.6085C11.3935 26.7587 11.4019 26.8951 11.4931 26.9894C11.5328 27.0308 11.8876 26.9139 11.6925 27.0006C11.6793 27.0066 11.4824 27.0316 11.4642 27.0487C11.4231 27.0867 11.4691 27.1392 11.4577 27.1631C11.4353 27.212 11.4386 27.2188 11.4443 27.2606C11.4489 27.3033 11.4042 27.3623 11.4037 27.4125C11.4033 27.4291 11.4083 27.4447 11.4228 27.458C11.4352 27.4689 11.6313 27.4136 11.6692 27.4275C11.707 27.4414 11.7006 27.4995 11.6572 27.5272C11.6138 27.555 11.4556 27.5772 11.4203 27.5875C11.1224 27.6729 11.5549 27.6575 11.5668 27.6634C11.7717 27.7744 11.5584 27.9544 11.5858 28.0916C11.6076 28.1988 11.7086 28.2969 11.7175 28.4C11.7277 28.5251 11.6393 28.6466 11.6808 28.7607C11.685 28.7728 11.9164 28.7125 11.922 28.7272C11.9813 28.8861 11.986 29.0455 11.8598 29.239C11.8468 29.258 11.6371 29.2779 11.6119 29.2993C11.4617 29.4289 11.0866 29.6657 11.9936 29.5488C11.9715 29.6211 11.9511 29.7086 11.7824 29.8038C11.6738 29.8652 11.4424 29.8718 11.5473 29.9004C11.5707 29.9069 11.7642 29.8544 11.7845 29.8671C11.8698 29.9214 11.8202 30.0062 11.9346 30.0522C11.9583 30.0615 12.1334 30.0232 12.1658 30.0208C12.4284 30.0023 12.0152 30.1394 11.9867 30.1572C11.7747 30.2918 11.8781 30.34 11.8886 30.4226C11.8909 30.442 12.1226 30.3729 12.1334 30.3898C12.186 30.4783 12.1855 30.5829 12.0994 30.6978C12.0796 30.7232 11.8747 30.7439 11.855 30.7581C11.7703 30.8201 12.1521 30.7547 12.0783 30.8129C12.0633 30.8251 11.8901 30.8541 11.8715 30.8595C11.5797 30.9434 12.0046 30.8824 12.0152 30.887C12.1584 30.9445 11.7299 31.0849 11.808 31.153C11.8178 31.1609 12.0314 31.0965 12.0455 31.1213C12.1405 31.2857 12.1189 31.491 11.9793 31.7001C11.9579 31.7329 11.7904 31.7457 11.7706 31.7514C11.461 31.8421 11.8869 31.7767 11.9046 31.7826C12.0331 31.8308 11.6922 31.9678 12.2049 31.9166C12.0894 32.2491 12.4312 32.4924 12.04 32.8804C12.0355 32.8852 11.8262 32.9198 11.8181 32.9292C11.7193 33.0427 12.0391 32.9611 12.4463 32.9425C12.5486 32.9379 12.0805 33.0788 12.0463 33.0899C11.9204 33.1304 11.6079 33.1765 11.5839 33.1864C11.3961 33.2666 12.4179 33.0565 12.4293 33.1122C12.428 33.1143 12.2382 33.1444 12.2204 33.1528C12.1645 33.179 12.2422 33.1786 12.1802 33.2057C12.0367 33.2681 11.5419 33.3792 11.841 33.3706C11.8798 33.3693 12.4583 33.2444 12.4407 33.2991C12.4331 33.321 12.4604 33.4062 12.4277 33.4382C12.395 33.4702 12.2046 33.4906 12.1969 33.4939C11.9627 33.6092 11.8552 33.6045 11.4957 33.7105C11.1375 33.8162 12.0057 33.634 12.1055 33.6282C12.205 33.6224 12.0106 33.7117 11.9421 33.7378C11.8735 33.7639 11.7517 33.7726 11.7137 33.7912C11.4653 33.914 12.1516 33.7361 12.2943 33.7317C12.632 33.7207 11.9952 33.8913 11.9419 33.9536C11.9275 33.9705 12.0722 33.9302 12.0884 33.9395C12.1503 33.9765 11.9547 34.0452 12.1501 34.0627C12.1819 34.0656 12.5785 34.0322 12.2995 34.1174C12.2593 34.1296 12.0963 34.1501 12.0643 34.1777C12.0164 34.2191 11.992 34.2804 12.0522 34.302C12.0967 34.318 12.3562 34.2378 12.2799 34.2843C12.2458 34.305 12.0859 34.3111 12.0348 34.3474C11.9837 34.3835 12.0032 34.4463 12.0135 34.4697C12.0238 34.493 12.2221 34.4396 12.236 34.4388C12.3159 34.4353 12.4222 34.4629 12.4227 34.4671C12.4893 34.6729 12.1882 34.9294 12.3412 35.1121C12.3529 35.1264 12.5627 35.0735 12.5666 35.0752C12.6663 35.1123 12.0944 35.1815 11.9134 35.2571C12.3423 35.1659 12.2689 35.2037 12.3237 35.2326C12.3504 35.2465 12.5149 35.2032 12.5323 35.2015C12.7906 35.1784 12.4678 35.2627 12.402 35.2809C12.1598 35.3481 12.4541 35.3099 12.2923 35.3551C12.1317 35.3999 11.8843 35.4197 11.8947 35.4559C12.0507 35.4356 12.4475 35.328 12.5183 35.343C12.7859 35.3993 12.5098 35.6603 12.4938 35.7511C12.478 35.8422 12.5118 35.8639 12.4661 35.9244C12.3833 36.0339 12.6752 35.9416 12.8229 35.9699C12.9706 35.9984 12.2309 36.1179 12.0747 36.1574C11.9185 36.1968 12.0826 36.1729 11.9979 36.2001C11.9131 36.2271 11.8016 36.2275 11.7736 36.2568C11.7456 36.286 12.0387 36.2923 12.2053 36.2675C12.5584 36.2148 12.9198 36.1134 12.8029 36.1995C12.7959 36.2045 12.6006 36.2318 12.5838 36.249C12.4562 36.3843 12.469 36.4962 12.3587 36.6287C12.3433 36.647 12.1259 36.6768 12.1145 36.6879C11.9946 36.8031 12.3505 36.6994 12.7624 36.6672C12.2249 36.7633 11.9026 36.8553 11.9128 36.9228C11.9187 36.9634 12.1512 36.9097 12.3212 36.9028C12.3724 36.9007 12.2175 36.9612 12.3285 36.9444C12.6914 36.8897 13.0884 36.7825 12.942 36.8835C12.935 36.8881 12.7363 36.9177 12.7265 36.9306C12.662 37.0138 13.0396 36.947 13.0998 37.0111C13.1469 37.0609 12.9379 37.2083 12.9136 37.2809C12.3114 37.3998 12.4616 37.4338 12.8816 37.3759C12.873 37.4216 12.9057 37.4627 12.8565 37.5152C12.8398 37.5333 12.6636 37.5588 12.6452 37.5643C12.3552 37.6507 12.7627 37.5885 12.7803 37.5944C12.9539 37.6622 12.664 37.8039 12.9819 37.8386C12.9933 37.8398 13.4125 37.7617 13.1123 37.848C13.0916 37.8538 12.8951 37.8606 12.8893 37.908C12.8834 37.9554 12.6761 38.0844 12.8822 38.1072C12.9318 38.1128 13.2787 38.0826 13.0196 38.1659C12.9844 38.1771 12.8636 38.1966 12.798 38.2158C12.5892 38.2771 13.0138 38.2029 12.6592 38.2968C12.3046 38.3906 12.045 38.4904 12.3051 38.5031C12.3127 38.5037 12.6506 38.4515 12.6492 38.4721C12.6467 38.5051 12.5858 38.5635 12.5945 38.5957C12.5988 38.6112 12.8048 38.5596 12.8092 38.5615C12.9468 38.6436 12.7762 38.7547 12.7182 38.8833C12.7071 38.907 13.0026 38.9095 12.7864 38.9943C12.5497 39.0873 11.5196 39.2463 11.783 39.2986C11.8885 39.32 13.1942 39.1122 12.5376 39.3193C12.7322 39.4275 12.4149 39.6273 12.6808 39.722C12.6926 39.7263 13.0582 39.6741 13.0562 39.6901C13.0527 39.714 12.8861 39.76 12.8782 39.7781C12.8406 39.8549 12.9974 39.887 12.9878 39.9558C12.9845 39.9818 12.808 40.0082 12.8041 40.0393C12.8003 40.0704 13.0343 40.0438 12.9311 40.1055C12.8523 40.1522 12.388 40.2762 12.3411 40.3266C12.8053 40.2353 12.8011 40.2643 12.9332 40.288C12.9588 40.2925 13.1183 40.2503 13.1387 40.2508C13.2255 40.252 13.095 40.2953 13.189 40.2941C13.2116 40.2939 13.37 40.2624 13.3974 40.2604C13.6364 40.2424 13.2895 40.3609 13.2291 40.3814C12.9997 40.4596 13.2087 40.4329 13.1206 40.4753C13.0326 40.5177 12.9095 40.5053 12.8588 40.5444C12.7539 40.6253 12.7943 40.6944 12.7987 40.7544C12.8015 40.7782 13.0097 40.72 13.0151 40.7224C13.0783 40.7599 12.8632 40.8537 13.2897 40.7962C12.2073 41.0475 13.4012 40.8042 13.197 40.9168C13.1804 40.9258 12.6668 41.0357 12.587 41.03C12.5073 41.0242 12.662 40.9604 12.5383 40.955C12.5093 40.9536 12.0188 41.0109 11.9885 41.0114C11.7516 41.0151 12.5201 40.8552 12.5619 40.8446C13.013 40.7282 12.4835 40.7841 12.4451 40.7786C12.2689 40.7536 12.3673 40.6828 12.2401 40.6579C12.1578 40.6414 11.6531 40.7391 11.6635 40.7112C11.698 40.6183 12.3955 40.4489 11.7702 40.4931C11.6368 40.5024 11.0891 40.6291 11.5104 40.4828C11.537 40.4736 11.9245 40.3498 11.6686 40.3743C11.6364 40.3774 11.4758 40.4096 11.4615 40.408C11.3685 40.397 11.4926 40.3524 11.4251 40.3336C11.3577 40.3148 11.2589 40.2957 11.3062 40.2494C11.3345 40.2215 11.6282 40.1343 11.6994 40.1094C11.9047 40.0384 11.5525 40.0767 11.8045 40.0077C12.0577 39.9383 12.4547 39.8956 12.6112 39.8152C12.1937 39.8968 11.7646 39.9785 11.3445 40.0595C11.3386 39.9534 11.453 39.8239 11.4138 39.7237C11.4085 39.7113 11.1868 39.7694 11.1754 39.7573C11.1281 39.7061 11.2778 39.6233 11.2021 39.5756C11.1426 39.5389 10.8949 39.5354 10.8252 39.4982C11.2967 39.3728 11.12 39.3324 11.1531 39.2709C11.1645 39.2494 11.2923 39.2252 11.3312 39.2037C11.4752 39.1234 11.0579 39.231 10.9888 39.2307C10.6938 39.229 11.6477 39.0331 11.6104 38.9692C11.6087 38.9658 11.0909 39.0231 11.0579 39.0233C10.8435 39.0258 11.2338 38.9815 11.2666 38.9496C11.3264 38.8915 11.4417 38.836 11.2822 38.8135C11.235 38.8071 10.9104 38.8339 11.1499 38.7553C11.1813 38.7449 11.3499 38.7135 11.3592 38.7084C11.5121 38.6188 10.9831 38.723 10.7976 38.7264C10.6121 38.7298 10.9671 38.6069 11.0702 38.5757C11.337 38.4947 11.1906 38.5728 11.2176 38.5689C11.5387 38.5224 11.4767 38.4968 11.498 38.4637C12.0155 38.356 11.9766 38.3233 11.518 38.4297C11.4679 38.4413 11.5206 38.4533 11.498 38.4637C10.9845 38.5408 10.9109 38.5112 11.3767 38.3689C11.595 38.3022 11.8589 38.2713 11.7504 38.2228C11.7014 38.2007 11.3468 38.2839 11.2441 38.2763C11.0098 38.259 11.3267 38.1124 11.2616 38.0595C11.238 38.0402 11.0471 38.1017 11.0242 38.0899C10.9628 38.0588 11.1021 37.9927 11.0186 37.9659C11.0108 37.9635 10.8081 38.0136 10.8029 38.0011C10.7594 37.9069 10.8731 37.7941 10.8561 37.6901C10.8478 37.6399 10.7172 37.5733 10.7296 37.5173C10.7498 37.4203 11.025 37.2498 10.9375 37.1878C10.8813 37.1471 10.6789 37.1989 10.5353 37.2054C10.2569 37.2181 10.7263 37.0485 10.7992 37.0238C10.8017 37.023 10.8584 37.0562 10.9589 37.0124C11.175 36.9554 10.8003 37.0241 10.7992 37.0238C10.8464 37.0077 10.8757 36.9129 10.8332 36.9034C10.8099 36.8984 10.6172 36.9423 10.6087 36.9389C10.4123 36.8583 10.34 36.753 10.4075 36.6189C10.411 36.616 10.6284 36.5759 10.6339 36.5697C10.7169 36.4834 10.4431 36.4932 10.2745 36.4687C10.106 36.4443 10.1499 36.3897 10.5155 36.2825C10.4603 36.2498 10.6128 36.1569 10.7057 36.1024C10.7987 36.048 10.3757 36.1274 10.3668 36.126C10.0809 36.0849 10.3114 35.9811 10.3293 35.8748C10.3385 35.8241 10.2587 35.7433 10.2025 35.702C10.1574 35.6694 10.2515 35.6256 10.1809 35.6015C10.1715 35.5982 9.98455 35.6407 9.97701 35.6406C9.74402 35.6444 10.2073 35.5726 10.2877 35.5477C10.5798 35.4571 10.7349 35.4062 10.5839 35.3812C10.5494 35.3754 9.88085 35.4716 9.83774 35.4571C9.78289 35.4379 10.0221 35.4016 9.95869 35.3828C9.95348 35.3811 9.80732 35.4108 9.81005 35.3909C9.82075 35.2984 9.8873 35.1884 9.85458 35.1006C9.85068 35.0886 9.62184 35.1506 9.61238 35.1339C9.56817 35.0556 9.55852 34.9623 9.65098 34.8597C9.67447 34.8343 9.8394 34.8144 9.88677 34.8005C10.1733 34.7158 9.74179 34.7627 9.73248 34.7581C9.49922 34.6506 9.85994 34.4585 9.64725 34.3442C9.63488 34.3381 9.16773 34.3654 9.552 34.2597C9.57759 34.2528 9.97081 34.145 9.69313 34.1744C9.67576 34.1762 9.47392 34.2347 9.48874 34.1998C9.50352 34.165 9.35658 34.1429 9.57385 34.0561C9.64228 34.0287 10.0339 33.9181 9.70889 33.9417C9.68624 33.9435 8.95693 34.0252 9.44744 33.9051C9.52819 33.8854 10.0526 33.7849 9.77475 33.7914C9.72091 33.7928 9.60735 33.8322 9.52972 33.8231C9.41021 33.8098 9.54064 33.7325 9.29846 33.734C9.2556 33.7344 8.89354 33.7716 9.15799 33.6913C9.19941 33.6787 9.37581 33.6519 9.39257 33.6339C9.47307 33.5481 9.34223 33.5014 9.44976 33.4098C9.48751 33.3774 9.77256 33.3335 9.84335 33.2935C9.91419 33.254 9.97676 33.1879 9.84239 33.1872C9.70793 33.1865 9.26323 33.3048 9.21932 33.2724C9.0286 33.1314 9.25956 32.9113 9.26402 32.7312C9.26476 32.7047 9.10774 32.7577 9.09728 32.721C9.05825 32.5871 8.85947 32.3766 9.17853 32.1903C9.43402 32.0408 9.66659 32.1192 9.76384 32.0244C9.81019 31.9789 9.27889 32.0445 9.26067 32.039C9.07651 31.988 9.29702 31.884 9.21102 31.8232C9.19319 31.8107 8.98391 31.8678 8.97108 31.8567C8.92539 31.8191 9.01085 31.7534 8.98511 31.7143C8.97309 31.697 8.81159 31.7323 8.82057 31.7119C8.84014 31.6633 8.9008 31.612 9.04455 31.5403C9.05765 31.5338 9.26439 31.5195 9.26566 31.4865C9.26714 31.4331 9.4046 31.3405 9.23831 31.313C9.18834 31.305 8.81762 31.3775 9.06626 31.29C9.11815 31.2716 9.56521 31.1942 9.172 31.226C9.10664 31.2312 8.57346 31.2597 8.90066 31.1578C8.98676 31.1309 9.34613 31.0348 9.28478 31.0253C9.27509 31.0242 9.07827 31.0749 9.05544 31.0614C8.97842 31.0131 8.98724 30.946 8.91257 30.8958C8.89218 30.8821 8.69117 30.948 8.66736 30.9265C8.60158 30.8672 8.63707 30.7708 8.6884 30.6913C8.70772 30.6619 8.88171 30.6453 8.89993 30.6399C9.19631 30.5516 8.78528 30.615 8.75963 30.6101C8.60577 30.5797 8.78801 30.4949 8.72645 30.4495C8.70996 30.4369 8.5177 30.486 8.49976 30.4863C8.32418 30.4881 8.67793 30.4429 8.71248 30.4154C8.81046 30.338 8.78267 30.2793 8.7469 30.2285C8.73347 30.2099 8.51256 30.2772 8.50312 30.26C8.44269 30.1578 8.44141 30.0372 8.54499 29.9072C8.56489 29.8826 8.74095 29.8611 8.77979 29.8492C9.05166 29.7666 8.6648 29.7975 8.6268 29.7946C8.45339 29.7818 8.6035 29.7343 8.56712 29.7004C8.38717 29.538 8.44232 29.28 8.46966 29.0856C8.50455 28.8339 8.63436 28.6195 8.54734 28.3998C8.54205 28.3859 8.3138 28.4451 8.30628 28.4337C8.23199 28.3079 8.26552 28.1539 8.21413 28.0252C8.20582 28.0036 8.1954 27.9826 8.18211 27.9623C8.17448 27.9499 7.95907 28.0112 7.93946 27.9927C7.89771 27.9552 7.89913 27.8982 7.96089 27.8419C7.9906 27.8145 8.184 27.8066 8.21007 27.7798C8.27107 27.7167 8.27596 27.6575 8.23111 27.6132C8.21153 27.5944 7.99365 27.67 7.98567 27.6421C7.92656 27.4528 7.85137 27.2667 8.10497 27.0158C8.12235 26.9983 8.57592 26.901 8.48316 26.8887C8.35624 26.9102 8.20745 26.9381 8.07206 26.9625C7.946 26.6912 8.05221 26.3806 8.02472 26.0843C8.02354 26.0719 7.78535 26.1359 7.78184 26.1123C7.76078 25.9728 7.67021 25.8498 7.88653 25.6637C7.90759 25.6448 8.33508 25.5804 8.26351 25.5488C8.25046 25.5431 8.18326 25.4901 8.08772 25.4871C8.07337 25.4871 7.87621 25.5317 7.86694 25.5114C7.81677 25.3937 7.8413 25.2531 7.94437 25.0985C7.96124 25.0724 8.17751 25.0679 8.19143 25.0493C8.28959 24.9235 8.10995 24.8091 8.294 24.6317C8.41918 24.5146 8.79266 24.5379 9.15654 24.4807C9.20783 24.4729 9.21548 24.4239 9.42827 24.4224C9.96312 24.4164 10.5489 24.4286 11.119 24.4195C11.2417 24.4216 11.1095 24.3777 11.4062 24.4039C11.4261 24.4083 11.5247 24.4262 11.6253 24.4226C11.6949 24.4216 11.9112 24.4186 12.0003 24.4155C12.0892 24.4111 11.9079 24.4133 12.0123 24.4052C12.118 24.3969 12.3637 24.3822 12.3922 24.3731ZM11.121 35.858C11.3172 35.7853 10.574 35.9286 10.7585 35.9281C10.7683 35.9279 11.1114 35.8616 11.121 35.858ZM12.013 39.7127C12.3319 39.6053 11.8448 39.6728 11.5979 39.753C11.3513 39.833 11.9163 39.7453 12.013 39.7127ZM12.3388 40.0993C12.5871 39.9987 11.5331 40.2015 11.7564 40.2114C11.769 40.2121 12.3244 40.1052 12.3388 40.0993ZM9.27223 24.6683C9.28218 24.667 9.28907 24.6342 9.27909 24.6339C9.03792 24.6357 9.0247 24.7065 9.27223 24.6683ZM12.6853 40.4785C12.8246 40.4347 12.6514 40.4236 12.4782 40.478C12.3388 40.5218 12.512 40.533 12.6853 40.4785ZM11.5798 34.0271C11.5908 34.0244 11.597 34.0038 11.5346 34.0167C11.3334 34.058 11.3954 34.0725 11.5798 34.0271ZM12.844 41.209C12.8619 41.0927 13.7182 40.8532 13.6437 40.9908C13.6302 41.0157 13.3572 41.0002 13.2843 41.043C13.1514 41.1214 13.7039 41.0452 13.4216 41.1545C13.3699 41.1744 12.841 41.216 12.8427 41.2091C12.8431 41.209 12.8436 41.209 12.844 41.209ZM12.0088 35.6615C12.0185 35.6589 12.0227 35.6312 12.0128 35.6326C11.7744 35.6656 11.7659 35.7214 12.0088 35.6615ZM11.8233 32.852C11.8439 32.8464 11.8515 32.7824 11.8319 32.7843C11.4402 32.8295 11.4237 32.9591 11.8233 32.852ZM12.8978 37.2851C13.1404 37.2658 13.1751 37.2938 12.8819 37.3757C12.8921 37.3446 12.8888 37.3161 12.8978 37.2851Z" fill="black"/>
<path d="M0.427228 34.7172C0.984714 34.1067 1.26898 34.117 1.51685 34.0831C1.59149 34.0797 1.62202 34.2142 1.67144 34.2199C1.76859 34.2309 1.8091 34.1398 1.90335 34.1656C1.93514 34.1747 1.99322 34.3815 2.02415 34.3867C2.18563 34.4177 2.27748 34.3206 2.41169 34.3149C3.06612 34.2922 3.60108 34.1924 4.17103 34.1016C4.3558 34.0728 4.62978 34.1852 4.78509 34.0457C4.80268 34.0294 4.73239 33.8562 4.73156 33.8403C4.72078 33.5962 4.81695 33.9609 4.87338 33.9951C4.94307 34.037 5.00982 34.0616 5.07336 34.0718C5.20676 34.0969 5.32613 34.0509 5.42004 33.9688C5.47585 33.9183 5.29757 33.5863 5.42692 33.7633C5.43579 33.7752 5.47926 33.9693 5.50371 33.9836C5.55894 34.0159 5.62684 33.9572 5.66414 33.9618C5.73564 33.9719 5.74799 33.9659 5.80513 33.9502C5.88494 33.93 6.00921 33.9941 6.08271 33.924C6.09824 33.9084 6.0128 33.7224 6.03214 33.6802C6.05267 33.6376 6.13285 33.6305 6.1732 33.668C6.21331 33.7056 6.24995 33.8614 6.26544 33.8949C6.39496 34.1778 6.35689 33.7418 6.36548 33.728C6.52429 33.4898 6.77345 33.6676 6.97044 33.6062C7.11685 33.5599 7.25832 33.4324 7.40033 33.4004C7.57265 33.3623 7.75079 33.423 7.9078 33.3554C7.92461 33.3485 7.83485 33.1263 7.85527 33.1173C8.07467 33.0216 8.30231 32.9799 8.57564 33.0658C8.60264 33.0747 8.63445 33.284 8.66503 33.305C8.85068 33.4289 9.18811 33.7595 9.00772 32.8609C9.11035 32.8673 9.23386 32.8688 9.3702 33.02C9.45805 33.1173 9.47111 33.3517 9.50945 33.2385C9.51819 33.2133 9.44144 33.0275 9.45889 33.0041C9.53295 32.9055 9.65241 32.9377 9.71618 32.8109C9.72896 32.7846 9.67259 32.6145 9.66874 32.5819C9.63916 32.3181 9.83783 32.7096 9.8632 32.7348C10.0556 32.9217 10.1184 32.807 10.2363 32.7779C10.2637 32.7713 10.1633 32.55 10.1872 32.5353C10.3122 32.4622 10.4571 32.4408 10.6187 32.5044C10.6549 32.5191 10.6862 32.7236 10.7064 32.7407C10.795 32.8136 10.6988 32.4382 10.7818 32.5009C10.7992 32.5137 10.8419 32.684 10.8496 32.7019C10.971 32.9815 10.8806 32.5612 10.8871 32.5494C10.9662 32.3911 11.1665 32.7987 11.2604 32.7049C11.2715 32.6933 11.1786 32.4892 11.2137 32.4694C11.4477 32.3365 11.7292 32.3174 12.0275 32.4151C12.0737 32.43 12.0931 32.5981 12.1013 32.6171C12.2312 32.9139 12.1357 32.4933 12.1437 32.474C12.2101 32.333 12.4042 32.6524 12.3277 32.1405C12.7978 32.1884 13.1357 31.7901 13.681 32.1102C13.6878 32.1138 13.7374 32.3202 13.7507 32.3264C13.911 32.4039 13.7948 32.0945 13.7668 31.683C13.7597 31.5797 13.96 32.0283 13.9755 32.0609C14.0329 32.1811 14.099 32.4904 14.1131 32.5128C14.2264 32.6881 13.927 31.6888 14.0048 31.6659C14.0077 31.6668 14.0508 31.8543 14.0627 31.8707C14.0996 31.9224 14.0986 31.8433 14.1368 31.901C14.2247 32.0348 14.3816 32.5171 14.3689 32.2137C14.3671 32.1744 14.1894 31.6098 14.2665 31.6166C14.2972 31.6198 14.4177 31.5745 14.4627 31.6015C14.5077 31.6283 14.5369 31.8184 14.5416 31.8256C14.7041 32.0412 14.6979 32.1517 14.8476 32.4971C14.9968 32.8411 14.7384 31.9925 14.7298 31.8919C14.7214 31.7916 14.8466 31.972 14.8831 32.0368C14.9197 32.1015 14.9326 32.2239 14.9587 32.259C15.1307 32.4878 14.88 31.8235 14.8734 31.6789C14.8579 31.3365 15.0993 31.9515 15.1869 31.9934C15.2106 32.0047 15.1538 31.8651 15.1667 31.8468C15.2185 31.7763 15.3151 31.9621 15.3386 31.7595C15.3422 31.7266 15.2951 31.3286 15.4149 31.5962C15.4321 31.6348 15.4613 31.797 15.4999 31.8241C15.5577 31.8649 15.6441 31.8774 15.6745 31.8117C15.6969 31.7631 15.584 31.5144 15.6494 31.583C15.6785 31.6136 15.6872 31.7755 15.7383 31.8204C15.7893 31.8653 15.8761 31.8332 15.9096 31.8179C15.9425 31.8027 15.8673 31.6111 15.8663 31.5971C15.8614 31.5162 15.9002 31.4024 15.906 31.4009C16.1914 31.2933 16.5568 31.5483 16.8099 31.3575C16.83 31.3428 16.7559 31.1392 16.7584 31.1348C16.8106 31.0259 16.907 31.5957 17.0132 31.7654C16.8856 31.3458 16.939 31.4132 16.9798 31.3516C16.9993 31.3216 16.9388 31.1623 16.9364 31.1449C16.9045 30.8859 17.0222 31.1988 17.0476 31.2624C17.1414 31.4963 17.0882 31.2036 17.1511 31.3599C17.2136 31.515 17.2413 31.7633 17.2916 31.7458C17.2632 31.5907 17.1132 31.2069 17.1341 31.1319C17.2172 30.847 17.576 31.0799 17.7076 31.0775C17.8363 31.0759 17.8664 31.0373 17.9506 31.0725C18.1019 31.1365 17.975 30.8561 18.0155 30.7C18.0565 30.5438 18.2209 31.2753 18.2758 31.4271C18.3304 31.5789 18.2976 31.4161 18.3352 31.4973C18.3728 31.5786 18.3729 31.6923 18.414 31.7152C18.4551 31.7381 18.4649 31.4381 18.4307 31.2729C18.3581 30.9229 18.2179 30.5736 18.3374 30.6766C18.3443 30.6828 18.3819 30.8767 18.4057 30.8907C18.598 30.9942 18.7525 30.9607 18.9374 31.0483C18.9631 31.0605 19.0035 31.2767 19.0191 31.2862C19.1817 31.3863 19.0377 31.0431 18.9955 30.6289C19.1268 31.1591 19.2543 31.4703 19.3476 31.4477C19.3772 31.4406 19.3707 31.3742 19.3566 31.2878C19.3444 31.2101 19.326 31.1164 19.3223 31.035C19.3199 30.9831 19.4043 31.1296 19.3815 31.0195C19.3075 30.6596 19.16 30.2747 19.3011 30.4051C19.3074 30.4114 19.3475 30.6085 19.3655 30.6162C19.4819 30.6664 19.389 30.2943 19.4797 30.221C19.5525 30.163 19.7582 30.3488 19.8576 30.3609C20.0183 30.9533 20.0694 30.7935 19.9925 30.3757C20.0571 30.3759 20.1147 30.3353 20.1866 30.3763C20.2113 30.3902 20.2455 30.5651 20.253 30.5829C20.3696 30.8633 20.2887 30.4586 20.2972 30.4395C20.398 30.2493 20.5881 30.5209 20.6446 30.1896C20.6464 30.1777 20.5426 29.7641 20.6596 30.0549C20.6675 30.075 20.6745 30.2741 20.7407 30.2717C20.8057 30.2697 20.9851 30.4579 21.0205 30.2438C21.0291 30.1922 20.9921 29.8437 21.104 30.0937C21.1191 30.1277 21.1446 30.2474 21.1705 30.3109C21.2539 30.5131 21.157 30.0929 21.2834 30.438C21.4098 30.7832 21.5457 31.0306 21.566 30.7638C21.5666 30.756 21.4995 30.4204 21.5291 30.4181C21.5762 30.4148 21.6572 30.4669 21.7019 30.4527C21.7233 30.4458 21.6551 30.2445 21.6579 30.2398C21.7764 30.0854 21.9263 30.2415 22.1092 30.2785C22.143 30.2856 22.1498 29.985 22.2663 30.191C22.3913 30.4172 22.59 31.4413 22.6673 31.1651C22.6966 31.0551 22.4458 29.7556 22.7156 30.3931C22.8755 30.1773 23.1437 30.4711 23.2849 30.1869C23.2913 30.1743 23.2327 29.809 23.2554 29.8086C23.2893 29.8088 23.3474 29.9719 23.3724 29.9775C23.479 30.005 23.5292 29.8412 23.6279 29.8413C23.6645 29.8411 23.6937 30.0173 23.7367 30.0174C23.7784 30.0176 23.7549 29.782 23.8361 29.8794C23.8972 29.9538 24.0489 30.4109 24.1164 30.4527C24.0126 29.9912 24.0513 29.9922 24.0935 29.8545C24.1013 29.8279 24.0506 29.6706 24.0524 29.6497C24.0592 29.5611 24.1127 29.6889 24.1161 29.5935C24.1169 29.5705 24.0819 29.4128 24.0808 29.3851C24.0709 29.1435 24.2177 29.483 24.2425 29.5424C24.3395 29.767 24.315 29.5572 24.3691 29.6422C24.4229 29.7273 24.3983 29.8538 24.4495 29.9013C24.5575 29.9992 24.656 29.9514 24.7405 29.9411C24.7742 29.936 24.707 29.7298 24.7108 29.7242C24.7682 29.6562 24.8849 29.8662 24.8357 29.4378C25.1081 30.5156 24.8557 29.3236 24.9994 29.5212C25.0109 29.5372 25.1254 30.0499 25.1111 30.1315C25.0969 30.213 25.0197 30.0612 25.0025 30.1875C24.9983 30.2171 25.0435 30.7104 25.0422 30.7411C25.0309 30.9815 24.8624 30.2149 24.8502 30.1734C24.7192 29.7255 24.7597 30.2589 24.7505 30.2984C24.704 30.4799 24.6127 30.3868 24.5703 30.5187C24.5431 30.604 24.6495 31.107 24.6117 31.0992C24.4883 31.0734 24.289 30.3831 24.3187 31.0142C24.3246 31.1489 24.4738 31.6911 24.2933 31.2793C24.2826 31.2532 24.1274 30.8742 24.1515 31.1311C24.1545 31.1635 24.1919 31.323 24.1892 31.3377C24.1708 31.4334 24.1145 31.3126 24.0856 31.3836C24.0583 31.4543 24.029 31.557 23.9663 31.5149C23.9296 31.4895 23.8211 31.2018 23.7893 31.1327C23.6991 30.9331 23.737 31.2869 23.652 31.0394C23.5653 30.791 23.5202 30.3926 23.4142 30.2443C23.5126 30.6582 23.6107 31.0838 23.7084 31.5004C23.5601 31.5212 23.3886 31.4221 23.2476 31.4769C23.2301 31.4842 23.3045 31.7013 23.2872 31.7148C23.2173 31.7699 23.1051 31.6301 23.0376 31.7143C22.987 31.78 22.9738 32.0334 22.9221 32.1098C22.7606 31.6486 22.6996 31.8351 22.6151 31.8111C22.586 31.8028 22.5549 31.6765 22.5262 31.6402C22.4181 31.5062 22.5588 31.9142 22.5571 31.9846C22.5494 32.2853 22.2933 31.3457 22.2055 31.3936C22.2008 31.3959 22.271 31.9141 22.2706 31.9476C22.2698 32.1659 22.2156 31.7753 22.1714 31.7473C22.0891 31.6965 22.0175 31.5873 21.9833 31.7537C21.9736 31.8028 22.0056 32.1291 21.899 31.8985C21.8851 31.8683 21.844 31.7017 21.8369 31.6932C21.7156 31.5522 21.8528 32.0736 21.8551 32.2619C21.8575 32.4502 21.6906 32.1097 21.6482 32.01C21.5383 31.7522 21.6465 31.8877 21.6414 31.8609C21.5817 31.5414 21.5436 31.6094 21.4978 31.5933C21.3553 31.0843 21.3097 31.1294 21.4513 31.5786C21.4669 31.6277 21.4839 31.5721 21.4978 31.5933C21.5989 32.1032 21.5577 32.183 21.365 31.7331C21.2745 31.5222 21.2356 31.2584 21.1648 31.3778C21.1331 31.4317 21.2452 31.7784 21.234 31.8843C21.2094 32.1255 21.0051 31.8291 20.9316 31.9046C20.905 31.932 20.9882 32.1158 20.9719 32.1411C20.9286 32.209 20.8379 32.0788 20.7988 32.1688C20.7953 32.1772 20.8634 32.3748 20.8457 32.3824C20.7116 32.4442 20.5612 32.3469 20.412 32.3842C20.3437 32.4012 20.2503 32.5463 20.1707 32.5443C20.0327 32.5422 19.803 32.2911 19.7125 32.3928C19.6944 32.4129 19.6887 32.4456 19.6897 32.4855C19.6928 32.5744 19.7285 32.6993 19.7346 32.7996C19.7519 33.0807 19.5177 32.6337 19.4832 32.564C19.4821 32.5617 19.529 32.4976 19.4682 32.4034C19.3896 32.1936 19.4836 32.5629 19.4832 32.564C19.4611 32.5189 19.3272 32.5071 19.3134 32.5524C19.3061 32.5771 19.3665 32.7654 19.3619 32.7746C19.2531 32.9886 19.1006 33.0835 18.9158 33.0394C18.9119 33.0363 18.8564 32.8223 18.8479 32.8178C18.7278 32.7494 18.7404 33.0268 18.7055 33.2034C18.6696 33.3802 18.5956 33.3452 18.4467 32.9929C18.4015 33.0553 18.2718 32.9175 18.1953 32.8333C18.1189 32.7491 18.229 33.1652 18.227 33.1746C18.1674 33.4744 18.0261 33.2584 17.877 33.2608C17.8056 33.2613 17.6927 33.3581 17.6353 33.4233C17.5899 33.4756 17.5286 33.3882 17.4945 33.4649C17.4898 33.4752 17.5492 33.6575 17.5491 33.6652C17.554 33.9022 17.4537 33.4437 17.4189 33.3666C17.2926 33.0863 17.2206 32.9383 17.1863 33.0968C17.1783 33.1332 17.3137 33.7959 17.2937 33.8426C17.2672 33.9021 17.2162 33.6653 17.1901 33.7336C17.1878 33.7393 17.2294 33.8825 17.2016 33.8836C17.0729 33.8905 16.9159 33.8451 16.7955 33.895C16.7788 33.9013 16.8657 34.1225 16.8426 34.1353C16.7346 34.1953 16.6025 34.224 16.4599 34.1497C16.4245 34.1307 16.3963 33.9665 16.3767 33.9209C16.2577 33.6455 16.3242 34.0762 16.3177 34.0866C16.1672 34.3459 15.9007 34.0153 15.7406 34.2552C15.7321 34.269 15.7715 34.74 15.6218 34.3694C15.6117 34.3448 15.4601 33.9653 15.5026 34.2424C15.5053 34.2597 15.5875 34.4539 15.5393 34.4456C15.491 34.4373 15.4614 34.5914 15.3392 34.3872C15.3007 34.3229 15.1444 33.9457 15.1788 34.2724C15.1814 34.2951 15.2987 35.0224 15.1284 34.5464C15.1004 34.4681 14.9574 33.9536 14.9677 34.2356C14.9698 34.2902 15.0257 34.398 15.0133 34.479C14.9944 34.6038 14.8874 34.4859 14.8911 34.7324C14.8919 34.776 14.9462 35.1375 14.8325 34.8841C14.8147 34.8444 14.7763 34.67 14.751 34.6565C14.6306 34.5917 14.5666 34.7344 14.4374 34.6435C14.3918 34.6116 14.3287 34.3299 14.2722 34.2659C14.2156 34.2019 14.1243 34.1511 14.1243 34.2882C14.1244 34.4254 14.2925 34.8547 14.2478 34.906C14.0541 35.1285 13.7425 34.9386 13.4935 34.9702C13.4565 34.9749 13.5318 35.1241 13.4807 35.1423C13.2924 35.2099 13.0045 35.4547 12.7402 35.1684C12.528 34.9392 12.6361 34.6856 12.502 34.6063C12.4374 34.5687 12.5346 35.0966 12.5274 35.1162C12.4596 35.3141 12.3124 35.1109 12.2288 35.2111C12.2116 35.2319 12.2938 35.4332 12.2784 35.4486C12.2262 35.5031 12.133 35.4299 12.0782 35.4645C12.0538 35.4805 12.1054 35.6375 12.0772 35.6326C12.01 35.6225 11.9382 35.5713 11.837 35.4396C11.8277 35.4277 11.8048 35.22 11.7591 35.2256C11.6855 35.235 11.5534 35.1147 11.5169 35.2901C11.5062 35.3427 11.6124 35.7052 11.4865 35.4704C11.4602 35.4214 11.3453 34.9824 11.3962 35.3761C11.4044 35.4415 11.4537 35.9783 11.307 35.6664C11.2683 35.5843 11.129 35.2384 11.1165 35.303C11.1152 35.3131 11.1887 35.5029 11.1702 35.5291C11.1041 35.6178 11.0091 35.6234 10.9405 35.7101C10.9223 35.7336 11.0166 35.9246 10.9876 35.9533C10.9088 36.0321 10.7729 36.0168 10.6614 35.9814C10.6201 35.9681 10.5941 35.7943 10.5861 35.7769C10.458 35.4939 10.5531 35.8992 10.5468 35.9263C10.5057 36.09 10.3875 35.9216 10.3251 35.9942C10.3079 36.0137 10.3797 36.199 10.3806 36.2172C10.3864 36.3956 10.3169 36.045 10.278 36.0157C10.1688 35.9325 10.0875 35.9734 10.0173 36.0209C9.99156 36.0387 10.0895 36.2491 10.0657 36.2625C9.92542 36.3459 9.75946 36.3729 9.57629 36.2958C9.54162 36.2809 9.50796 36.1063 9.49053 36.0693C9.36926 35.8106 9.42068 36.1979 9.41788 36.2371C9.40454 36.4163 9.3354 36.2738 9.28958 36.3181C9.06878 36.5368 8.71187 36.537 8.44146 36.5528C8.0945 36.5727 7.79057 36.4902 7.49469 36.6278C7.47602 36.6362 7.56538 36.8549 7.55021 36.8651C7.34748 36.9875 7.1083 36.9659 6.90896 37.1C6.89278 37.1105 6.98539 37.3152 6.96175 37.3392C6.91387 37.3899 6.83756 37.4013 6.75508 37.3527C6.71549 37.3293 6.6968 37.1344 6.65811 37.1145C6.56792 37.0678 6.49083 37.0757 6.43387 37.1314C6.40982 37.1556 6.5227 37.3591 6.48614 37.3735C6.38111 37.4167 6.28094 37.4613 6.178 37.4858C6.01488 37.5256 5.84967 37.5196 5.636 37.4041C5.612 37.3907 5.4506 36.9556 5.44132 37.0524C5.47907 37.1755 5.52692 37.3191 5.56905 37.45C5.22173 37.6435 4.7976 37.6184 4.43623 37.7233C4.42143 37.7276 4.53032 37.9495 4.50235 37.959C4.33222 38.0172 4.20334 38.1384 3.95852 37.973C3.93418 37.9571 3.78103 37.5527 3.75945 37.6319C3.75648 37.6459 3.70863 37.7278 3.72832 37.8213C3.73157 37.8353 3.82065 38.0167 3.8026 38.0306C3.69594 38.1083 3.56718 38.1165 3.45267 38.0375C3.43397 38.0244 3.3441 37.8289 3.32925 37.8183C3.22613 37.7291 3.27013 37.9628 3.41977 37.524C3.51882 37.1648 3.13432 37.0369 2.83734 36.8051C2.79799 36.7683 2.80205 36.6668 2.58671 36.6729C2.05125 36.6658 1.47073 36.5687 0.900106 36.5557C0.772326 36.6047 0.905494 36.7418 0.608735 36.6637C0.599149 36.6601 0.56819 36.6274 0.53401 36.5372C0.498783 36.4509 0.470302 36.3098 0.434494 36.2419C0.385781 36.1438 0.13634 36.2543 0.0955234 36.0487C0.0657694 35.8213 0.313808 35.68 0.366856 35.4008C0.413674 35.1461 0.173153 35.034 0.427228 34.7172ZM17.8535 32.4571C17.7526 32.2709 17.952 33.001 17.951 32.8131C17.9507 32.8032 17.8585 32.4662 17.8535 32.4571ZM23.2496 30.8685C23.1112 30.5589 23.19 31.0453 23.2938 31.2851C23.3969 31.5247 23.2914 30.9624 23.2496 30.8685ZM23.8005 30.4832C23.6702 30.2437 23.9092 31.2901 23.9319 31.0617C23.9332 31.0487 23.808 30.4972 23.8005 30.4832ZM2.65563 36.9212C2.64879 36.9137 2.63827 36.9098 2.6458 36.9165C2.80926 37.0929 2.80773 37.1197 2.65563 36.9212ZM24.3467 30.085C24.294 29.948 24.2681 30.1256 24.3345 30.2957C24.3879 30.4326 24.4123 30.2555 24.3467 30.085ZM15.2908 32.3479C15.287 32.3373 15.2582 32.335 15.2763 32.3961C15.3348 32.593 15.355 32.5269 15.2908 32.3479ZM25.3831 29.8554C25.2211 29.8466 24.9515 28.9966 25.1406 29.0606C25.1748 29.0722 25.1302 29.3511 25.1849 29.4216C25.2848 29.5501 25.2226 28.9948 25.3537 29.2728C25.3775 29.3237 25.3927 29.8578 25.3831 29.8566C25.3831 29.8562 25.3831 29.8558 25.3831 29.8554ZM17.5803 31.5895C17.5767 31.5802 17.5382 31.5812 17.54 31.591C17.586 31.8277 17.6636 31.8258 17.5803 31.5895ZM13.6423 32.337C13.6344 32.3171 13.5451 32.3222 13.5479 32.3419C13.6138 32.7319 13.7945 32.7227 13.6423 32.337ZM19.8633 30.3763C19.8395 30.1321 19.8801 30.0914 19.9922 30.3755C19.9484 30.3708 19.9075 30.3796 19.8633 30.3763Z" fill="black"/>
</svg>
