<svg width="63" height="80" viewBox="0 0 63 80" fill="none" xmlns="http://www.w3.org/2000/svg">
<path d="M24.0753 6.49479C24.6596 7.33515 25.5709 8.28393 26.3234 8.98781C26.5557 9.20487 26.5924 8.96712 26.7585 9.11115C27.0797 9.38894 27.2702 9.75726 27.6049 10.0308C27.7164 10.1207 27.8247 9.80433 27.9364 9.90268C28.5413 10.4357 28.9773 11.0772 29.5377 11.661C32.3217 14.5658 34.9066 17.5485 37.5322 20.6183C38.4025 21.6371 39.6097 22.7431 40.3591 23.8951C40.4499 24.0342 40.1915 24.1094 40.1944 24.1469C40.2411 24.7235 40.5421 24.2868 40.7815 24.488C41.7368 25.2994 42.6037 26.4049 43.1273 27.3759C43.3365 27.7824 42.6837 27.6739 43.1323 27.876C43.1613 27.8887 43.345 27.6752 43.4195 27.7477C43.4701 27.7858 43.5438 27.9288 43.5114 27.8413C43.507 27.8068 43.4714 27.7844 43.4595 27.4925C43.4592 27.4206 43.464 27.3322 43.4852 27.2238C43.4935 27.1593 43.575 26.8585 43.7438 26.6465C43.9112 26.4178 44.1823 26.2336 44.4164 26.1568C44.5406 26.1143 44.6267 26.1009 44.6838 26.0925C44.7469 26.0838 44.8041 26.0801 44.8556 26.0794C45.2671 26.092 45.3234 26.1693 45.3609 26.1738C45.401 26.1911 45.4114 26.1977 45.4099 26.1963C45.2943 26.1273 45.1921 26.0699 45.118 26.0359C44.6387 25.8214 44.5646 25.7814 44.1183 25.5705C43.5054 25.2871 42.7185 25.1169 42.053 24.8437C41.9106 24.7846 42.1881 24.5856 41.9647 24.4679C41.7399 24.3471 41.092 24.1979 40.8595 24.2134C40.6283 24.2264 40.6748 24.457 40.6261 24.4963C40.2352 24.8283 39.606 24.1398 39.5007 24.1146C38.463 23.8565 37.6414 23.7643 36.2929 24.1206C35.845 24.2779 35.4002 24.4614 34.9023 24.91C34.4065 25.3271 34.0329 26.1958 34.0641 26.8349C34.2957 29.0238 35.2473 29.834 35.984 30.8071C36.9084 31.8481 37.8253 32.5415 38.7365 33.4535C38.8323 33.5484 38.4965 33.6706 38.6137 33.7874C39.871 35.0364 41.181 36.1653 42.5955 37.1663C42.7374 37.2663 42.7635 36.909 42.9166 36.9965C43.8499 37.5332 45.4554 38.2766 45.0384 39.5863C45.5681 40.0353 46.1795 40.587 46.7598 40.8708C46.7689 40.8755 46.778 40.8802 46.7871 40.8847C47.1877 41.0857 47.1368 40.5788 47.3901 41.045C47.4479 41.15 47.1483 41.2219 47.2501 41.3657C47.6788 41.9702 48.2957 42.4889 48.703 43.1041C48.7855 43.2298 48.5856 43.3691 48.5839 43.4293C48.5802 43.9272 49.4057 43.9361 49.525 43.9956C50.4323 44.4593 50.8482 45.0393 51.5021 45.6595C51.6548 45.8039 51.2518 45.8643 51.3909 46.0116C52.1136 46.7706 52.9178 47.4887 53.7683 48.0787C53.9576 48.2089 53.9905 47.865 54.0903 47.9166C54.526 48.1444 54.2531 48.599 54.6701 48.8271C54.7572 48.8753 54.8753 48.6644 54.9058 48.6571C55.3793 48.539 55.1749 49.1297 55.218 49.1857C55.767 49.9148 56.5976 49.8503 57.191 50.4848C57.2609 50.5605 56.8897 50.6314 57.1 50.8317C57.5806 51.2885 58.0619 51.7191 58.6003 52.158C58.6735 52.2174 58.7349 52.267 58.7838 52.3063C58.8133 52.3301 58.8505 52.3608 58.8707 52.3772C58.8747 52.3757 58.9646 52.4695 58.8355 52.3306C58.815 52.305 58.8444 52.3466 58.7656 52.2411C58.7359 52.1971 58.6948 52.1441 58.6343 52.0049C58.5986 51.871 58.4072 51.5913 58.6629 50.9771C58.7964 50.6857 59.0919 50.4491 59.3193 50.366C59.5512 50.2757 59.7141 50.275 59.8273 50.2772C60.0511 50.2897 60.1303 50.327 60.1964 50.3473C60.411 50.4317 60.3991 50.4457 60.4023 50.4432C60.4066 50.4458 60.4102 50.448 60.4131 50.4499C60.4248 50.4574 60.4283 50.4602 60.4287 50.4607C60.4299 50.4624 60.4123 50.451 60.4002 50.4433C60.38 50.4306 60.3517 50.4119 60.3174 50.3886C60.2451 50.3394 60.1983 50.3085 60.1229 50.2566C59.8684 50.0838 59.5737 49.8827 59.3169 49.7154C58.7709 49.3561 58.2203 49.0128 57.6635 48.6864C57.4112 48.5394 57.4394 48.8429 57.4083 48.8538C56.9103 49.0156 57.0925 48.4274 57.0344 48.3555C56.5225 47.7661 55.665 47.7194 55.67 46.8564C52.9576 45.0796 50.6283 42.8134 47.6912 41.3724C47.6544 41.3536 47.5415 41.6248 47.4688 41.5863C46.589 41.1242 47.0066 40.8851 46.8103 40.0619C46.7593 39.8539 45.9716 40.0802 45.9081 40.0925C45.6729 40.137 45.5541 40.5766 45.4902 40.5715C44.9712 40.5189 45.8692 39.4421 45.3869 39.0827C45.3703 39.0733 45.2804 39.3275 45.2244 39.3178C45.0497 39.2882 44.986 39.1133 44.8109 39.0939C44.7013 39.0823 44.5844 39.1093 44.4686 39.1419C44.1562 39.2265 43.8509 39.3507 43.7089 38.8891C43.6849 38.808 44.2382 38.2283 43.7814 37.941C43.6002 37.8273 42.8404 37.26 42.5926 37.1463C42.3468 37.0331 42.3458 37.3474 42.324 37.3453C41.5484 37.2062 41.6847 37.4765 41.1043 37.6781C40.5258 37.8794 41.2952 36.966 41.2527 36.7731C41.2087 36.5794 40.6212 36.5073 40.4602 36.5133C40.299 36.5189 40.3373 36.7442 40.212 36.7236C39.387 36.5852 40.2779 36.049 40.1814 35.7515C39.9499 35.046 39.07 35.5123 38.5787 35.2821C38.4446 35.219 38.6564 35.12 38.5593 35.0312C38.1746 34.6831 37.7642 34.7383 37.4183 34.2037C37.3611 34.1159 37.2616 33.4123 36.789 33.5676C36.7219 33.5907 36.7035 33.8419 36.4939 33.763C36.1805 33.6451 35.6611 33.3641 35.404 33.1112C35.2158 32.9254 35.6615 32.7811 35.3264 32.6996C35.1758 32.6628 35.2899 32.9877 35.017 32.9041C34.7469 32.8218 34.1662 32.4431 33.9463 32.2974C33.7257 32.1506 33.9943 31.9943 33.9859 31.9672C33.9329 31.8086 33.5709 31.4285 33.5318 31.4051C31.6107 30.1904 29.5883 29.5335 27.6411 28.4429C27.4891 28.3598 27.7149 28.1448 27.693 28.1294C27.6857 28.1241 27.6786 28.119 27.6717 28.1143C27.2333 27.8056 27.3027 28.67 26.8294 28.7247C27.1397 28.2208 26.8778 28.215 26.5468 27.9709C26.388 27.8525 26.5884 27.7 26.5833 27.671C26.4923 27.2326 26.1072 27.53 26.0162 27.5844C25.6845 27.7857 25.6963 27.3354 25.4716 27.4653C25.2453 27.592 25.3454 28.0328 25.003 27.8287C25.0146 27.5912 25.5426 27.2631 25.3336 27.0367C24.5502 26.1981 22.5932 25.3831 21.8236 24.8796C21.0591 24.3872 20.8434 24.18 20.3668 23.9296C19.5048 23.4774 20.0309 23.3527 19.646 22.8498C19.2541 22.3461 18.9214 23.3409 18.7271 23.4683C18.5344 23.5973 18.5869 23.3634 18.432 23.4012C18.2791 23.4404 18.3814 23.688 18.1555 23.588C18.029 23.5321 17.8659 23.2894 17.7543 23.0488C17.6147 22.8432 17.6382 22.5642 17.757 22.5592C17.9975 22.5338 18.2315 22.6531 18.3706 22.7394C18.5372 22.8509 18.3317 23.1603 18.4359 22.9682C18.452 22.9474 18.2504 22.7565 18.3261 22.685C19.117 22.0931 20.374 21.8394 21.4248 21.4212C21.5725 21.3639 21.3741 21.1058 21.4594 21.0691C22.3508 20.6864 22.118 21.2436 22.7491 21.6695C22.4757 20.9777 22.6699 20.4845 23.3504 20.3131C23.5285 20.2668 23.635 20.3022 23.7183 20.3724C23.7915 20.4613 23.8845 20.6186 24.1038 20.5835C24.2589 20.5414 24.1504 20.1601 24.289 20.1322C24.5431 20.0541 24.8006 20.0908 24.9746 20.0325C25.1444 19.9798 25.2478 19.739 25.0335 19.2872C25.0142 19.2507 24.7808 19.4339 24.7337 19.3062C24.4062 18.5637 24.8004 18.3002 24.4237 17.4915C24.4095 17.4629 24.3941 17.4337 24.3772 17.4039C24.0513 16.8124 23.083 16.0907 22.5591 15.5938C21.9542 16.1503 21.653 15.5413 21.8644 14.9474C21.5229 14.6279 21.1835 14.2517 20.8027 14.0021C20.6717 13.916 20.5829 14.1596 20.551 14.165C20.0603 14.2596 20.2876 13.7201 20.2272 13.636C19.5635 12.7527 18.621 12.5096 18.0922 11.5446C18.0737 11.5104 18.3907 11.0301 17.9138 11.18C17.8821 11.1913 17.9785 11.606 17.5938 11.318C17.2085 11.0294 16.3125 10.7002 15.9679 10.0753C15.8827 9.9232 15.8675 9.30959 15.3881 9.38162C15.3237 9.39193 15.2544 9.54793 15.1482 9.57815C14.8047 9.66976 15.0955 9.15861 14.5963 9.37838C14.098 9.59783 13.4669 9.54432 13.1955 8.82954C13.1852 8.80638 13.3837 8.36545 13.2272 8.22461C12.9956 8.01787 12.6263 7.76353 12.3919 7.51658C12.375 7.4989 12.3587 7.48141 12.3429 7.4641C12.2294 7.34012 12.5098 7.22345 12.4935 7.19843C11.7865 6.23674 10.9409 5.94927 9.89671 5.34191C9.70004 5.2268 9.41447 4.55552 8.90411 4.52848C8.41624 4.46902 7.97977 5.51268 7.34426 5.01378C7.21663 4.89202 7.12763 4.79052 6.98611 4.4289C6.95137 4.32688 6.92988 4.18722 6.93624 3.99653C6.9406 3.90252 6.95585 3.81434 6.9816 3.70075C7.00652 3.57541 7.05077 3.44376 7.11934 3.32132C7.24631 3.074 7.53143 2.85526 7.72475 2.83664C7.93438 2.7959 8.08413 2.84787 8.20691 2.89976C8.67477 3.13844 8.89411 3.38105 9.34986 2.95148C10.8684 3.34042 12.3296 3.22351 13.7592 3.86863C13.8253 3.89826 13.9256 4.42807 14.0855 4.4573C14.3237 4.49988 14.5022 4.30318 14.6728 4.32606C15.3896 4.41641 15.9894 4.75352 16.6745 4.86904C16.9345 4.91315 16.8945 4.66034 17.2039 4.71178C17.5118 4.76262 17.6557 5.11405 18.1025 5.0473C18.4415 4.99571 18.8758 4.42366 19.298 4.42234C19.2023 5.04956 19.4919 5.09003 19.9794 5.3362C20.0736 5.38374 19.9332 5.58554 19.9762 5.6193C20.1516 5.76165 20.353 5.60611 20.5212 5.75432C20.5618 5.78992 20.5348 6.00502 20.5667 6.04622C20.6333 6.13459 20.7189 6.17567 20.8105 6.1858C20.8201 6.18737 20.8491 6.18926 20.8587 6.19017C21.1336 6.2017 21.4539 5.92977 21.5239 5.87052C21.8791 5.57181 22.0143 5.86522 22.2788 5.75952C22.5453 5.65456 22.1755 5.46394 22.4817 5.41271C23.1169 5.30683 23.9153 5.42887 24.5471 5.50847C24.7986 5.54147 24.5861 5.80361 24.6212 5.81497C25.1228 5.96031 25.7014 5.7494 25.8755 6.36998C26.5148 4.97754 26.1568 6.56582 26.9318 6.4373C26.993 6.4271 27.2332 5.75924 27.0309 5.60565C26.8275 5.45212 26.439 5.59336 26.157 5.37469C26.0919 5.32253 25.7779 4.59378 25.7225 4.54448C25.302 4.15572 25.0728 5.18911 25.0411 5.2421C24.6761 5.81629 24.2597 5.04221 24.1236 4.97637C23.5178 4.67353 22.9614 4.76771 22.4463 4.5626C22.1087 4.43033 22.1259 3.74013 21.848 3.74103C21.498 3.74262 21.2273 3.88099 20.9826 4.00366L21.0813 4.0126C20.7045 4.1906 20.365 4.31982 19.9523 3.72737C19.8106 3.5229 20.1086 2.81115 19.3989 3.28829C19.3569 3.31916 18.7983 3.7684 18.599 3.37962C18.574 3.3307 18.6171 3.11521 18.5769 3.08857C18.3063 2.91387 18.0791 3.04666 17.7746 2.89811C17.4723 2.74991 17.1128 2.54544 16.73 2.53815C16.4994 2.5335 16.1255 2.87004 15.9972 2.94419C15.6316 3.15874 15.4143 2.62455 15.148 2.92296C14.8813 3.22306 15.1337 3.82718 14.5877 3.93668C14.6951 3.37564 14.7822 2.79455 14.8794 2.22786C13.7835 2.0017 12.6621 1.93252 11.5255 1.68422C11.381 1.65251 11.5881 1.3798 11.4331 1.33802C10.7799 1.16771 10.1791 1.27551 9.36839 1.12238C9.02509 1.07147 8.72109 0.929611 8.03154 0.933553C7.69952 0.983648 7.12998 0.873251 6.1916 1.78892C5.71276 2.2948 5.46864 3.0869 5.48519 3.65215C5.49731 4.22415 5.59697 4.49927 5.70595 4.79478C5.89482 4.93508 6.07631 5.08081 6.25277 5.22456C6.4044 5.33103 6.54606 5.44209 6.6892 5.56403C7.23539 6.03033 7.62363 6.40059 7.97959 6.62448C8.17218 6.74131 8.26131 6.58959 8.41733 6.6322C8.99302 6.78504 8.44356 7.10144 8.51424 7.26333C8.79501 7.93963 9.59403 6.89613 10.1288 7.34385C10.1626 7.36962 10.0581 8.1785 10.0646 8.2433C10.143 8.68228 10.2667 8.0956 10.466 8.20152C10.7341 8.34672 10.9752 8.42738 11.1372 8.65473C11.2179 8.76053 11.2945 8.88402 11.3688 9.03607C11.4469 9.20642 11.4554 9.83114 11.9414 9.82789C12.0044 9.82705 12.1446 9.64274 12.18 9.65766C12.8085 9.93768 12.336 10.4794 12.4526 10.9113C12.5739 11.3457 13.3288 11.3311 13.5073 11.2927C13.9747 11.1993 13.4355 11.0244 13.4476 10.986C13.5862 10.533 13.8459 10.8529 14.1049 11.0206C14.5929 10.5044 14.8935 10.8086 14.372 11.1967C14.3142 11.2385 14.1725 11.035 14.1049 11.0206C13.8657 11.7277 14.1785 12.1014 14.9874 11.9211C15.3663 11.8364 15.4144 11.4178 15.8966 11.9766C16.115 12.2294 15.7096 12.5293 15.8495 12.8145C16.1705 13.4664 17.1158 13.6515 17.5795 14.1389C17.7473 14.3154 17.3948 14.3668 17.5027 14.494C17.7869 14.8315 18.2075 14.9313 18.4613 15.2968C18.4838 15.33 18.2263 15.4748 18.323 15.5665C19.0477 16.2654 19.7943 16.7367 20.4733 17.4845C20.8058 17.846 21.2185 18.6017 21.5093 18.9715C21.5845 19.0653 21.6661 19.1583 21.7511 19.2512C21.9146 19.3895 22.1473 19.6412 22.2805 19.8294C22.3486 19.9209 22.3903 20.0027 22.4051 19.992C22.4309 19.9863 22.3795 19.8374 22.5851 19.4591C22.851 19.0291 23.1751 18.8884 23.2707 18.7889C23.15 18.7034 23.0994 18.5543 22.9539 18.4669C22.5106 18.2013 21.9051 19.0088 21.822 19.1315C21.82 19.1356 22.2769 19.1036 22.0709 19.2956C21.9961 19.6183 21.8275 19.1316 21.822 19.1315C21.7716 19.2105 20.8793 19.4652 20.6818 19.454C20.576 19.4471 20.5752 19.1758 20.521 19.1772C19.8733 19.198 19.2255 19.2644 18.5234 19.4291C18.1689 19.5147 17.8106 19.6162 17.3643 19.8071C17.132 19.9118 16.8982 20.0111 16.5097 20.2842C16.4185 20.3504 16.3022 20.44 16.1732 20.5609C16.0541 20.6737 15.89 20.8417 15.7266 21.0901C15.5799 21.3074 15.3638 21.7371 15.3093 22.2172C15.2387 22.7208 15.3631 23.2798 15.5328 23.6231C15.6346 23.8121 15.7552 23.4293 15.9846 23.8002C16.1492 24.0377 16.3262 24.2021 16.4532 24.3067C16.5731 24.4047 16.6838 24.4805 16.7877 24.546C17.2502 24.8214 17.4129 25.3062 17.7146 25.7519C18.0594 26.2606 18.4824 26.4793 19.0679 26.2743C19.3951 26.5907 20.0602 26.7937 20.4486 26.9026C20.8361 27.0111 20.5481 27.5139 20.5686 27.5425C21.223 28.4486 21.9252 28.5307 22.8995 29.0884C23.3625 29.3545 24.2416 29.9742 24.7394 30.3111C25.1304 30.5801 25.4461 30.5902 25.8017 30.8607C25.8502 30.8971 25.6836 31.102 25.6957 31.1189C26.0121 31.6122 26.066 30.9401 26.2053 30.8821C26.2908 30.8459 26.3701 30.8124 26.4451 30.7841C26.7657 30.6235 27.0149 30.6038 27.3429 30.9458C27.4382 31.0423 27.3444 32.0106 27.5164 32.1612C27.7401 32.3552 27.802 32.0206 28.0322 32.2334C28.0525 32.2517 27.9515 32.4243 28.1246 32.5084C28.9174 32.8963 29.8316 33.2894 30.6261 33.7888C30.7352 33.8565 30.4308 34.044 30.5857 34.1465C31.3124 34.6268 32.132 35.1219 32.9324 35.4549C33.1291 35.5354 33.1379 35.2776 33.2117 35.2464C33.6642 35.061 33.6873 35.7658 33.7357 35.8104C34.9013 36.896 36.1927 37.1275 37.3783 38.244C37.4435 38.3063 37.6417 39.1988 38.1914 38.9322C38.2281 38.9144 38.785 38.6374 38.787 39.0947C38.7869 39.1232 38.4747 39.2472 38.7544 39.4086C39.0353 39.5711 39.3497 40.0232 39.892 40.0311C40.0622 40.0332 40.6508 39.7846 40.7389 40.3832C40.7432 40.4235 40.6934 41.5987 41.2765 41.1864C41.3724 41.1185 41.7626 40.5157 41.9521 41.1097C41.9873 41.2239 41.7531 41.2502 41.8968 41.4795C42.01 41.661 42.2047 41.7888 42.3937 41.9449C42.569 42.0897 42.7412 42.2607 42.8367 42.5243C42.873 42.6216 42.8624 43.2198 43.313 43.0955C43.3836 43.0761 43.4582 42.8333 43.5956 42.9025C44.2462 43.2278 44.7518 43.8071 45.4344 44.1139C45.6754 44.2226 45.8026 43.8343 46.0803 43.9139C46.3592 43.9944 46.8513 44.2411 46.9706 44.5529C47.0893 44.8644 46.4716 45.1698 46.7786 45.4639C48.1138 46.7434 49.7812 47.5597 51.2749 48.635C51.4966 48.7946 51.1838 48.8331 51.4986 49.0791C52.6674 49.9933 54.5733 51.7157 55.8803 52.125C56.9353 52.4588 56.0783 51.4446 56.7903 51.7962C57.147 51.9768 57.0401 52.7955 57.0982 52.8679C57.3355 53.1607 57.5704 53.3458 57.8492 53.5268C57.9074 53.5635 57.9953 53.6197 58.0738 53.6666C58.106 53.6846 58.1668 53.7244 58.2722 53.7884C58.3001 53.8052 58.3321 53.8244 58.38 53.8517C58.377 53.8462 58.4194 53.8876 58.6978 54.0136C58.7746 54.0462 58.8708 54.0873 59.0468 54.1376C59.2312 54.1797 59.467 54.2734 60.0706 54.2237C60.3702 54.19 60.8017 54.1024 61.2824 53.7878C61.7631 53.4848 62.2031 52.9009 62.3641 52.3697C62.6734 51.2682 62.3841 50.7794 62.2988 50.4981C62.1809 50.2164 62.0937 50.0935 62.0286 49.994C61.9681 49.9042 61.8991 49.819 61.9089 49.8313C61.8929 49.8114 61.8785 49.7939 61.8652 49.7781C61.8385 49.7466 61.8164 49.7218 61.797 49.7005C61.6513 49.5448 61.6135 49.52 61.5611 49.4731C61.3504 49.3063 61.2619 49.2558 61.1097 49.1376C60.9978 49.0547 60.8844 48.9562 60.7642 48.8263C60.6604 48.7112 60.9656 48.59 60.8714 48.4911C60.5417 48.1426 60.089 47.9208 59.7607 47.6014C59.6176 47.4607 59.789 47.3161 59.6373 47.2053C59.2748 46.9369 58.9213 46.7474 58.4518 46.606C58.4097 46.5936 58.4265 46.9791 58.1726 46.7654C57.7592 46.4159 57.1252 46.1183 56.8114 45.543C56.7162 45.3691 57.0581 44.9952 56.529 44.9832C56.4186 44.9807 56.0808 45.4979 56.1024 44.8005C56.1035 44.6827 56.0228 43.6373 55.437 43.7123C55.2815 43.7311 54.7533 43.9171 54.6472 43.7081C54.634 43.6783 54.9087 43.5639 54.7943 43.4183C54.3895 42.9101 53.8819 42.4605 53.4714 41.9385C53.3616 41.7982 53.7463 41.781 53.5772 41.5789C53.1132 41.0235 52.43 40.4405 51.8774 40.0001C51.6732 39.8382 51.6308 40.1289 51.5995 40.1332C51.0915 40.2038 51.3673 39.6864 51.3215 39.592C51.0299 39.0083 50.5151 38.8449 50.1766 38.3784C50.0829 38.2501 50.3541 38.1516 50.3501 38.1125C50.3007 37.7175 50.1133 38.2185 49.9356 38.1031C49.9057 38.0838 49.8761 38.0639 49.8468 38.0434C49.3372 37.6662 48.8757 37.1643 48.476 36.7239C48.3175 36.5492 48.723 36.5163 48.5772 36.3613C47.7199 35.4439 46.7749 34.6106 45.8001 33.9481C45.6165 33.8242 45.5579 34.0924 45.4876 34.1016C44.9996 34.1691 45.0088 33.4774 44.9643 33.3702C44.7616 32.881 44.4828 32.9112 44.1989 32.5992C42.8141 31.0729 40.8943 29.4937 39.6779 28.2641C39.0075 27.5978 38.4333 26.9327 38.2414 26.6347C38.1964 26.5753 38.1859 26.549 38.1936 26.6597C38.1972 26.7547 38.2158 27.0614 38.0513 27.434C37.8922 27.8065 37.5957 28.0534 37.4755 28.1174C37.3475 28.1898 37.3422 28.1685 37.412 28.1497C37.243 28.1833 37.5175 28.1363 37.7196 28.1495C37.8188 28.1524 37.72 28.4684 37.804 28.4755C38.9538 28.5638 40.4125 28.7664 41.6365 29.3678C41.7369 29.4167 41.4758 29.6324 41.6299 29.7196C41.9445 29.9005 42.3565 30.0809 42.7205 30.1724C42.8986 30.2181 42.8127 29.8768 42.9917 29.9293C43.0581 29.949 43.1245 29.9715 43.1906 29.9968C43.2797 30.0443 43.3779 30.0941 43.4982 30.1475C43.5584 30.1743 43.6243 30.2019 43.699 30.2302C43.772 30.2569 43.8523 30.2896 44.0483 30.3439C44.2288 30.3916 44.4537 30.4406 44.768 30.4513C45.103 30.4351 45.3949 30.5189 46.2718 30.0997C47.0637 29.7081 47.6225 28.7878 47.7338 28.2216C47.8255 27.8477 47.829 27.5589 47.8178 27.3322C47.8048 27.105 47.7729 26.935 47.7402 26.793C47.7063 26.6517 47.6942 26.6192 47.6709 26.544C47.6284 26.4122 47.5865 26.3061 47.5458 26.2109C47.459 26.012 47.4243 25.9515 47.3651 25.8368C47.1567 25.4494 47.0196 25.2269 46.8771 24.9673C46.7422 24.7229 47.2213 24.8941 47.035 24.6054C45.7421 22.6569 44.5403 21.0701 42.913 19.6322C42.798 19.5304 42.2334 19.8193 42.1391 19.5077C42.2602 19.3826 42.4203 19.2575 42.5588 19.135C40.7462 16.6866 38.6877 14.4949 36.7415 12.1683C36.6603 12.0712 37.0542 12.0318 36.898 11.8424C35.9731 10.7204 35.1803 9.61225 33.9846 8.6774C33.8654 8.58327 33.4664 9.0111 33.265 8.62918C33.2306 8.56225 32.881 8.01737 32.8701 7.8066C32.8702 7.77686 33.1546 7.696 33.0271 7.52923C32.2908 6.57372 31.4349 5.63732 30.5384 4.81612C30.392 4.68245 30.3037 5.02749 30.1975 4.93382C29.4544 4.27809 28.9307 3.30524 28.1375 2.76155C27.6019 2.39369 27.3668 2.89031 26.7759 2.94727C26.6925 2.95537 26.433 2.66098 26.2005 2.82783C25.6157 3.24717 25.1337 3.89654 24.4959 4.32623C24.359 4.41938 24.1572 3.89991 24.0515 4.39514C24.0452 4.42918 24.1879 4.80697 24.1437 4.96502C24.1136 5.07481 23.8155 5.17051 23.8086 5.349C23.8017 5.52733 24.0818 5.48343 24.1134 5.74098C24.1434 5.99921 23.829 6.13769 24.0753 6.49479ZM22.2054 27.3833C22.6529 27.3508 22.1325 28.2247 21.947 27.8066C21.9388 27.7854 22.1827 27.3843 22.2054 27.3833ZM12.4968 2.69206C11.9547 3.03387 11.7853 2.3277 12.1707 2.05392C12.5646 1.78304 12.6609 2.58858 12.4968 2.69206ZM17.0004 4.02689C16.4121 4.26201 16.639 2.8373 17.1222 3.23906C17.1504 3.26191 17.0346 4.01321 17.0004 4.02689ZM27.6552 4.22217C27.6417 4.22707 27.4502 4.01739 27.4578 4.00559C27.6101 3.68425 27.9895 4.09959 27.6552 4.22217ZM21.4527 5.12289C21.2754 5.30589 20.8121 5.05382 21.0322 4.82392C21.2097 4.63845 21.6765 4.89479 21.4527 5.12289ZM38.2875 35.6836C38.3009 35.6744 38.4736 35.7757 38.4219 35.844C38.2558 36.0642 38.0693 35.8429 38.2875 35.6836ZM29.2545 6.11987C28.1374 6.16122 27.2627 7.25879 28.619 7.21545C28.8573 7.2018 28.1232 6.81216 28.4312 6.7199C28.9771 6.55087 29.3328 7.29602 29.8829 6.89634C29.9816 6.82325 29.3175 6.11592 29.2525 6.1182C29.2532 6.11876 29.2538 6.11932 29.2545 6.11987ZM23.0548 26.4847C23.0678 26.4775 23.3054 26.6208 23.3038 26.6355C23.2513 26.9881 22.7691 26.6975 23.0548 26.4847ZM48.1173 42.0416C48.1466 42.0278 48.6767 42.3948 48.6777 42.4287C48.6275 43.0517 47.5556 42.3114 48.1173 42.0416ZM22.5351 15.6C22.5684 15.1504 22.331 14.8423 21.8657 14.9481C22.0965 15.1553 22.3118 15.3808 22.5351 15.6Z" fill="#FAFAFA"/>
<path d="M54.8965 63.9363C54.6778 63.7653 54.3212 63.7398 54.0308 63.775C53.9399 63.7856 53.9192 63.9692 53.8538 63.9842C53.7259 64.0133 53.6579 63.8956 53.5268 63.9378C53.4831 63.9526 53.4308 64.2365 53.3871 64.2459C53.1484 64.2952 52.9864 64.161 52.7668 64.1478C51.6853 64.0833 50.6845 63.8435 49.6473 63.6152C49.3053 63.5397 48.8208 63.6431 48.5199 63.4169C48.4849 63.3903 48.5918 63.1626 48.5911 63.1405C48.5783 62.8011 48.4493 63.2914 48.35 63.3275C47.9562 63.4696 47.6087 63.3714 47.3467 63.1765C47.2355 63.0929 47.5264 62.6684 47.3076 62.887C47.2926 62.9017 47.2359 63.1636 47.1921 63.1782C47.0931 63.2108 46.9613 63.1139 46.8939 63.1125C46.7637 63.111 46.7454 63.1017 46.6345 63.0658C46.482 63.0188 46.2593 63.0803 46.1181 62.9666C46.0882 62.9416 46.2245 62.7008 46.185 62.6377C46.1455 62.5746 45.9924 62.5451 45.9221 62.5884C45.8517 62.6317 45.8013 62.841 45.7763 62.8842C45.567 63.2497 45.5899 62.6493 45.573 62.6283C45.259 62.2611 44.812 62.4499 44.4421 62.3184C44.1615 62.2179 43.8969 62.01 43.6246 61.9296C43.2998 61.8348 42.9806 61.8787 42.6795 61.7455C42.6476 61.7318 42.7925 61.4432 42.7538 61.4258C42.3424 61.241 41.9098 61.1254 41.4158 61.1804C41.3662 61.1861 41.3271 61.4706 41.2719 61.4923C40.9361 61.6188 40.3416 61.9979 40.5954 60.7888C40.4041 60.772 40.1748 60.7435 39.9357 60.9209C39.7817 61.035 39.778 61.3586 39.6972 61.1915C39.6789 61.1541 39.8047 60.9139 39.7704 60.877C39.6261 60.7219 39.4038 60.736 39.2749 60.5434C39.2489 60.5037 39.3386 60.2804 39.3429 60.236C39.3748 59.8754 39.0408 60.3722 38.996 60.401C38.6571 60.6145 38.5272 60.4376 38.3063 60.3678C38.255 60.3517 38.4224 60.0683 38.3769 60.0419C38.1395 59.909 37.8684 59.8428 37.5732 59.8905C37.5073 59.9019 37.4663 60.1792 37.4301 60.1979C37.2717 60.2772 37.4189 59.7781 37.2703 59.8447C37.2392 59.8581 37.174 60.0849 37.1611 60.1078C36.959 60.467 37.0923 59.904 37.0793 59.8859C36.9192 59.6454 36.58 60.1625 36.3978 60.0081C36.3763 59.989 36.5322 59.728 36.4655 59.6917C36.0213 59.4477 35.4953 59.3488 34.9492 59.4088C34.8644 59.4178 34.8417 59.6472 34.828 59.6716C34.61 60.0519 34.7542 59.4901 34.7377 59.4613C34.6032 59.2477 34.2675 59.643 34.3697 58.9494C33.4996 58.8955 32.8412 58.2533 31.8519 58.5579C31.8396 58.5611 31.7627 58.8357 31.7385 58.841C31.4459 58.9071 31.639 58.5064 31.6606 57.9404C31.6658 57.7983 31.3271 58.3712 31.3004 58.4125C31.2026 58.565 31.1023 58.9785 31.0778 59.0061C30.8801 59.2207 31.3637 57.9069 31.2175 57.8548C31.2121 57.8554 31.1456 58.1052 31.1248 58.125C31.0599 58.1874 31.0561 58.0775 30.9893 58.1479C30.8355 58.3113 30.5787 58.942 30.5799 58.5226C30.5805 58.4684 30.87 57.7285 30.7269 57.7177C30.6696 57.7141 30.4436 57.6199 30.3618 57.6456C30.2802 57.6713 30.2393 57.9282 30.2311 57.937C29.9446 58.1948 29.9638 58.3503 29.71 58.7919C29.4568 59.2318 29.8771 58.1179 29.8858 57.98C29.8943 57.8426 29.6739 58.0608 29.6103 58.1413C29.5466 58.2218 29.5316 58.3889 29.4855 58.4309C29.1814 58.7042 29.6011 57.8451 29.6031 57.6455C29.6086 57.1731 29.2031 57.9661 29.043 58.0013C28.9997 58.0108 29.0956 57.8314 29.0702 57.8025C28.9688 57.6906 28.8018 57.9237 28.7433 57.6353C28.7337 57.5882 28.7951 57.0471 28.5909 57.3881C28.5616 57.4373 28.5184 57.6553 28.4486 57.6829C28.3443 57.7245 28.1845 57.7191 28.1233 57.6195C28.0781 57.5459 28.2713 57.2297 28.1541 57.3078C28.102 57.3427 28.097 57.5658 28.0049 57.6147C27.9132 57.6637 27.7471 57.5952 27.6851 57.5656C27.6234 57.5358 27.7501 57.289 27.751 57.2697C27.7549 57.1585 27.6757 56.99 27.6647 56.9864C27.126 56.7607 26.4648 57.0188 25.9805 56.6852C25.9424 56.6594 26.0669 56.3959 26.0621 56.3892C25.9587 56.2238 25.8155 56.9908 25.6292 57.1986C25.8395 56.6489 25.7448 56.7285 25.6649 56.6319C25.6266 56.5849 25.729 56.3794 25.7323 56.3559C25.7751 56.004 25.5759 56.4077 25.5325 56.4893C25.3726 56.7896 25.4527 56.3964 25.3453 56.5969C25.2384 56.7958 25.2034 57.1342 25.1076 57.0959C25.1505 56.8877 25.4058 56.3941 25.3617 56.284C25.1957 55.8675 24.5325 56.0914 24.2938 56.0547C24.0555 56.0182 23.9963 55.9561 23.8408 55.9819C23.56 56.0287 23.782 55.6741 23.6983 55.4463C23.6141 55.2184 23.3508 56.191 23.2579 56.3872C23.1654 56.5835 23.2168 56.366 23.1516 56.4688C23.0865 56.5717 23.0931 56.7298 23.018 56.7505C22.9429 56.7712 22.906 56.3509 22.9598 56.1304C23.0739 55.6632 23.3153 55.2159 23.0971 55.326C23.0844 55.3326 23.0262 55.5923 22.9822 55.605C22.6356 55.6984 22.3416 55.608 22.0032 55.6793C21.9565 55.6895 21.8929 55.9787 21.8647 55.9878C21.5699 56.0831 21.8178 55.6451 21.8738 55.0811C21.6585 55.782 21.439 56.1798 21.2613 56.1217C21.1544 56.087 21.2791 55.7917 21.2857 55.5549C21.2877 55.4835 21.1397 55.6642 21.1762 55.5175C21.2951 55.0379 21.549 54.5435 21.2943 54.6862C21.2828 54.6932 21.2186 54.9561 21.1856 54.9617C20.9721 54.9995 21.122 54.5068 20.9503 54.3801C20.8157 54.2808 20.443 54.4819 20.2542 54.4694C19.9837 55.2474 19.8842 55.0123 20.0074 54.4535C19.8882 54.4361 19.7785 54.3634 19.6446 54.3993C19.5986 54.4115 19.5436 54.645 19.5303 54.6676C19.3241 55.0235 19.4595 54.4854 19.4427 54.4564C19.252 54.1658 18.9001 54.4857 18.7874 54.012C18.7835 53.995 18.9596 53.4504 18.754 53.8208C18.7401 53.8465 18.7357 54.121 18.6119 54.0986C18.4881 54.0763 18.1653 54.2876 18.091 53.9802C18.0729 53.9062 18.1279 53.4331 17.9273 53.7471C17.9003 53.7898 17.8573 53.9486 17.8115 54.0293C17.665 54.2862 17.8304 53.7313 17.6085 54.174C17.3867 54.6166 17.1428 54.9208 17.0917 54.5433C17.0898 54.5321 17.2035 54.0862 17.1495 54.0748C17.0632 54.0571 16.9146 54.1059 16.8297 54.0727C16.7891 54.0567 16.9101 53.7976 16.9047 53.7902C16.6811 53.5421 16.3998 53.7119 16.0667 53.7111C16.0055 53.7115 15.9785 53.2904 15.7712 53.5427C15.5439 53.8186 15.1976 55.1782 15.0429 54.7706C14.9801 54.6072 15.4346 52.8877 14.9365 53.6859C14.639 53.3396 14.1375 53.661 13.8714 53.2225C13.8594 53.203 13.9708 52.7176 13.929 52.71C13.8666 52.6996 13.7574 52.9063 13.7104 52.9059C13.5115 52.9095 13.4165 52.6662 13.2368 52.6354C13.1688 52.6233 13.1117 52.8567 13.0305 52.8422C12.9495 52.8275 13.0031 52.5126 12.8486 52.6193C12.7316 52.7009 12.4389 53.2801 12.3098 53.314C12.5171 52.714 12.4412 52.7011 12.3698 52.4982C12.3562 52.4589 12.4559 52.2598 12.4533 52.2305C12.4441 52.1065 12.3396 52.2638 12.3362 52.1312C12.3353 52.0993 12.4069 51.8946 12.4102 51.857C12.4409 51.5293 12.1541 51.9452 12.1045 52.0177C11.9152 52.2929 11.9708 52.0135 11.8657 52.111C11.7607 52.2086 11.8017 52.3914 11.7027 52.4382C11.4978 52.5348 11.3142 52.4329 11.1566 52.3878C11.0942 52.3686 11.2325 52.1106 11.2258 52.1015C11.1229 51.9873 10.8917 52.2321 11.013 51.6637C10.4287 53.0379 10.9843 51.5003 10.703 51.7174C10.6807 51.7351 10.4279 52.3933 10.4485 52.5103C10.4691 52.6272 10.6258 52.4489 10.6485 52.6279C10.654 52.67 10.5378 53.3293 10.5386 53.372C10.5452 53.7059 10.9114 52.7183 10.9365 52.6658C11.2107 52.1006 11.1005 52.8162 11.1175 52.8743C11.195 53.1405 11.3738 53.0466 11.4478 53.2432C11.4966 53.3707 11.2752 54.0241 11.3477 54.0273C11.5887 54.0383 11.985 53.1576 11.9124 54.0169C11.8972 54.2003 11.6025 54.8959 11.9575 54.3924C11.9798 54.3607 12.2774 53.8905 12.2308 54.2379C12.2249 54.2817 12.1515 54.4888 12.1566 54.5102C12.1919 54.6493 12.3002 54.5018 12.3541 54.6098C12.4079 54.7177 12.4646 54.8703 12.5828 54.8329C12.6539 54.8108 12.8623 54.4501 12.9226 54.3651C13.0948 54.1197 13.0188 54.5949 13.1822 54.2818C13.3467 53.9672 13.4315 53.4311 13.6316 53.2609C13.4462 53.801 13.2618 54.3573 13.0781 54.9014C13.3578 54.9788 13.6879 54.8995 13.9534 55.0199C13.9861 55.0354 13.8492 55.3126 13.8817 55.3366C14.0191 55.4368 14.2261 55.2779 14.3563 55.4162C14.4568 55.5245 14.4838 55.8786 14.5855 56.0014C14.8817 55.4131 14.9992 55.6897 15.1581 55.6825C15.2136 55.6802 15.2684 55.5145 15.322 55.4731C15.5227 55.3207 15.2693 55.8435 15.2749 55.9418C15.2995 56.3616 15.7475 55.134 15.9179 55.2284C15.9271 55.233 15.8126 55.9312 15.8143 55.9778C15.8228 56.2808 15.912 55.7552 15.9933 55.7294C16.1419 55.6821 16.2788 55.554 16.3485 55.7949C16.3685 55.8661 16.3203 56.3095 16.51 56.0203C16.5349 55.9825 16.6059 55.7633 16.6186 55.7535C16.8428 55.5943 16.6059 56.2779 16.6097 56.5391C16.6136 56.8002 16.9116 56.3758 16.9863 56.2495C17.1805 55.9232 16.9855 56.0805 16.9939 56.0447C17.0939 55.6189 17.1652 55.7234 17.2509 55.7147C17.4976 55.0496 17.5862 55.126 17.3388 55.7084C17.3116 55.7719 17.2764 55.6894 17.2509 55.7147C17.0837 56.3937 17.167 56.5176 17.5082 55.9484C17.668 55.6816 17.7311 55.3269 17.8652 55.5121C17.9261 55.5959 17.7325 56.0455 17.7592 56.1961C17.8204 56.5399 18.1829 56.1847 18.3263 56.3114C18.3783 56.3574 18.2302 56.5887 18.2627 56.6288C18.3487 56.7361 18.5126 56.5812 18.589 56.7171C18.5958 56.7298 18.4781 56.985 18.5113 57.0005C18.7612 57.1232 19.048 57.0343 19.3218 57.1257C19.4541 57.17 19.6379 57.3985 19.7845 57.4173C20.038 57.4515 20.464 57.1703 20.6328 57.3347C20.7433 57.4408 20.6213 57.6946 20.6142 57.8944C20.6 58.2814 21.0129 57.7249 21.073 57.6374C21.0749 57.6344 20.9836 57.5322 21.0919 57.4181C21.2267 57.1481 21.0721 57.6357 21.073 57.6374C21.1121 57.5809 21.3594 57.6008 21.3865 57.6671C21.4012 57.7033 21.2992 57.9486 21.3086 57.9627C21.532 58.2933 21.8126 58.4638 22.1606 58.4551C22.1677 58.452 22.2584 58.1693 22.274 58.1654C22.4955 58.1037 22.4884 58.4861 22.5632 58.7409C22.6379 58.9957 22.7781 58.9687 23.0343 58.519C23.1234 58.6185 23.3569 58.4621 23.4936 58.3655C23.6302 58.2689 23.4508 58.8179 23.455 58.8315C23.5837 59.2644 23.8385 59.0038 24.1153 59.047C24.2473 59.0666 24.4643 59.232 24.577 59.3387C24.6657 59.424 24.7744 59.3188 24.843 59.4348C24.8523 59.4503 24.7534 59.6881 24.7542 59.6989C24.7604 60.0273 24.9174 59.4161 24.9772 59.3182C25.1944 58.9619 25.317 58.7747 25.3922 59.0049C25.4097 59.0577 25.202 59.9441 25.2429 60.0147C25.2966 60.1048 25.3758 59.7888 25.4293 59.891C25.434 59.8995 25.366 60.0877 25.4181 60.0967C25.659 60.1411 25.9465 60.1191 26.177 60.2217C26.2087 60.235 26.0615 60.5197 26.1056 60.5438C26.3127 60.6568 26.5573 60.7307 26.8207 60.666C26.8858 60.6492 26.9268 60.428 26.9602 60.3698C27.1633 60.018 27.0697 60.6002 27.0824 60.6164C27.3813 61.0176 27.8558 60.6283 28.1719 61.0049C28.1887 61.0264 28.149 61.672 28.4011 61.1953C28.4181 61.1636 28.6735 60.675 28.6146 61.05C28.6109 61.0734 28.4714 61.3221 28.5612 61.3234C28.651 61.3248 28.7178 61.5474 28.9309 61.2952C28.9982 61.2158 29.262 60.7316 29.2218 61.1776C29.2185 61.2086 29.0528 62.1907 29.3356 61.5726C29.382 61.4708 29.6107 60.7917 29.6128 61.182C29.6129 61.2576 29.5165 61.393 29.546 61.5092C29.5907 61.6881 29.7817 61.552 29.7934 61.8946C29.7952 61.9551 29.7209 62.4446 29.9139 62.1213C29.9442 62.0707 30.0029 61.8378 30.0489 61.8256C30.268 61.7668 30.3994 61.9828 30.6335 61.89C30.7163 61.8575 30.8126 61.4815 30.9132 61.4071C31.0138 61.3328 31.1802 61.2858 31.1905 61.4769C31.2009 61.668 30.9202 62.2224 31.0075 62.3055C31.3869 62.6665 31.9537 62.4832 32.4213 62.5922C32.4907 62.6083 32.362 62.7967 32.459 62.8354C32.8162 62.9789 33.3735 63.3948 33.8441 63.064C34.2212 62.7991 33.9989 62.4177 34.2425 62.3417C34.3597 62.3058 34.2218 63.0169 34.2368 63.0461C34.3798 63.3395 34.6378 63.094 34.8027 63.2555C34.8367 63.289 34.7001 63.5487 34.7301 63.5741C34.8319 63.6634 34.9995 63.5851 35.1048 63.6474C35.1518 63.676 35.0687 63.8819 35.1211 63.8822C35.2457 63.8855 35.3756 63.8325 35.5538 63.6749C35.57 63.6606 35.5949 63.3767 35.681 63.3963C35.8202 63.4286 36.0546 63.2939 36.1382 63.5479C36.1627 63.6242 35.9958 64.1028 36.2105 63.8074C36.2555 63.7457 36.4318 63.1624 36.3712 63.6988C36.3613 63.788 36.3175 64.5247 36.564 64.1269C36.629 64.0222 36.8583 63.5749 36.8872 63.6681C36.8905 63.6825 36.77 63.9287 36.8067 63.9699C36.9377 64.1103 37.1156 64.1423 37.2521 64.2809C37.2884 64.3184 37.129 64.561 37.1861 64.6084C37.3429 64.7393 37.5921 64.7511 37.7979 64.7303C37.874 64.7221 37.9067 64.4861 37.9199 64.4638C38.1335 64.1012 37.9929 64.6429 38.0074 64.6824C38.0998 64.9215 38.3066 64.7167 38.4284 64.8332C38.4623 64.8647 38.3454 65.1054 38.3455 65.1306C38.3509 65.3782 38.4484 64.9062 38.5181 64.875C38.7141 64.7861 38.8701 64.8639 39.0068 64.9481C39.0569 64.9795 38.8932 65.2486 38.9393 65.2734C39.2104 65.4254 39.5204 65.5035 39.8588 65.4427C39.9227 65.4307 39.9684 65.1951 39.9975 65.1479C40.1999 64.8171 40.1394 65.3444 40.1487 65.4C40.1907 65.6534 40.306 65.4715 40.3962 65.5449C40.8355 65.9068 41.5043 65.9954 42.0088 66.0824C42.6659 66.1971 43.2223 66.154 43.7942 66.418C43.8307 66.4345 43.6877 66.7189 43.7177 66.737C44.1107 66.9564 44.5637 66.9854 44.9525 67.2194C44.9846 67.2381 44.8354 67.5029 44.8836 67.5423C44.9817 67.6252 45.1305 67.6605 45.2769 67.6108C45.348 67.5871 45.3586 67.3184 45.4285 67.2995C45.5915 67.2548 45.7389 67.2843 45.8574 67.377C45.9076 67.417 45.7193 67.6753 45.7925 67.7049C46.289 67.9123 46.769 68.1377 47.413 67.9445C47.4571 67.9312 47.695 67.3552 47.7299 67.4941C47.6781 67.6589 47.6101 67.8504 47.5512 68.0253C48.2556 68.3794 49.0573 68.4336 49.808 68.6632C49.8396 68.6729 49.676 68.9648 49.7367 68.9853C50.0877 69.104 50.3966 69.3099 50.8631 69.127C50.9092 69.1093 51.0841 68.5558 51.1594 68.6755C51.1725 68.6971 51.3041 68.8256 51.3029 68.9587C51.3021 68.9785 51.1833 69.2237 51.2314 69.2491C51.5124 69.3918 51.8418 69.4426 52.1911 69.3904C52.2477 69.3815 52.2931 69.0918 52.3342 69.0831C52.625 69.0234 52.813 69.3222 53.1294 69.1562C53.3415 69.0442 53.4506 68.5541 53.6954 68.1203C53.73 68.0591 53.8286 68.0823 53.9285 67.8148C54.18 67.1425 54.3956 66.3851 54.6691 65.6703C54.7279 65.5163 54.7961 65.7286 54.8533 65.3265C54.8569 65.2995 54.8086 65.1423 54.8309 65.0069C54.8461 64.9132 54.9713 64.6496 54.9788 64.5254C54.9863 64.4014 54.8698 64.6183 54.863 64.467C54.8569 64.314 54.9903 64.0109 54.8965 63.9363ZM24.1075 57.9347C24.2843 57.703 23.9587 58.6652 23.9482 58.4038C23.9481 58.39 24.0986 57.946 24.1075 57.9347ZM13.9413 54.1765C14.2008 53.793 14.0572 54.4408 13.8641 54.7396C13.6712 55.038 13.8625 54.2927 13.9413 54.1765ZM12.9051 53.4639C13.1517 53.1764 12.6927 54.5417 12.6514 54.2184C12.6488 54.2 12.8907 53.4806 12.9051 53.4639ZM53.3637 67.8551C53.3694 67.8428 53.4421 67.8545 53.4393 67.8677C53.3683 68.1847 53.223 68.1611 53.3637 67.8551ZM11.8873 52.7271C11.9925 52.5576 12.0336 52.8106 11.9029 53.0214C11.7978 53.191 11.7565 52.9379 11.8873 52.7271ZM28.8744 58.4676C28.8808 58.4538 28.9343 58.4582 28.9049 58.5385C28.8098 58.7972 28.7675 58.6998 28.8744 58.4676ZM9.96163 52.0298C10.265 52.0794 10.834 51.0185 10.4786 51.0355C10.4142 51.0385 10.4736 51.4361 10.3663 51.5119C10.1702 51.65 10.3318 50.9148 10.0648 51.2451C10.0162 51.3056 9.94344 52.0295 9.96158 52.0316C9.9616 52.031 9.96161 52.0304 9.96163 52.0298ZM24.5622 56.8014C24.5684 56.7893 24.6404 56.8013 24.6376 56.8144C24.567 57.1314 24.4218 57.1076 24.5622 56.8014ZM31.9409 58.8838C31.9541 58.8582 32.1204 58.8885 32.1167 58.9151C32.0233 59.4413 31.6867 59.3816 31.9409 58.8838ZM20.2442 54.4892C20.2782 54.1572 20.2024 54.09 20.0079 54.4533C20.0886 54.4588 20.1636 54.4819 20.2442 54.4892Z" fill="#FAFAFA"/>
<path d="M39.1445 72.5673C38.9275 72.474 38.6385 72.5622 38.4175 72.6871C38.3483 72.7259 38.3789 72.9066 38.3309 72.9414C38.2371 73.0094 38.1531 72.9192 38.06 73.0005C38.0292 73.0284 38.0605 73.3143 38.0283 73.3369C37.8518 73.459 37.6892 73.3828 37.5119 73.4395C36.6388 73.7192 35.7848 73.8073 34.9048 73.9177C34.6147 73.9538 34.2574 74.2047 33.9612 74.0849C33.9267 74.0707 33.953 73.821 33.9469 73.8002C33.8498 73.4822 33.8732 73.9881 33.8038 74.0537C33.5282 74.3127 33.2279 74.3291 32.9705 74.2267C32.861 74.1824 32.9828 73.6879 32.8654 73.9644C32.8573 73.9831 32.8794 74.2494 32.8485 74.2771C32.7784 74.3393 32.6492 74.2889 32.5955 74.3088C32.492 74.3484 32.4751 74.3454 32.378 74.3462C32.2453 74.3497 32.0846 74.4783 31.9437 74.415C31.9136 74.4006 31.9599 74.1291 31.9125 74.0817C31.865 74.0344 31.7363 74.0546 31.6916 74.1179C31.6469 74.1811 31.6606 74.3956 31.6519 74.4445C31.5797 74.8573 31.4441 74.2804 31.4253 74.2658C31.0827 74.0163 30.777 74.3365 30.4504 74.3283C30.2024 74.3214 29.9396 74.2076 29.7034 74.2171C29.4218 74.2296 29.1803 74.3719 28.9077 74.3404C28.879 74.3374 28.9199 74.0179 28.8847 74.0136C28.5116 73.968 28.1394 73.9947 27.7622 74.2026C27.7244 74.2237 27.7662 74.506 27.7281 74.5439C27.4945 74.7699 27.1207 75.317 27.0122 74.0897C26.8564 74.1341 26.6675 74.1793 26.5236 74.423C26.4308 74.5799 26.5106 74.8881 26.4039 74.755C26.3798 74.7253 26.4179 74.4578 26.3814 74.4336C26.2274 74.3319 26.0549 74.4153 25.9035 74.2733C25.8727 74.2437 25.8867 74.0036 25.8787 73.9601C25.8117 73.6079 25.6743 74.1846 25.6462 74.2261C25.4325 74.5355 25.2842 74.4086 25.0915 74.4119C25.0467 74.4129 25.1067 74.0912 25.0639 74.0805C24.8419 74.0292 24.6102 74.0518 24.3886 74.1903C24.3393 74.2218 24.3779 74.4978 24.354 74.527C24.2488 74.6522 24.2377 74.1322 24.137 74.2423C24.1158 74.2648 24.1222 74.5005 24.1179 74.5263C24.0498 74.9309 24.0112 74.3546 23.9963 74.3416C23.8079 74.1638 23.6717 74.7615 23.4879 74.6724C23.4659 74.6611 23.5226 74.3643 23.4604 74.3508C23.0462 74.2593 22.6043 74.3314 22.1871 74.5605C22.1223 74.5958 22.163 74.8206 22.1584 74.8481C22.0831 75.2777 22.0534 74.6992 22.0331 74.6769C21.8718 74.5167 21.7072 74.9977 21.6105 74.3072C20.9076 74.5305 20.2218 74.1287 19.5162 74.7296C19.5073 74.7366 19.5167 75.0214 19.4989 75.034C19.284 75.189 19.3344 74.7479 19.2066 74.2041C19.1744 74.0675 19.0528 74.7179 19.0422 74.7656C19.0038 74.9411 19.0302 75.3651 19.0179 75.399C18.9162 75.665 18.9629 74.2658 18.8338 74.2625C18.8297 74.2648 18.8409 74.5227 18.8295 74.5481C18.7941 74.6278 18.763 74.5247 18.7281 74.6126C18.6481 74.8161 18.6061 75.4956 18.4998 75.0972C18.4863 75.0455 18.5262 74.2522 18.4101 74.2871C18.3638 74.3017 18.1607 74.2836 18.1025 74.3338C18.0445 74.3839 18.0779 74.6406 18.0736 74.6516C17.9126 74.9864 17.9677 75.1279 17.8797 75.6271C17.7917 76.1243 17.8395 74.9347 17.8111 74.8012C17.7827 74.6681 17.664 74.9447 17.6342 75.0411C17.6044 75.1376 17.6352 75.3009 17.6095 75.3553C17.4386 75.7105 17.5511 74.763 17.5016 74.5729C17.385 74.1229 17.2668 75.0032 17.1491 75.0871C17.1172 75.1098 17.1472 74.9094 17.1197 74.8899C17.0108 74.8157 16.9382 75.0896 16.818 74.8343C16.7984 74.7927 16.7085 74.2598 16.634 74.6478C16.6234 74.7037 16.645 74.9242 16.5968 74.9724C16.5248 75.0448 16.3969 75.0901 16.3229 75.0149C16.2683 74.9592 16.3403 74.5983 16.2675 74.7093C16.2352 74.7589 16.2884 74.9721 16.2279 75.0476C16.1678 75.123 16.0188 75.1104 15.9621 75.1018C15.9056 75.0931 15.9427 74.8189 15.9385 74.8002C15.9132 74.6935 15.8073 74.5586 15.7976 74.5587C15.3133 74.5144 14.8556 74.9678 14.3867 74.8039C14.3499 74.7914 14.381 74.5021 14.3755 74.4972C14.2513 74.373 14.3342 75.1459 14.2398 75.4019C14.2657 74.8139 14.211 74.9193 14.1231 74.8528C14.0807 74.8203 14.1092 74.593 14.1058 74.5696C14.0496 74.2222 13.9952 74.6681 13.9817 74.7592C13.9319 75.0946 13.8947 74.6962 13.8609 74.9203C13.8272 75.1428 13.8861 75.475 13.8005 75.4688C13.7811 75.2577 13.857 74.7089 13.7939 74.6182C13.5558 74.2755 13.0878 74.697 12.8893 74.7375C12.6913 74.7779 12.6285 74.7376 12.512 74.8112C12.3015 74.9442 12.3866 74.5376 12.262 74.3479C12.137 74.1581 12.1774 75.164 12.1541 75.3796C12.131 75.595 12.1161 75.3724 12.0908 75.4905C12.0655 75.6087 12.1112 75.7566 12.0571 75.7999C12.0029 75.8433 11.866 75.456 11.8522 75.2298C11.823 74.7506 11.8997 74.25 11.755 74.4232C11.7467 74.4335 11.7671 74.6983 11.7355 74.7243C11.4849 74.9221 11.2289 74.9291 10.9791 75.1034C10.9447 75.1278 10.9684 75.4223 10.9484 75.4399C10.7393 75.6232 10.8235 75.1294 10.7235 74.5765C10.7324 75.3095 10.6604 75.7563 10.5048 75.7571C10.4112 75.7579 10.4344 75.4384 10.379 75.2116C10.3623 75.1432 10.2913 75.3614 10.2827 75.2107C10.2541 74.718 10.3286 74.1689 10.1634 74.3846C10.1562 74.3948 10.1726 74.6645 10.1479 74.6803C9.98843 74.7835 9.98107 74.2687 9.81263 74.2026C9.6806 74.1508 9.43689 74.4592 9.28419 74.5068C9.26908 75.3304 9.13011 75.1386 9.08466 74.5696C8.98578 74.5906 8.88025 74.5562 8.78343 74.6325C8.75012 74.6586 8.76632 74.8975 8.76162 74.9231C8.68936 75.3258 8.65888 74.7725 8.63813 74.7504C8.41269 74.5348 8.21591 74.9492 8.00539 74.5352C7.99792 74.5203 7.99801 73.948 7.93002 74.3644C7.92558 74.3931 7.99233 74.6549 7.88857 74.6728C7.78481 74.6906 7.58321 74.993 7.44566 74.7247C7.41237 74.6601 7.33488 74.1938 7.25636 74.5551C7.24588 74.6041 7.2525 74.7684 7.23692 74.8594C7.18665 75.1493 7.17558 74.5706 7.11317 75.0606C7.05077 75.5507 6.93549 75.9161 6.79836 75.574C6.79398 75.5641 6.76991 75.1051 6.72426 75.1113C6.65137 75.1216 6.54615 75.2148 6.47039 75.2101C6.43412 75.2077 6.46368 74.9237 6.4575 74.9184C6.21692 74.7535 6.03754 75.0033 5.77358 75.1076C5.72517 75.1273 5.59604 74.7362 5.4964 75.0409C5.38703 75.3744 5.46072 76.7737 5.23387 76.4357C5.14235 76.3005 5.06212 74.5255 4.87193 75.44C4.54771 75.2051 4.23273 75.6683 3.90976 75.3361C3.89524 75.3214 3.85927 74.8257 3.82421 74.8317C3.77214 74.8415 3.73855 75.072 3.70121 75.0864C3.5446 75.1526 3.4071 74.9517 3.25692 74.9791C3.19991 74.989 3.21445 75.2285 3.14645 75.2404C3.0785 75.252 3.04038 74.9362 2.94532 75.0862C2.8735 75.2005 2.78997 75.8424 2.6964 75.9153C2.70699 75.2806 2.64359 75.2923 2.53511 75.1223C2.51426 75.0893 2.5423 74.8689 2.53269 74.8419C2.49371 74.7272 2.45121 74.9094 2.41454 74.7846C2.40561 74.7546 2.40998 74.5379 2.40295 74.5011C2.34337 74.1805 2.22271 74.6655 2.20196 74.75C2.12249 75.0708 2.09497 74.7881 2.0367 74.9138C1.97852 75.0395 2.05777 75.2 1.99139 75.2756C1.8538 75.432 1.68233 75.3931 1.54597 75.4001C1.49158 75.4015 1.53507 75.113 1.52744 75.1065C1.41674 75.0306 1.29632 75.3359 1.24683 74.7582C1.13585 76.2465 1.18232 74.6122 1.01513 74.9069C1.00194 74.9307 0.970192 75.635 1.01645 75.7395C1.06271 75.8439 1.14123 75.6253 1.20502 75.7881C1.22013 75.8263 1.29684 76.4886 1.30843 76.5288C1.39915 76.8436 1.43639 75.791 1.44285 75.7332C1.51532 75.1104 1.61118 75.8242 1.6395 75.874C1.76904 76.1022 1.88663 75.9567 1.99559 76.1199C2.06688 76.2255 2.05874 76.9154 2.117 76.8955C2.31068 76.83 2.39911 75.8693 2.5616 76.7076C2.59647 76.8864 2.54113 77.6394 2.6934 77.0497C2.70297 77.0126 2.81829 76.4726 2.87033 76.8169C2.87687 76.8603 2.87174 77.08 2.88121 77.0987C2.94479 77.2195 2.99285 77.0455 3.06313 77.1309C3.13342 77.2164 3.21738 77.3432 3.30141 77.2706C3.35205 77.2271 3.42484 76.8192 3.45082 76.7195C3.52435 76.4323 3.58576 76.9072 3.6351 76.5586C3.68483 76.2082 3.61474 75.6728 3.7297 75.4482C3.72108 76.0191 3.71742 76.6051 3.71121 77.1793C3.95255 77.1646 4.19367 76.9853 4.43481 77.0159C4.46469 77.0202 4.42723 77.3264 4.45909 77.339C4.59354 77.3908 4.71678 77.1746 4.85538 77.2649C4.96265 77.3359 5.07473 77.6634 5.18667 77.7478C5.27067 77.0962 5.43456 77.3217 5.55851 77.2647C5.60191 77.2451 5.60294 77.0706 5.63474 77.0143C5.75466 76.8064 5.68784 77.3824 5.71741 77.4739C5.84435 77.8646 5.88499 76.5584 6.04409 76.5943C6.05253 76.5957 6.14055 77.2944 6.15385 77.3381C6.23813 77.6229 6.17422 77.096 6.23205 77.0459C6.33764 76.9541 6.41325 76.7894 6.53015 76.9961C6.56422 77.0573 6.6395 77.4932 6.71573 77.159C6.72575 77.1153 6.72587 76.885 6.73344 76.8716C6.87023 76.6499 6.85762 77.3732 6.92749 77.6198C6.99737 77.8664 7.12479 77.3697 7.15167 77.2263C7.22189 76.8555 7.10775 77.0662 7.1052 77.0296C7.07547 76.594 7.15863 76.6707 7.22429 76.6354C7.24943 75.9265 7.33915 75.9711 7.29228 76.6017C7.28701 76.6706 7.23802 76.6033 7.22429 76.6354C7.26574 77.3325 7.36339 77.4238 7.48789 76.776C7.54618 76.4725 7.50538 76.1161 7.65897 76.2495C7.72868 76.3098 7.69039 76.7975 7.75011 76.932C7.88654 77.2389 8.08272 76.7875 8.22875 76.8626C8.28174 76.8898 8.22361 77.156 8.25963 77.1838C8.35519 77.2585 8.44534 77.0598 8.54065 77.1647C8.54927 77.1746 8.52145 77.4539 8.55172 77.4581C8.78106 77.4957 8.98536 77.321 9.22567 77.3214C9.34178 77.3217 9.54585 77.4806 9.66676 77.4522C9.87629 77.4047 10.1417 77.0036 10.3175 77.1064C10.4322 77.1722 10.4005 77.4515 10.446 77.6433C10.5338 78.015 10.7184 77.3568 10.7436 77.2547C10.7443 77.2514 10.6459 77.1832 10.7024 77.0407C10.7401 76.7421 10.7425 77.2534 10.7436 77.2547C10.7601 77.1889 10.9611 77.1298 10.9995 77.1841C11.0204 77.2138 11.0024 77.4787 11.0134 77.4892C11.275 77.7324 11.5409 77.8057 11.8143 77.6878C11.8192 77.6825 11.8186 77.3858 11.83 77.3772C11.9896 77.2488 12.0819 77.6138 12.2063 77.8321C12.3307 78.0503 12.4348 77.9804 12.5226 77.473C12.6187 77.5393 12.7636 77.3173 12.8471 77.1825C12.9306 77.0477 12.929 77.6253 12.9358 77.6368C13.1486 78.007 13.2837 77.6794 13.514 77.6331C13.6235 77.6101 13.8377 77.6986 13.9543 77.7644C14.0464 77.8173 14.1056 77.6833 14.1895 77.7717C14.2009 77.7835 14.1835 78.0403 14.1868 78.0502C14.2758 78.3599 14.2437 77.7305 14.266 77.6187C14.3468 77.2122 14.396 76.9958 14.5145 77.1905C14.5419 77.2351 14.6042 78.1418 14.6547 78.1958C14.7203 78.2644 14.7022 77.9396 14.7707 78.0197C14.7766 78.0262 14.7709 78.2263 14.8145 78.2184C15.0166 78.1846 15.2387 78.073 15.4475 78.0978C15.476 78.1004 15.4323 78.4169 15.4735 78.4259C15.6664 78.4678 15.879 78.4608 16.0711 78.3164C16.1184 78.2799 16.0942 78.0571 16.1057 77.9913C16.1765 77.5935 16.2514 78.1755 16.2657 78.1868C16.6051 78.4733 16.8813 77.9542 17.228 78.212C17.2468 78.227 17.3806 78.8521 17.4583 78.3203C17.4636 78.2849 17.5409 77.7408 17.5902 78.1151C17.5932 78.1385 17.5464 78.4185 17.6179 78.3914C17.6894 78.3645 17.7992 78.5546 17.9034 78.2481C17.9364 78.1516 18.0214 77.6089 18.1037 78.0448C18.109 78.0752 18.2292 79.0594 18.2949 78.3837C18.3056 78.2725 18.3129 77.556 18.4145 77.9257C18.4339 77.9973 18.3923 78.1563 18.4453 78.2572C18.5266 78.4129 18.643 78.2235 18.74 78.5449C18.7569 78.6018 18.8233 79.0897 18.8935 78.7221C18.9045 78.6645 18.8913 78.425 18.9247 78.3989C19.0831 78.274 19.2425 78.4376 19.4042 78.2757C19.4615 78.2188 19.4414 77.8316 19.5021 77.7293C19.5627 77.627 19.6825 77.53 19.7396 77.708C19.7967 77.8861 19.7163 78.5007 19.8067 78.552C20.1996 78.775 20.6016 78.4223 20.9999 78.3783C21.059 78.3717 21.0052 78.5911 21.0919 78.5972C21.4116 78.6207 21.9594 78.8397 22.2475 78.3774C22.4783 78.0071 22.2047 77.7153 22.3781 77.5664C22.4618 77.4954 22.5346 78.2136 22.5539 78.2366C22.7423 78.47 22.8838 78.1557 23.0557 78.2569C23.0912 78.2779 23.0495 78.5674 23.0798 78.5821C23.1832 78.6347 23.296 78.5076 23.3953 78.5335C23.4399 78.5458 23.4267 78.7674 23.4683 78.7512C23.5678 78.715 23.6572 78.6237 23.758 78.418C23.7672 78.3993 23.7142 78.1221 23.7874 78.1135C23.9059 78.1003 24.0571 77.8985 24.1883 78.1133C24.2272 78.1779 24.2175 78.6847 24.312 78.3366C24.3318 78.2639 24.3221 77.6549 24.4114 78.1829C24.4265 78.2707 24.5804 78.9836 24.6738 78.5283C24.6984 78.4085 24.7655 77.9118 24.8123 77.9911C24.8186 78.0038 24.7862 78.2754 24.8258 78.3028C24.9655 78.3948 25.1145 78.3691 25.2582 78.4576C25.2965 78.4817 25.2324 78.7621 25.2897 78.7892C25.4474 78.8639 25.6478 78.7966 25.8055 78.7119C25.8636 78.6801 25.8291 78.4459 25.8339 78.4206C25.9102 78.0091 25.9376 78.5674 25.9591 78.6004C26.0935 78.7982 26.2049 78.5386 26.3312 78.6108C26.3661 78.63 26.3351 78.8952 26.3416 78.9191C26.4093 79.1523 26.3657 78.6737 26.4129 78.6221C26.5454 78.476 26.6889 78.5006 26.8187 78.5374C26.8664 78.5514 26.8056 78.8584 26.8485 78.8673C27.1021 78.9261 27.3677 78.9025 27.6201 78.7381C27.6677 78.7066 27.6435 78.4686 27.6544 78.4146C27.7301 78.0369 27.8172 78.5564 27.8388 78.6061C27.9369 78.8334 27.9816 78.6244 28.0718 78.6656C28.5124 78.8706 29.0648 78.7438 29.4867 78.6672C30.0364 78.5689 30.4661 78.3525 30.9866 78.4227C31.0197 78.4269 30.9792 78.7419 31.0077 78.7495C31.3751 78.8339 31.7413 78.7186 32.1091 78.818C32.1393 78.8256 32.0889 79.1239 32.1372 79.1462C32.2361 79.1939 32.3631 79.1804 32.4662 79.0871C32.5165 79.0422 32.4561 78.7839 32.5066 78.7439C32.6243 78.6501 32.7486 78.6316 32.8661 78.6822C32.9161 78.7044 32.8332 79.0088 32.8987 79.0138C33.3451 79.0541 33.7829 79.1166 34.2434 78.7302C34.275 78.7037 34.316 78.0821 34.3792 78.2029C34.3803 78.3757 34.3755 78.5788 34.3736 78.7634C35.0221 78.8773 35.671 78.6759 36.3243 78.657C36.3518 78.6563 36.297 78.9849 36.3503 78.9852C36.6587 78.9872 36.956 79.0851 37.2786 78.7645C37.3106 78.7332 37.3075 78.1529 37.3977 78.2426C37.4136 78.259 37.5508 78.3394 37.5839 78.4661C37.5884 78.4852 37.557 78.7553 37.6016 78.7642C37.8607 78.8111 38.1346 78.7554 38.3979 78.5957C38.4404 78.5695 38.4022 78.2802 38.4325 78.259C38.6476 78.1107 38.873 78.3349 39.0811 78.0777C39.2204 77.9045 39.1813 77.4051 39.2642 76.9162C39.2759 76.8472 39.36 76.8381 39.3706 76.5529C39.3977 75.8355 39.3746 75.0489 39.4082 74.2844C39.4154 74.1197 39.5238 74.2996 39.4661 73.9C39.4621 73.8733 39.3836 73.7393 39.3666 73.6038C39.3547 73.5102 39.3863 73.2205 39.3605 73.1003C39.3346 72.9803 39.2979 73.2229 39.2538 73.0814C39.2098 72.9382 39.2379 72.6085 39.1445 72.5673ZM13.2231 76.5801C13.3038 76.3045 13.2922 77.3202 13.217 77.0754C13.2134 77.0624 13.2189 76.5936 13.2231 76.5801ZM4.20934 76.2193C4.31673 75.7736 4.36877 76.4336 4.29234 76.778C4.21595 77.122 4.17664 76.3544 4.20934 76.2193ZM3.20626 75.8699C3.32798 75.5193 3.31391 76.9596 3.19841 76.6658C3.19168 76.6492 3.19914 75.8902 3.20626 75.8699ZM38.9336 76.7691C38.935 76.7557 38.9955 76.7439 38.9967 76.7573C39.0216 77.0805 38.9005 77.1039 38.9336 76.7691ZM2.21157 75.4916C2.25145 75.2976 2.3488 75.5247 2.29925 75.7659C2.25937 75.96 2.16191 75.7329 2.21157 75.4916ZM17.1349 75.5827C17.1364 75.5676 17.1799 75.5549 17.1772 75.6405C17.1681 75.9159 17.1097 75.8368 17.1349 75.5827ZM0.507908 75.4371C0.760868 75.3885 0.939957 74.2025 0.6628 74.3306C0.61261 74.3538 0.761383 74.7123 0.695801 74.8181C0.575836 75.0109 0.51564 74.2624 0.388756 74.6599C0.365772 74.7327 0.493408 75.4426 0.508316 75.4388C0.508186 75.4382 0.508038 75.4377 0.507908 75.4371ZM13.2931 75.3613C13.2949 75.3479 13.355 75.3365 13.3561 75.3499C13.3813 75.673 13.2603 75.6961 13.2931 75.3613ZM19.6701 75.0109C19.6741 74.9823 19.8135 74.9587 19.8174 74.9851C19.8781 75.5139 19.5962 75.5633 19.6701 75.0109ZM9.28132 74.5287C9.22326 74.203 9.14604 74.1631 9.08496 74.5692C9.1503 74.549 9.21566 74.5472 9.28132 74.5287Z" fill="#FAFAFA"/>
</svg>
