<svg width="101" height="98" viewBox="0 0 101 98" fill="none" xmlns="http://www.w3.org/2000/svg">
<path d="M44.1794 64.2273C35.9633 61.4485 29.8781 58.0765 25.0145 52.7575C20.6765 48.0223 17.873 42.5638 17.2858 36.0861C17.0904 34.0088 17.0593 31.9208 17.6813 29.9038C17.9059 29.1754 18.2226 28.4218 18.6751 27.825C19.7245 26.4613 21.9109 26.7827 22.4735 28.3904C22.7683 29.2252 22.8917 30.1682 22.8933 31.0584C22.8542 43.2484 29.488 50.885 39.918 55.8114C47.8242 59.5454 56.1509 60.349 64.6592 58.4245C72.5493 56.6393 79.1696 52.8289 83.5077 45.6994C83.7736 45.2599 84.0767 44.8242 84.432 44.4429C85.5298 43.2705 87.0333 43.0209 88.3201 43.7474C89.5391 44.4454 90.1729 46.0214 89.6887 47.4673C89.4431 48.1892 89.0111 48.869 88.6087 49.5272C85.9658 53.8201 82.393 57.1743 78.1007 59.7776C70.6367 64.3095 62.4636 66.0919 53.8307 65.5851C50.0865 65.3662 46.3841 64.539 44.1745 64.2182L44.1794 64.2273Z" fill="#E5FF03"/>
<path d="M71.0638 37.4525C70.3956 38.4506 69.6286 39.794 68.6585 40.975C67.7855 42.0403 66.5093 42.3984 65.1587 42.028C63.9152 41.6829 63.0302 40.2749 62.946 38.7074C62.831 36.4938 63.9248 34.7373 65.1883 33.1022C66.1951 31.802 67.6614 31.4489 68.9732 31.9454C70.4439 32.4986 71.4038 33.9374 71.3478 35.5614C71.3292 36.0695 71.1969 36.5732 71.0546 37.4573L71.0638 37.4525Z" fill="#E5FF03"/>
<path d="M43.5181 31.0514C43.0429 31.8713 42.8217 32.3399 42.5203 32.7455C41.7529 33.7666 40.696 34.1847 39.4568 33.9253C38.3901 33.7037 37.5563 33.0248 37.2563 31.9583C36.5659 29.5213 36.729 27.102 37.9018 24.8407C38.4682 23.7499 39.4235 23.0397 40.7354 23.2372C42.1287 23.4444 43.2506 24.2582 43.4098 25.6571C43.6242 27.5485 43.4986 29.4732 43.5203 31.0444L43.5181 31.0514Z" fill="#E5FF03"/>
</svg>
