<svg width="218" height="28" viewBox="0 0 218 28" fill="none" xmlns="http://www.w3.org/2000/svg">
<path d="M132.961 13.8712C134.215 14.9775 134.983 16.3973 135.266 18.1305C135.549 19.8514 135.26 21.4248 134.399 22.8507C133.859 23.748 133.152 24.5163 132.279 25.1555C131.419 25.7824 130.46 26.2556 129.403 26.5752C128.358 26.8948 127.331 27.1222 126.323 27.2574C125.315 27.3804 124.258 27.4357 123.152 27.4234C120.571 27.4234 118.327 27.0177 116.422 26.2065C114.836 25.4935 113.693 24.5532 112.992 23.3854C112.378 22.3528 112.126 21.2465 112.237 20.0665C112.359 19.12 112.734 18.3517 113.361 17.7617C114.05 17.1471 114.929 16.8582 115.998 16.8951C116.613 16.932 117.209 17.0426 117.786 17.227C119.507 18.4931 121.56 19.3966 123.945 19.9374C124.228 20.0112 124.652 20.0849 125.217 20.1587C125.795 20.2324 126.176 20.2877 126.36 20.3246C126.594 20.3615 126.723 20.2632 126.748 20.0296C126.784 19.7838 126.692 19.6178 126.471 19.5318C126.434 19.5072 126.397 19.4949 126.36 19.4949C123.177 19.1384 120.442 18.1305 118.155 16.471C116.791 15.463 115.684 14.24 114.836 12.8018C114.394 12.1257 114.08 11.4496 113.896 10.7736L113.583 9.83319C113.558 9.64881 113.521 9.39682 113.472 9.07722C113.386 7.92175 113.583 6.81545 114.062 5.75832C114.554 4.68889 115.254 3.76697 116.164 2.99256C117.086 2.20586 118.217 1.61583 119.557 1.22248C120.638 0.866003 122.07 0.687766 123.853 0.687766C126.791 0.736935 129.095 1.20404 130.767 2.08908C132.058 2.80203 132.801 3.7178 132.998 4.8364V5.14985C133.023 5.2236 133.035 5.33423 133.035 5.48174C132.998 5.76446 132.961 5.99187 132.924 6.16396C132.924 6.18854 132.9 6.29917 132.851 6.49585C132.851 6.50814 132.844 6.53273 132.832 6.5696C132.82 6.60648 132.814 6.63106 132.814 6.64336C132.814 6.68023 132.801 6.69867 132.777 6.69867V6.73555C132.715 6.79701 132.679 6.84618 132.666 6.88306C132.371 7.53455 132.052 8.06311 131.707 8.46875C131.105 9.1817 130.337 9.64881 129.403 9.87007C128.468 10.079 127.553 10.0483 126.655 9.77788C126.053 9.5935 125.561 9.4337 125.18 9.29848C125.119 9.24931 124.953 9.14483 124.682 8.98503C124.67 8.98503 124.646 8.97888 124.609 8.96659C124.572 8.9543 124.547 8.94815 124.535 8.94815C123.748 8.54251 123.109 8.09384 122.617 7.60215L122.267 7.25182V7.21495H122.23V7.17807C122.107 7.04286 121.972 6.98139 121.824 6.99369C121.677 6.99369 121.56 7.06129 121.474 7.19651C121.388 7.31943 121.388 7.45464 121.474 7.60215C121.732 8.02009 122.187 8.44417 122.839 8.8744C123.441 9.29233 124.006 9.63652 124.535 9.90695H124.572C125.248 10.2757 126.151 10.6568 127.282 11.0501C128.425 11.4435 129.483 11.8614 130.454 12.3039C131.437 12.7342 132.273 13.2566 132.961 13.8712Z" fill="black"/>
<path d="M154.318 5.29736C154.453 5.89968 154.441 6.57575 154.281 7.32558C154.011 8.43188 153.685 9.17556 153.304 9.55662C152.751 10.0729 151.909 10.454 150.778 10.6998C149.598 10.9825 148.338 11.0809 146.998 10.9948C146.224 10.9579 145.529 10.8596 144.914 10.6998C144.816 10.6998 144.755 10.7244 144.73 10.7736C144.509 10.8227 144.398 10.9333 144.398 11.1054C144.41 12.2363 144.503 13.3918 144.675 14.5719C144.859 15.7396 145.13 17.1471 145.486 18.7942C145.855 20.4291 146.095 21.5538 146.205 22.1685C146.414 23.201 146.543 23.957 146.592 24.4364C146.592 24.4733 146.599 24.5347 146.611 24.6208C146.623 24.6945 146.629 24.7498 146.629 24.7867L146.592 24.9711V25.0817C146.531 25.5488 146.26 26.0036 145.781 26.4462C145.24 26.901 144.349 27.2267 143.107 27.4234C143.034 27.4357 142.229 27.5094 140.692 27.6447C139.905 27.6447 139.174 27.5586 138.498 27.3865C137.502 27.0915 136.783 26.5998 136.341 25.9114C136.181 25.6656 136.07 25.4259 136.009 25.1924C135.763 24.3688 135.628 23.7787 135.603 23.4223C135.566 22.9183 135.591 22.359 135.677 21.7444C135.763 21.1175 135.837 20.6565 135.898 20.3615C135.972 20.0542 136.132 19.4765 136.378 18.6283C136.623 17.7801 136.765 17.3007 136.802 17.1901C137.379 15.039 137.834 12.8755 138.166 10.6998C138.191 10.5892 138.172 10.4785 138.111 10.3679C138.062 10.245 137.976 10.1774 137.853 10.1651C137.803 10.1528 137.723 10.1405 137.613 10.1282C137.515 10.1159 137.435 10.1036 137.373 10.0913C135.296 9.89466 133.796 9.56891 132.874 9.1141C132.026 8.74533 131.461 8.17374 131.178 7.39933C130.932 6.73555 130.871 6.01031 130.993 5.2236C131.19 3.94521 131.995 2.96183 133.409 2.27346C134.663 1.63427 136.537 1.19175 139.033 0.945903C142.683 0.638597 145.744 0.718496 148.215 1.1856C151.817 1.89855 153.851 3.26914 154.318 5.29736Z" fill="black"/>
<path d="M170.432 12.2486C170.666 14.3137 170.752 15.9855 170.691 17.2639C170.605 19.4519 170.15 21.3387 169.326 22.9244C168.773 23.9693 168.042 24.8482 167.132 25.5611C166.222 26.2618 165.196 26.7535 164.053 27.0362C162.651 27.4172 161.053 27.5217 159.259 27.3496C157.685 27.1898 156.309 26.7596 155.129 26.059C153.063 24.8297 151.502 22.7523 150.445 19.8268C149.634 17.5773 149.007 14.6333 148.565 10.9948C148.196 8.19218 148.183 5.89968 148.528 4.1173C148.823 2.58077 149.327 1.57281 150.04 1.09341C150.728 0.650889 151.533 0.515674 152.455 0.687766C153.365 0.896734 154.17 1.41301 154.87 2.23659C155.374 2.78974 155.928 3.68093 156.53 4.91015C157.071 6.1025 157.476 7.11046 157.747 7.93404C158.239 9.51974 158.712 11.6463 159.167 14.3137C159.216 14.6333 159.283 15.1066 159.369 15.7335C159.468 16.3481 159.541 16.809 159.591 17.1163C158.927 17.2393 158.208 17.5036 157.433 17.9092C157.286 18.0075 157.212 18.1243 157.212 18.2595C157.212 18.3947 157.28 18.5054 157.415 18.5914C157.55 18.6775 157.698 18.6775 157.857 18.5914C158.656 18.1981 159.412 17.9707 160.125 17.9092C161.01 17.7986 161.889 17.8354 162.762 18.0198C162.934 18.0567 163.069 18.0198 163.168 17.9092C163.278 17.7863 163.315 17.6511 163.278 17.5036C163.241 17.3438 163.131 17.2393 162.946 17.1901C162.344 17.018 161.527 16.9565 160.494 17.0057C160.494 16.4034 160.47 15.2725 160.42 13.6131C160.371 11.9413 160.359 10.6506 160.383 9.741C160.433 7.92175 160.531 6.53887 160.679 5.59237C160.863 4.15418 161.183 3.04788 161.637 2.27346C161.908 1.78178 162.197 1.44374 162.504 1.25935C162.934 0.976633 163.42 0.82298 163.961 0.798396C164.501 0.773811 164.993 0.872149 165.436 1.09341C166.038 1.37613 166.671 1.96001 167.335 2.84505C167.986 3.70551 168.478 4.5967 168.81 5.51862C169.584 7.63288 170.125 9.87622 170.432 12.2486Z" fill="black"/>
<path d="M190.527 3.17694C191.732 4.50451 192.156 6.44054 191.8 8.98503C191.578 10.7305 191.117 12.4576 190.417 14.1662C189.015 17.5712 186.809 20.5951 183.797 23.2379C182.396 24.4794 181.013 25.4874 179.649 26.2618C178.297 27.0362 176.871 27.4726 175.371 27.5709C174.646 27.6078 173.963 27.5217 173.324 27.3128C172.685 27.1038 172.224 26.735 171.941 26.2065C171.56 25.4935 171.425 24.3626 171.536 22.8138C171.659 20.7487 172.273 17.8293 173.38 14.0556C173.416 13.9572 173.484 13.7483 173.582 13.4287C173.693 13.0968 173.779 12.8386 173.841 12.6543C173.841 12.642 173.847 12.6235 173.859 12.5989C173.871 12.5621 173.877 12.5313 173.877 12.5068C173.927 12.3838 173.92 12.2793 173.859 12.1933C173.798 12.095 173.712 12.0335 173.601 12.0089C173.527 11.9843 173.441 11.972 173.343 11.972C173.33 11.972 173.312 11.9782 173.287 11.9905C173.263 12.0028 173.244 12.0089 173.232 12.0089H173.048C173.035 12.0089 173.005 12.0151 172.956 12.0274C172.919 12.0397 172.894 12.0458 172.882 12.0458C172.808 12.0458 172.618 12.0704 172.31 12.1196C172.003 12.1564 171.769 12.1749 171.61 12.1749C170.257 12.224 169.145 12.0335 168.272 11.6033C167.301 11.1485 166.816 10.3064 166.816 9.07722C166.816 8.09384 167.141 7.15963 167.793 6.27459C168.948 4.73806 170.989 3.44123 173.914 2.38409C176.201 1.52364 178.69 0.958195 181.382 0.687766C185.623 0.245245 188.671 1.07497 190.527 3.17694ZM181.99 8.65314C180.884 10.8903 180.017 13.484 179.391 16.4341C179.354 16.6062 179.397 16.7476 179.52 16.8582C179.643 16.9688 179.778 17.0119 179.925 16.9873C180.085 16.9504 180.183 16.8398 180.22 16.6554C180.761 13.9757 181.603 11.4496 182.746 9.07722C182.82 8.91742 182.802 8.76991 182.691 8.6347C182.593 8.49949 182.47 8.43188 182.322 8.43188C182.187 8.43188 182.076 8.50563 181.99 8.65314Z" fill="black"/>
<path d="M199.749 16.3973V16.8398C199.749 18.3763 199.639 19.8637 199.418 21.3019C199.036 23.539 198.483 25.2415 197.758 26.4093C197.352 27.0608 196.873 27.448 196.32 27.5709C195.644 27.7553 195.011 27.5893 194.421 27.0731C193.794 26.4707 193.302 25.7209 192.946 24.8236C192.589 23.9754 192.276 22.9183 192.005 21.6522C191.686 20.3 191.501 18.5238 191.452 16.3235C191.452 14.1355 191.587 12.4207 191.858 11.1792C191.993 10.54 192.233 9.83934 192.577 9.07722C193.216 10.1466 194.058 10.7735 195.103 10.9579H195.49C196.031 10.9579 196.566 10.8043 197.094 10.497C197.635 10.1774 198.108 9.75329 198.514 9.22473C198.944 10.0237 199.258 11.1054 199.454 12.4699C199.602 13.3549 199.7 14.664 199.749 16.3973ZM198.625 1.97845C199.129 2.96183 199.301 4.17876 199.141 5.62925C199.067 6.15781 198.858 6.85233 198.514 7.71278C198.121 7.15963 197.635 6.74169 197.057 6.45897C196.48 6.17625 195.865 6.07791 195.214 6.16396C194.206 6.23771 193.4 6.63721 192.798 7.36245C192.601 6.63721 192.565 5.75832 192.688 4.72577C192.847 3.45967 193.278 2.39639 193.978 1.53593C194.679 0.663181 195.447 0.226807 196.283 0.226807H196.541C197.389 0.337437 198.084 0.921318 198.625 1.97845ZM197.832 8.08155C197.869 8.11843 197.912 8.18603 197.961 8.28437C198.01 8.37042 198.053 8.43188 198.09 8.46875C197.697 9.04649 197.242 9.48901 196.726 9.79632C196.222 10.0913 195.705 10.202 195.177 10.1282C194.329 10.0176 193.665 9.45213 193.185 8.43188C193.173 8.41959 193.148 8.38271 193.112 8.32125C193.087 8.25979 193.062 8.21676 193.038 8.19218C193.407 7.72507 193.831 7.37475 194.31 7.14119C194.962 6.87076 195.601 6.82774 196.228 7.01212C196.867 7.18422 197.402 7.54069 197.832 8.08155Z" fill="black"/>
<path d="M217.702 14.8853C218.071 17.5527 217.868 19.9559 217.093 22.0947C216.491 23.7664 215.581 25.0879 214.364 26.059C213.147 27.0177 211.679 27.4971 209.958 27.4971C208.95 27.4971 207.997 27.3189 207.1 26.9624C206.202 26.606 205.416 26.1389 204.74 25.5611C204.076 24.9711 203.461 24.2704 202.896 23.4591C202.33 22.6356 201.857 21.7997 201.476 20.9515C201.107 20.1034 200.788 19.1999 200.517 18.2411C199.509 14.664 199.27 11.3574 199.798 8.32125C200.364 4.94088 201.599 2.64838 203.504 1.44374C204.217 0.890588 205.194 0.614012 206.436 0.614012C208.095 0.614012 209.656 1.16716 211.119 2.27346C212.594 3.37977 213.83 4.73806 214.825 6.34834C216.227 8.65928 217.185 11.5049 217.702 14.8853ZM207.395 10.5707C207.321 10.4232 207.216 10.3495 207.081 10.3495C206.921 10.3495 206.792 10.4171 206.694 10.5523C206.608 10.6875 206.602 10.835 206.676 10.9948C207.806 13.5147 208.587 15.967 209.017 18.3517C209.054 18.5361 209.165 18.6283 209.349 18.6283C209.472 18.6283 209.583 18.5791 209.681 18.4808C209.779 18.3824 209.81 18.2534 209.773 18.0936C209.368 15.7826 208.575 13.275 207.395 10.5707Z" fill="black"/>
<path d="M0.451172 25.632V1.9706H4.0322V12.1144H15.493V1.9706H19.074V25.632H15.493V15.0517H4.0322V25.632H0.451172Z" fill="black"/>
<path d="M29.9287 26.0391C27.9014 26.0391 26.3033 25.4102 25.149 24.145C23.9874 22.8798 23.4103 21.0005 23.4103 18.4997V8.86648H26.9914V18.1298C26.9914 21.3779 28.3231 22.9982 30.9793 22.9982C32.3111 22.9982 33.3987 22.5247 34.257 21.5777C35.1153 20.6306 35.5444 19.284 35.5444 17.5231V8.86648H39.1254V25.6322H35.9513L35.685 22.6875C35.1671 23.7233 34.405 24.5446 33.4061 25.1365C32.3999 25.7358 31.2457 26.0317 29.9435 26.0317L29.9287 26.0391Z" fill="black"/>
<path d="M53.1171 26.0388C51.8075 26.0388 50.6532 25.7799 49.6544 25.2619C48.6482 24.744 47.8565 24.0115 47.272 23.0645L46.902 25.6319H43.691V1.29716H47.272V11.4705C47.8121 10.6789 48.5594 9.98338 49.5064 9.37668C50.4535 8.76997 51.6669 8.46662 53.1541 8.46662C54.7744 8.46662 56.2098 8.85136 57.4454 9.61344C58.681 10.3829 59.6576 11.4261 60.3679 12.7579C61.0782 14.0897 61.4333 15.5991 61.4333 17.286C61.4333 18.9729 61.0782 20.4823 60.3679 21.7993C59.6576 23.1163 58.681 24.1521 57.4454 24.9068C56.2024 25.6615 54.767 26.0388 53.1171 26.0388ZM52.5104 22.9313C54.0419 22.9313 55.3071 22.406 56.2986 21.3554C57.29 20.3121 57.7857 18.936 57.7857 17.249C57.7857 16.1466 57.5637 15.1626 57.1124 14.3117C56.6611 13.4534 56.0396 12.7875 55.2553 12.2992C54.4636 11.8109 53.5536 11.5741 52.5178 11.5741C50.9862 11.5741 49.7284 12.1068 48.7518 13.1649C47.7677 14.2229 47.2794 15.5843 47.2794 17.2564C47.2794 18.9286 47.7677 20.3195 48.7518 21.3628C49.7284 22.4134 50.9862 22.9387 52.5178 22.9387L52.5104 22.9313Z" fill="black"/>
<path d="M73.1604 26.0386C71.5178 26.0386 70.0529 25.676 68.7803 24.9362C67.5077 24.2037 66.5088 23.1826 65.7911 21.8805C65.0661 20.5783 64.7109 19.0541 64.7109 17.3154C64.7109 15.5767 65.0661 14.0155 65.7764 12.6837C66.4866 11.3519 67.4781 10.3161 68.7507 9.57621C70.0233 8.82893 71.503 8.45899 73.1974 8.45899C74.8917 8.45899 76.2753 8.82893 77.4887 9.56142C78.7021 10.2939 79.6491 11.2705 80.3298 12.484C81.0031 13.6974 81.3435 15.0439 81.3435 16.5089C81.3435 16.7309 81.3435 16.975 81.3287 17.234C81.3139 17.493 81.2991 17.7815 81.2769 18.0923H68.2328C68.3437 19.7126 68.8839 20.9482 69.8383 21.7917C70.7928 22.6351 71.9026 23.0569 73.1678 23.0569C74.1814 23.0569 75.0323 22.8275 75.7204 22.3688C76.4085 21.91 76.919 21.2811 77.2593 20.4895H80.8403C80.389 22.0654 79.4938 23.3824 78.1546 24.4478C76.8154 25.5059 75.1507 26.0386 73.1678 26.0386H73.1604ZM73.1604 11.4037C71.9692 11.4037 70.9037 11.7589 69.9863 12.4692C69.0614 13.1794 68.4991 14.2449 68.2993 15.6654H77.7624C77.6959 14.3559 77.2297 13.32 76.3789 12.5579C75.5206 11.7959 74.4552 11.4111 73.1678 11.4111L73.1604 11.4037Z" fill="black"/>
<path d="M85.0582 25.6317V8.86593H88.2692L88.5726 12.04C89.1571 10.9376 89.971 10.0645 91.0216 9.42084C92.0648 8.77714 93.3374 8.45899 94.8246 8.45899V12.2102H93.848C92.8565 12.2102 91.9687 12.373 91.1918 12.6985C90.4149 13.0241 89.7934 13.579 89.3347 14.3559C88.876 15.1327 88.6392 16.213 88.6392 17.5817V25.6243H85.0582V25.6317Z" fill="black"/>
<path d="M107.866 11.8775V8.86616H103.131V1.29716H99.5498V8.86616H96.679V11.8775H99.5498V20.1568C99.5498 22.2062 100.038 23.6342 101.007 24.4333C101.977 25.2323 103.279 25.6319 104.929 25.6319H107.696V22.591H105.772C104.803 22.591 104.122 22.4134 103.73 22.0657C103.338 21.7179 103.138 21.0816 103.138 20.1568V11.8775H107.873H107.866Z" fill="black"/>
</svg>
